<?xml version="1.0" encoding="utf-8"?>
<!-- Generator: Adobe Illustrator 16.0.0, SVG Export Plug-In . SVG Version: 6.00 Build 0)  -->
<!DOCTYPE svg PUBLIC "-//W3C//DTD SVG 1.1//EN" "http://www.w3.org/Graphics/SVG/1.1/DTD/svg11.dtd">
<svg version="1.1" id="Layer_1" xmlns="http://www.w3.org/2000/svg" xmlns:xlink="http://www.w3.org/1999/xlink" x="0px" y="0px"
	 width="121.2px" height="117.1px" viewBox="0 0 121.2 117.1" style="enable-background:new 0 0 121.2 117.1;" xml:space="preserve"
	>
<style type="text/css">
<![CDATA[
	.st0{fill:none;stroke:#2EADE2;stroke-width:6;stroke-linecap:round;stroke-linejoin:round;stroke-miterlimit:10;}
	.st1{fill:none;stroke:#2EADE2;stroke-width:6;stroke-miterlimit:10;}
]]>
</style>
<symbol  id="New_Symbol" viewBox="-60.6 -58.5 121.2 117.1">
	<path class="st1" d="M57.6-25.1c0-2.8-2.3-5.1-5.1-5.1H-6.8l-28.1-22.1v22.1h-17.6c-2.8,0-5.1,2.3-5.1,5.1v75.5
		c0,2.8,2.3,5.1,5.1,5.1h105c2.8,0,5.1-2.3,5.1-5.1V-25.1z"/>
	<line class="st0" x1="-37.2" y1="30.5" x2="38.3" y2="30.5"/>
	<line class="st0" x1="-37.2" y1="12.7" x2="38.3" y2="12.7"/>
	<line class="st0" x1="-37.2" y1="-5.2" x2="38.3" y2="-5.2"/>
</symbol>
<use xlink:href="#New_Symbol"  width="121.2" height="117.1" x="-60.6" y="-58.5" transform="matrix(1 0 0 -1 60.625 58.5269)" style="overflow:visible;"/>
</svg>
