<?xml version="1.0" encoding="utf-8"?>
<!-- Generator: Adobe Illustrator 16.0.0, SVG Export Plug-In . SVG Version: 6.00 Build 0)  -->
<!DOCTYPE svg PUBLIC "-//W3C//DTD SVG 1.1//EN" "http://www.w3.org/Graphics/SVG/1.1/DTD/svg11.dtd">
<svg version="1.1" id="Layer_1" xmlns="http://www.w3.org/2000/svg" xmlns:xlink="http://www.w3.org/1999/xlink" x="0px" y="0px"
	 width="118.6px" height="109.5px" viewBox="0 0 118.6 109.5" style="enable-background:new 0 0 118.6 109.5;" xml:space="preserve"
	>
<style type="text/css">
<![CDATA[
	.st0{fill:none;stroke:#2EADE2;stroke-width:4;stroke-linecap:round;stroke-linejoin:round;stroke-miterlimit:10;}
	.st1{fill:#2EADE2;}
]]>
</style>
<symbol  id="New_Symbol_2" viewBox="-43.6 -40.3 87.2 80.5">
	<g>
		<path class="st0" d="M41.6,35.4c0,1.6-1.3,2.8-2.8,2.8h-61.9c-1.6,0-2.8-1.3-2.8-2.8v-54.9c0-1.6,1.3-2.8,2.8-2.8h61.9
			c1.6,0,2.8,1.3,2.8,2.8V35.4z"/>
	</g>
	<g>
		<path class="st0" d="M-23.2-22.3c-1.6,0-2.8,1.3-2.8,2.8v37.8c0,1.6-1.3,2.8-2.8,2.8h-9.9c-1.6,0-2.8-1.3-2.8-2.8v-53.7
			c0-1.6,1.3-2.8,2.8-2.8h60.2c1.6,0,2.8,1.3,2.8,2.8v10.3c0,1.6-1.3,2.8-2.8,2.8H-23.2z"/>
	</g>
	<path class="st0" d="M27,6.9c0,0-9.4-9.4-18.3-9.4c-12.4,0-20,9.4-20,9.4l0,0c0,0,7.7,8.5,20,8.5C17.6,15.4,27,6.9,27,6.9L27,6.9z"
		/>
	<path class="st1" d="M12.7,6.5c0-2.7-2.2-4.9-4.9-4.9c-2.7,0-4.9,2.2-4.9,4.9s2.2,4.9,4.9,4.9C10.5,11.4,12.7,9.2,12.7,6.5z"/>
	<polygon class="st1" points="41.6,29.5 -26,29.5 -26,37.3 41.6,37.3 	"/>
	<polygon class="st1" points="-26,13.4 -40.3,13.4 -40.3,21.1 -26,21.1 	"/>
</symbol>
<use xlink:href="#New_Symbol_2"  width="87.2" height="80.5" x="-43.6" y="-40.3" transform="matrix(1.36 0 0 -1.36 59.3135 54.7725)" style="overflow:visible;"/>
</svg>
