<?xml version="1.0" encoding="utf-8"?>
<!-- Generator: Adobe Illustrator 16.0.0, SVG Export Plug-In . SVG Version: 6.00 Build 0)  -->
<!DOCTYPE svg PUBLIC "-//W3C//DTD SVG 1.1//EN" "http://www.w3.org/Graphics/SVG/1.1/DTD/svg11.dtd">
<svg version="1.1" id="Layer_1" xmlns="http://www.w3.org/2000/svg" xmlns:xlink="http://www.w3.org/1999/xlink" x="0px" y="0px"
	 width="101.6px" height="106.6px" viewBox="0 0 101.6 106.6" style="enable-background:new 0 0 101.6 106.6;" xml:space="preserve"
	>
<style type="text/css">
<![CDATA[
	.st0{fill:none;stroke:#2EADE2;stroke-width:6;stroke-linecap:round;stroke-linejoin:round;stroke-miterlimit:10;}
	.st1{fill:#2EADE2;}
]]>
</style>
<symbol  id="New_Symbol_1" viewBox="-50.8 -53.3 101.6 106.6">
	<g>
		<path class="st1" d="M50.5,25.8c-0.1,0.5-1.2,1.9-2.2,3L26.7,51.3c-1.1,1.1-3.2,2-4.8,2H-48c-1.6,0-2.8-1.3-2.8-2.8V-50.4
			c0-1.6,1.3-2.8,2.8-2.8l96-0.1c1.6,0,2.8,1.3,2.8,2.8v72C50.8,23,50.7,25.3,50.5,25.8z M44.7-44.4c0-1.6-1.3-2.8-2.8-2.8H-42
			c-1.6,0-2.8,1.3-2.8,2.8V44c0,1.6,1.3,2.8,2.8,2.8l60.9,0.1c1.6,0,2.8-1.3,2.8-2.8V27.6c0-1.6,1.3-2.8,2.8-2.8h17.3
			c1.6,0,2.8-1.3,2.8-2.8V-44.4z"/>
	</g>
	<line class="st0" x1="-31.8" y1="11.5" x2="30.2" y2="11.5"/>
	<line class="st0" x1="-31.8" y1="31.3" x2="5.2" y2="31.3"/>
	<line class="st0" x1="-31.8" y1="-9.8" x2="30.2" y2="-9.8"/>
	<line class="st0" x1="-31.8" y1="-31.2" x2="30.2" y2="-31.2"/>
</symbol>
<use xlink:href="#New_Symbol_1"  width="101.6" height="106.6" x="-50.8" y="-53.3" transform="matrix(1 0 0 -1 50.8105 53.3247)" style="overflow:visible;"/>
</svg>
