<?xml version="1.0" encoding="utf-8"?>
<!-- Generator: Adobe Illustrator 15.0.2, SVG Export Plug-In  -->
<!DOCTYPE svg PUBLIC "-//W3C//DTD SVG 1.1//EN" "http://www.w3.org/Graphics/SVG/1.1/DTD/svg11.dtd" [
	<!ENTITY ns_flows "http://ns.adobe.com/Flows/1.0/">
]>
<svg version="1.1"
	 xmlns="http://www.w3.org/2000/svg" xmlns:xlink="http://www.w3.org/1999/xlink" xmlns:a="http://ns.adobe.com/AdobeSVGViewerExtensions/3.0/"
	 x="0px" y="0px" width="280px" height="70px" viewBox="0 0.001 280 70" overflow="visible" enable-background="new 0 0.001 280 70"
	 xml:space="preserve">
<defs>
</defs>
<path opacity="0.71" enable-background="new    " d="M163.166,19.175c-4.243,0-7.646,1.142-11.18,2.879
	C152.02,12.038,152.148,3.305,152.385,0L131.8,3.976v1.855l2.007,0.258c2.867,0.393,3.974,2.072,4.311,5.904
	c0.646,7.342,0.552,46.755,0,53.07c5.541,1.239,11.542,2.198,17.549,2.198c16.336,0,26.166-10.094,26.166-26.067
	C181.834,28.379,173.854,19.175,163.166,19.175z M155.992,64.001c-1.167,0-2.676-0.188-3.512-0.339
	c-0.326-4.427-0.523-22.662-0.504-38.593c1.891-0.639,3.154-0.789,4.808-0.789c6.763,0,10.559,7.806,10.577,17.663
	C167.385,54.487,162.693,64.001,155.992,64.001z M54.426,19.657l-3.209,0.892c-2.803-9.36-7.262-14.655-15.599-14.655H24.929
	c-0.496,5.966-0.687,15.904-0.639,26.25l7.194-0.229c4.781-0.158,6.785-3.703,7.94-8.96h2.682v21.903h-2.682
	c-1.155-5.258-3.158-8.799-7.94-8.961l-7.173-0.229c0.074,7.859,0.285,14.55,0.617,18.52c0.486,5.83,2.072,8.386,6.204,8.987
	l3.65,0.39v2.605H0v-2.605l2.878-0.39c4.125-0.603,5.715-3.157,6.201-8.987c0.797-9.611,0.926-29.583,0-40.747
	C8.594,7.606,7.004,5.054,2.878,4.451L0,4.06V1.453h54.134L54.426,19.657z M71.729,18.655c15.383,0,23.029,10.429,23.029,24.185
	c0,13.431-8.63,24.433-24.016,24.433c-15.39,0-23.038-10.429-23.038-24.185C47.704,29.658,56.333,18.655,71.729,18.655z
	 M70.927,21.635c-6.803,0-8.707,9.197-8.707,21.327c0,11.803,3.011,21.328,9.321,21.328c6.799,0,8.704-9.198,8.704-21.328
	C80.244,31.164,77.233,21.635,70.927,21.635z M185.609,43.392c-0.016-12.73,8.021-24.708,23.886-24.708
	c12.907,0,19.063,9.569,19.135,22.083h-28.791c-0.317,11.354,5.431,19.691,16.437,19.691c4.842,0,7.453-1.198,10.375-3.436
	l1.353,1.621c-3.188,4.428-9.853,8.627-18.702,8.627C195.436,67.272,185.631,57.446,185.609,43.392z M199.95,37.53l14.431-0.312
	c0.07-6.387-0.951-15.511-6.143-15.511C203.008,21.709,200.072,30.344,199.95,37.53z M265.621,32.976l-2.355,0.616
	c-2.506-8.127-6.318-11.593-11.902-11.593c-3.717,0-6.397,2.787-6.397,6.844c0,4.022,3.015,6.143,11.707,9.512
	c8.04,3.112,11.22,6.688,11.22,13.217c0,9.723-7.445,15.705-19.711,15.705c-5.882,0-12.424-1.314-16.257-2.86l-0.411-13.462
	l2.354-0.617c3.371,9.413,7.758,12.836,13.561,12.836c4.922,0,7.668-3.499,7.668-7.234c0-3.627-2.066-5.817-9.919-8.621
	c-7.292-2.604-12.571-5.808-12.571-13.961c0-7.92,7.013-14.702,18.592-14.702c5.381,0,10.486,0.942,13.906,2.509L265.621,32.976z
	 M129.887,32.605c-6.236-4.18-12.942-2.352-14.325-0.081c-0.48,7.53-0.364,19.075,0.147,24.875c0.335,3.834,1.44,5.512,4.315,5.91
	l3.72,0.254v2.607H95.178v-2.607l2.002-0.254c2.871-0.396,3.976-2.076,4.314-5.91c0.56-6.317,0.642-19.444,0-26.783
	c-0.338-3.837-1.444-5.517-4.314-5.912l-2.002-0.26v-1.853l20.515-3.974l-0.232,10.729c4.795-11.028,14.259-12.492,19.453-9.389
	L129.887,32.605z"/>
<linearGradient id="SVGID_1_" gradientUnits="userSpaceOnUse" x1="133.9468" y1="67.668" x2="133.9468" y2="0.9477">
	<stop  offset="0" style="stop-color:#EBEBEB"/>
	<stop  offset="1" style="stop-color:#FFFFFF"/>
</linearGradient>
<path fill="url(#SVGID_1_)" d="M163.166,20.4c-4.243,0-7.646,1.142-11.18,2.879c0.033-10.016,0.162-18.75,0.398-22.054L131.8,5.201
	v1.854l2.007,0.258c2.867,0.393,3.974,2.072,4.311,5.904c0.646,7.342,0.552,46.754,0,53.07c5.541,1.241,11.542,2.198,17.549,2.198
	c16.336,0,26.166-10.094,26.166-26.066C181.834,29.605,173.854,20.4,163.166,20.4z M155.992,65.226
	c-1.167,0-2.676-0.187-3.512-0.339c-0.326-4.426-0.523-22.661-0.504-38.593c1.891-0.638,3.154-0.789,4.808-0.789
	c6.763,0,10.559,7.806,10.577,17.663C167.385,55.713,162.693,65.226,155.992,65.226z M54.426,20.882l-3.209,0.892
	c-2.803-9.36-7.262-14.656-15.599-14.656H24.929c-0.496,5.966-0.687,15.904-0.639,26.25l7.194-0.229
	c4.781-0.158,6.785-3.703,7.94-8.96h2.682v21.903h-2.682c-1.155-5.257-3.158-8.799-7.94-8.961l-7.173-0.228
	c0.074,7.859,0.285,14.549,0.617,18.52c0.486,5.83,2.072,8.384,6.204,8.986l3.65,0.39v2.604H0v-2.604l2.878-0.388
	c4.125-0.604,5.715-3.157,6.201-8.987c0.797-9.613,0.926-29.583,0-40.748c-0.485-5.835-2.075-8.388-6.201-8.99L0,5.285V2.678h54.134
	L54.426,20.882z M71.729,19.88c15.383,0,23.029,10.429,23.029,24.186c0,13.43-8.63,24.432-24.016,24.432
	c-15.39,0-23.038-10.43-23.038-24.186C47.704,30.883,56.333,19.88,71.729,19.88z M70.927,22.86c-6.803,0-8.707,9.197-8.707,21.327
	c0,11.804,3.011,21.328,9.321,21.328c6.799,0,8.704-9.199,8.704-21.328C80.244,32.389,77.233,22.86,70.927,22.86z M185.609,44.615
	c-0.016-12.729,8.021-24.707,23.886-24.707c12.907,0,19.063,9.568,19.135,22.083h-28.791c-0.317,11.354,5.431,19.691,16.437,19.691
	c4.842,0,7.453-1.197,10.375-3.436l1.353,1.623c-3.188,4.427-9.853,8.625-18.702,8.625
	C195.436,68.496,185.631,58.671,185.609,44.615z M199.95,38.755l14.431-0.311c0.07-6.387-0.951-15.511-6.143-15.511
	C203.008,22.934,200.072,31.569,199.95,38.755z M265.621,34.201l-2.355,0.616c-2.506-8.127-6.318-11.593-11.902-11.593
	c-3.717,0-6.397,2.786-6.397,6.844c0,4.022,3.015,6.144,11.707,9.511c8.04,3.113,11.22,6.689,11.22,13.217
	c0,9.723-7.445,15.706-19.711,15.706c-5.882,0-12.424-1.313-16.257-2.86l-0.411-13.461l2.354-0.617
	c3.371,9.412,7.758,12.836,13.561,12.836c4.922,0,7.668-3.5,7.668-7.235c0-3.628-2.066-5.818-9.919-8.621
	c-7.292-2.604-12.571-5.808-12.571-13.961c0-7.92,7.013-14.702,18.592-14.702c5.381,0,10.486,0.942,13.906,2.509L265.621,34.201z
	 M129.887,33.83c-6.236-4.18-12.942-2.352-14.325-0.081c-0.48,7.529-0.364,19.074,0.147,24.876c0.335,3.834,1.44,5.512,4.315,5.909
	l3.72,0.256v2.605H95.178V64.79l2.002-0.256c2.871-0.396,3.976-2.075,4.314-5.909c0.56-6.317,0.642-19.444,0-26.783
	c-0.338-3.837-1.444-5.517-4.314-5.912l-2.002-0.26v-1.853l20.515-3.974l-0.232,10.729c4.795-11.028,14.259-12.492,19.453-9.389
	L129.887,33.83z"/>
</svg>
