<?xml version="1.0" standalone="no"?>
<!DOCTYPE svg PUBLIC "-//W3C//DTD SVG 1.1//EN" "http://www.w3.org/Graphics/SVG/1.1/DTD/svg11.dtd" >
<svg>
<metadata>
Created by FontForge 20110222 at Tue Feb 10 22:11:58 2015
 By www-data
Copyright 1992, 1994, 1997, 2000, 2004 Adobe Systems Incorporated. All rights reserved. Myriad is either a registered trademark or a trademark of Adobe Systems Incorporated in the United States and/or other countries.
</metadata>
<defs>
<font id="MyriadPro-Regular" horiz-adv-x="300" >
  <font-face 
    font-family="Myriad Pro"
    font-weight="400"
    font-stretch="normal"
    units-per-em="1000"
    panose-1="2 11 5 3 3 4 3 2 2 4"
    ascent="750"
    descent="-250"
    x-height="484"
    cap-height="674"
    bbox="-157 -250 1126 952"
    underline-thickness="50"
    underline-position="-50"
    stemh="67"
    stemv="88"
    unicode-range="U+0020-FB04"
  />
<missing-glyph horiz-adv-x="500" 
d="M0 0v700h500v-700h-500zM250 395l170 255h-340zM280 350l170 -255v510zM80 50h340l-170 255zM50 605v-510l170 255z" />
    <glyph glyph-name="f_f" unicode="ff" horiz-adv-x="583" 
d="M460 0h-88v417h-203v-417h-87v417h-68v67h68v16c0 68 16 127 54 165c28 28 68 45 122 45c28 0 54 -9 69 -17l-18 -65c-13 6 -32 12 -52 12c-69 0 -88 -59 -88 -135v-21h203v23c0 68 16 130 57 169c33 32 77 45 117 45c32 0 58 -7 75 -14l-11 -68c-14 6 -31 11 -57 11
c-74 0 -94 -66 -94 -140v-26h117v-67h-116v-417z" />
    <glyph glyph-name="f_f_i" unicode="ffi" horiz-adv-x="815" 
d="M705 690l-26 -66c-22 14 -58 26 -98 26c-93 0 -121 -65 -121 -142v-24h282v-484h-88v417h-193v-417h-88v417h-204v-417h-87v417h-68v67h68v18c0 61 16 120 58 161c28 29 70 47 124 47c33 0 67 -12 85 -21l-24 -65c-15 8 -38 17 -61 17c-28 0 -48 -10 -63 -26
c-24 -26 -32 -70 -32 -112v-19h204v26c0 128 76 211 212 211c44 0 94 -13 120 -31z" />
    <glyph glyph-name="f_f_j" unicode="ffj" horiz-adv-x="809" 
d="M705 690l-26 -66c-22 14 -58 26 -98 26c-93 0 -121 -65 -121 -142v-24h282v-439c0 -94 -15 -155 -58 -199c-39 -39 -103 -55 -150 -55l-9 69c40 3 75 14 96 37c24 28 33 66 33 182v338h-193v-417h-88v417h-204v-417h-87v417h-68v67h68v18c0 61 16 120 58 161
c28 29 70 47 124 47c33 0 67 -12 85 -21l-24 -65c-15 8 -38 17 -61 17c-28 0 -48 -10 -63 -26c-24 -26 -32 -70 -32 -112v-19h204v26c0 128 76 211 212 211c44 0 94 -13 120 -31z" />
    <glyph glyph-name="f_f_l" unicode="ffl" horiz-adv-x="815" 
d="M349 692l-23 -66c-18 9 -39 15 -60 15c-29 0 -50 -10 -65 -26c-24 -26 -32 -67 -32 -111v-20h204v21c0 67 24 127 69 167c37 32 87 49 155 49c56 0 108 -12 145 -32v-689h-87v640c-16 8 -38 13 -73 13c-91 0 -122 -67 -122 -145v-24h114v-67h-113v-417h-88v417h-204v-417
h-87v417h-68v67h68v12c0 63 14 125 56 166c31 30 76 48 131 48c32 0 65 -11 80 -18z" />
    <glyph glyph-name="f_i" unicode="fi" horiz-adv-x="523" 
d="M169 0h-87v417h-68v67h68v26c0 128 75 211 211 211c45 0 98 -14 123 -32l-25 -67c-21 15 -59 28 -102 28c-93 0 -120 -65 -120 -142v-24h281v-484h-87v417h-194v-417z" />
    <glyph glyph-name="f_j" unicode="fj" horiz-adv-x="522" 
d="M169 0h-87v417h-68v67h68v26c0 128 75 211 211 211c45 0 98 -14 123 -32l-25 -67c-21 15 -59 28 -102 28c-93 0 -120 -65 -120 -142v-24h281v-439c0 -94 -15 -155 -58 -199c-38 -39 -103 -55 -150 -55l-9 69c41 3 75 14 96 37c24 28 34 66 34 182v338h-194v-417z" />
    <glyph glyph-name="f_l" unicode="fl" horiz-adv-x="523" 
d="M169 0h-87v417h-68v67h68v21c0 67 23 127 68 167c38 32 88 49 155 49c56 0 109 -12 145 -32v-689h-87v640c-15 8 -38 13 -72 13c-92 0 -122 -67 -122 -145v-24h113v-67h-113v-417z" />
    <glyph glyph-name=".notdef" horiz-adv-x="500" 
d="M0 0v700h500v-700h-500zM250 395l170 255h-340zM280 350l170 -255v510zM80 50h340l-170 255zM50 605v-510l170 255z" />
    <glyph glyph-name="space" unicode=" " horiz-adv-x="212" 
 />
    <glyph glyph-name="exclam" unicode="!" horiz-adv-x="230" 
d="M149 194h-68l-14 480h96zM115 -11c-35 0 -59 27 -59 62c0 36 25 62 59 62c36 0 59 -26 59 -62c0 -35 -23 -62 -59 -62z" />
    <glyph glyph-name="quotedbl" unicode="&#x22;" horiz-adv-x="337" 
d="M51 685h87l-17 -240h-54zM200 685h87l-17 -240h-53z" />
    <glyph glyph-name="numbersign" unicode="#" horiz-adv-x="497" 
d="M188 255h104l19 145h-104zM153 0h-60l26 196h-82v59h91l19 145h-86v59h95l26 191h58l-25 -191h104l26 191h59l-25 -191h82v-59h-91l-18 -145h86v-59h-95l-26 -196h-60l26 196h-104z" />
    <glyph glyph-name="dollar" unicode="$" horiz-adv-x="513" 
d="M281 -86h-63v101c-58 1 -118 19 -153 44l24 67c36 -24 88 -43 144 -43c71 0 119 41 119 98c0 55 -39 89 -113 119c-102 40 -165 86 -165 173c0 83 59 146 151 161v101h62v-97c60 -2 101 -18 130 -35l-25 -66c-21 12 -62 34 -126 34c-77 0 -106 -46 -106 -86
c0 -52 37 -78 124 -114c103 -42 155 -94 155 -183c0 -79 -55 -153 -158 -170v-104z" />
    <glyph glyph-name="percent" unicode="%" horiz-adv-x="792" 
d="M187 661c91 0 151 -70 151 -194c0 -137 -72 -205 -156 -205c-81 0 -151 65 -152 196c0 130 71 203 157 203zM184 608c-55 0 -84 -65 -84 -147c-2 -83 29 -146 84 -146c58 0 84 62 84 148c0 79 -23 145 -84 145zM232 -11h-56l382 672h56zM611 392c91 0 150 -70 150 -194
c0 -137 -72 -205 -155 -205c-81 0 -151 65 -152 195c0 131 71 204 157 204zM608 339c-55 0 -85 -65 -85 -147c-1 -83 31 -146 85 -146c58 0 84 62 84 148c0 79 -23 145 -84 145z" />
    <glyph glyph-name="ampersand" unicode="&#x26;" horiz-adv-x="605" 
d="M602 0h-104c-19 19 -37 38 -63 66c-58 -54 -123 -77 -197 -77c-131 0 -207 88 -207 189c0 92 55 155 132 197v3c-35 44 -56 93 -56 141c0 82 59 166 171 166c84 0 149 -56 149 -143c0 -71 -41 -127 -148 -180v-3c57 -66 121 -140 164 -188c31 47 52 112 65 197h80
c-18 -106 -47 -190 -97 -249c36 -38 71 -76 111 -119zM253 55c58 0 107 26 139 61c-40 44 -115 126 -190 212c-36 -23 -87 -66 -87 -137c0 -77 57 -136 138 -136zM272 625c-56 0 -85 -46 -85 -98c0 -48 22 -85 51 -121c68 39 112 75 112 132c0 41 -23 87 -78 87z" />
    <glyph glyph-name="quoteright" unicode="&#x2019;" horiz-adv-x="207" 
d="M93 676l91 9c-23 -84 -66 -191 -94 -237l-56 -7c22 59 48 163 59 235z" />
    <glyph glyph-name="parenleft" unicode="(" horiz-adv-x="284" 
d="M195 694h69c-73 -98 -126 -228 -126 -409c0 -178 55 -306 126 -406h-69c-63 83 -131 211 -131 406c1 197 68 325 131 409z" />
    <glyph glyph-name="parenright" unicode=")" horiz-adv-x="284" 
d="M88 -121h-68c71 99 126 229 126 409c0 179 -54 307 -126 406h68c64 -82 131 -210 131 -407c0 -196 -67 -323 -131 -408z" />
    <glyph glyph-name="asterisk" unicode="*" horiz-adv-x="415" 
d="M269 685l60 -34l-95 -125v-2l151 20v-68l-151 18v-2l96 -120l-63 -36l-60 140h-2l-65 -141l-57 36l95 122v2l-148 -19v68l147 -19v2l-94 122l61 35l62 -139h2z" />
    <glyph glyph-name="plus" unicode="+" horiz-adv-x="596" 
d="M266 532h64v-235h226v-60h-226v-237h-64v237h-226v60h226v235z" />
    <glyph glyph-name="comma" unicode="," horiz-adv-x="207" 
d="M79 -117l-63 -6c22 59 49 166 60 239l98 10c-23 -85 -67 -196 -95 -243z" />
    <glyph glyph-name="hyphen" unicode="-" horiz-adv-x="307" 
d="M30 303h247v-65h-247v65z" />
    <glyph glyph-name="period" unicode="." horiz-adv-x="207" 
d="M111 -11c-35 0 -59 27 -59 63c0 37 25 63 60 63s59 -26 59 -63c0 -36 -23 -63 -60 -63z" />
    <glyph glyph-name="slash" unicode="/" horiz-adv-x="343" 
d="M66 -40h-67l279 725h68z" />
    <glyph glyph-name="zero" unicode="0" horiz-adv-x="513" 
d="M262 661c137 0 215 -122 215 -329c0 -221 -82 -343 -226 -343c-127 0 -213 119 -215 334c0 218 94 338 226 338zM257 593c-77 0 -133 -94 -133 -271c0 -169 52 -265 132 -265c90 0 133 105 133 271c0 160 -41 265 -132 265z" />
    <glyph glyph-name="one" unicode="1" horiz-adv-x="513" 
d="M236 0v568h-2l-113 -61l-17 67l142 76h75v-650h-85z" />
    <glyph glyph-name="two" unicode="2" horiz-adv-x="513" 
d="M460 0h-415v54l69 67c166 158 241 242 242 340c0 66 -32 127 -129 127c-59 0 -108 -30 -138 -55l-28 62c45 38 109 66 184 66c140 0 199 -96 199 -189c0 -120 -87 -217 -224 -349l-52 -48v-2h292v-73z" />
    <glyph glyph-name="three" unicode="3" horiz-adv-x="513" 
d="M42 33l24 68c25 -16 83 -41 144 -41c113 0 148 72 147 126c-1 91 -83 130 -168 130h-49v66h49c64 0 145 33 145 110c0 52 -33 98 -114 98c-52 0 -102 -23 -130 -43l-23 64c34 25 100 50 170 50c128 0 186 -76 186 -155c0 -67 -40 -124 -120 -153v-2
c80 -16 145 -76 145 -167c0 -104 -81 -195 -237 -195c-73 0 -137 23 -169 44z" />
    <glyph glyph-name="four" unicode="4" horiz-adv-x="513" 
d="M400 0h-83v177h-302v58l290 415h95v-404h91v-69h-91v-177zM104 246h213v217c0 34 1 68 3 102h-3c-20 -38 -36 -66 -54 -96l-159 -221v-2z" />
    <glyph glyph-name="five" unicode="5" horiz-adv-x="513" 
d="M433 650v-74h-248l-25 -167c15 2 29 4 53 4c50 0 100 -11 140 -35c51 -29 93 -85 93 -167c0 -127 -101 -222 -242 -222c-71 0 -131 20 -162 40l22 67c27 -16 80 -36 139 -36c83 0 154 54 154 141c-1 84 -57 144 -187 144c-37 0 -66 -4 -90 -7l42 312h311z" />
    <glyph glyph-name="six" unicode="6" horiz-adv-x="513" 
d="M416 660v-72c-18 1 -41 0 -66 -4c-138 -23 -211 -124 -226 -231h3c31 41 85 75 157 75c115 0 196 -83 196 -210c0 -119 -81 -229 -216 -229c-139 0 -230 108 -230 277c0 128 46 229 110 293c54 53 126 86 208 96c26 4 48 5 64 5zM264 57c76 0 127 63 127 156
s-53 149 -134 149c-53 0 -102 -33 -126 -80c-6 -10 -10 -23 -10 -39c2 -107 51 -186 143 -186z" />
    <glyph glyph-name="seven" unicode="7" horiz-adv-x="513" 
d="M57 650h410v-58l-283 -592h-91l282 575v2h-318v73z" />
    <glyph glyph-name="eight" unicode="8" horiz-adv-x="513" 
d="M255 -11c-136 0 -218 81 -218 176c0 82 49 140 129 174l-1 3c-72 34 -103 90 -103 146c0 103 87 173 201 173c126 0 189 -79 189 -160c0 -55 -27 -114 -107 -152v-3c81 -32 131 -89 131 -168c0 -113 -97 -189 -221 -189zM257 53c79 0 130 49 130 116
c0 79 -55 117 -143 142c-76 -22 -117 -72 -117 -134c-3 -66 47 -124 130 -124zM258 598c-73 0 -113 -48 -113 -104c0 -65 49 -100 124 -120c56 19 99 59 99 118c0 52 -31 106 -110 106z" />
    <glyph glyph-name="nine" unicode="9" horiz-adv-x="513" 
d="M96 -10v72c19 -2 41 0 71 3c51 7 99 28 136 63c43 39 74 96 86 173h-3c-36 -44 -88 -70 -153 -70c-117 0 -192 88 -192 199c0 123 89 231 222 231s215 -108 215 -274c0 -143 -48 -243 -112 -305c-50 -49 -119 -79 -189 -87c-32 -5 -60 -6 -81 -5zM256 594
c-75 0 -128 -66 -128 -158c0 -81 49 -138 125 -138c59 0 105 29 128 68c5 8 8 18 8 32c0 111 -41 196 -133 196z" />
    <glyph glyph-name="colon" unicode=":" horiz-adv-x="207" 
d="M111 342c-35 0 -59 27 -59 62c0 37 25 63 60 63s58 -26 59 -63c0 -35 -23 -62 -60 -62zM111 -11c-35 0 -59 27 -59 62c0 37 25 63 60 63s58 -26 59 -63c0 -35 -23 -62 -60 -62z" />
    <glyph glyph-name="semicolon" unicode=";" horiz-adv-x="207" 
d="M78 -117l-61 -6c22 59 49 166 60 239l97 10c-24 -85 -68 -196 -96 -243zM119 342c-35 0 -59 27 -59 62c0 37 25 63 59 63c36 0 59 -26 59 -63c0 -35 -23 -62 -59 -62z" />
    <glyph glyph-name="less" unicode="&#x3c;" horiz-adv-x="596" 
d="M66 239v54l464 239v-69l-391 -196v-2l391 -196v-69z" />
    <glyph glyph-name="equal" unicode="=" horiz-adv-x="596" 
d="M556 337h-516v60h516v-60zM556 141h-516v60h516v-60z" />
    <glyph glyph-name="greater" unicode="&#x3e;" horiz-adv-x="596" 
d="M530 294v-56l-464 -238v69l394 196v2l-394 196v69z" />
    <glyph glyph-name="question" unicode="?" horiz-adv-x="406" 
d="M219 191h-78l-2 26c-6 54 12 113 62 173c45 53 70 92 70 137c0 51 -32 85 -95 86c-36 0 -76 -12 -101 -31l-24 63c33 24 90 40 143 40c115 0 167 -71 167 -147c0 -68 -38 -117 -86 -174c-44 -52 -60 -96 -57 -147zM178 -11c-35 0 -59 27 -59 62c0 37 25 63 60 63
s59 -26 59 -63c0 -35 -23 -62 -60 -62z" />
    <glyph glyph-name="at" unicode="@" horiz-adv-x="737" 
d="M448 255l21 113c-10 3 -27 7 -50 7c-88 0 -159 -83 -159 -180c0 -44 22 -76 66 -76c58 0 111 74 122 136zM508 -21l16 -43c-55 -29 -111 -40 -178 -40c-164 0 -303 120 -303 312c0 206 143 384 365 384c174 0 291 -122 291 -289c0 -150 -84 -238 -178 -238
c-40 0 -77 27 -74 88h-4c-35 -59 -81 -88 -141 -88c-58 0 -108 47 -108 126c0 124 98 237 237 237c43 0 81 -9 107 -21l-34 -181c-15 -76 -3 -111 30 -112c51 -1 108 67 108 183c0 145 -87 249 -242 249c-163 0 -300 -129 -300 -332c0 -167 109 -270 257 -270
c57 0 110 12 151 35z" />
    <glyph glyph-name="A" unicode="A" horiz-adv-x="612" 
d="M424 212h-239l-70 -212h-90l229 674h105l230 -674h-93zM203 280h203l-66 194c-15 44 -25 84 -35 123h-2c-10 -40 -21 -81 -34 -122z" />
    <glyph glyph-name="B" unicode="B" horiz-adv-x="542" 
d="M76 2v663c38 8 98 14 159 14c87 0 143 -15 185 -49c35 -26 56 -66 56 -119c0 -65 -43 -122 -114 -148v-2c64 -16 139 -69 139 -169c0 -58 -23 -102 -57 -135c-47 -43 -123 -63 -233 -63c-60 0 -106 4 -135 8zM163 606v-217h79c92 0 146 48 146 113c0 79 -60 110 -148 110
c-40 0 -63 -3 -77 -6zM163 323v-257c17 -3 42 -4 73 -4c90 0 173 33 173 131c0 92 -79 130 -174 130h-72z" />
    <glyph glyph-name="C" unicode="C" horiz-adv-x="580" 
d="M529 91l18 -69c-32 -16 -96 -32 -178 -32c-190 0 -333 120 -333 341c0 211 143 354 352 354c84 0 137 -18 160 -30l-21 -71c-33 16 -80 28 -136 28c-158 0 -263 -101 -263 -278c0 -165 95 -271 259 -271c53 0 107 11 142 28z" />
    <glyph glyph-name="D" unicode="D" horiz-adv-x="666" 
d="M76 2v663c53 8 116 14 185 14c125 0 214 -29 273 -84c60 -55 95 -133 95 -242c0 -110 -34 -200 -97 -262c-63 -63 -167 -97 -298 -97c-62 0 -114 3 -158 8zM163 601v-532c22 -4 54 -5 88 -5c186 0 287 104 287 286c1 159 -89 260 -273 260c-45 0 -79 -4 -102 -9z" />
    <glyph glyph-name="E" unicode="E" horiz-adv-x="492" 
d="M425 388v-72h-262v-243h292v-73h-379v674h364v-73h-277v-213h262z" />
    <glyph glyph-name="F" unicode="F" horiz-adv-x="487" 
d="M76 0v674h363v-73h-276v-224h255v-72h-255v-305h-87z" />
    <glyph glyph-name="G" unicode="G" horiz-adv-x="646" 
d="M589 354v-324c-39 -14 -116 -37 -207 -37c-102 0 -186 26 -252 89c-58 56 -94 146 -94 251c1 201 139 348 365 348c78 0 139 -17 168 -31l-21 -71c-36 16 -81 29 -149 29c-164 0 -271 -102 -271 -271c0 -171 103 -272 260 -272c57 0 96 8 116 18v201h-137v70h222z" />
    <glyph glyph-name="H" unicode="H" horiz-adv-x="652" 
d="M76 674h87v-282h326v282h88v-674h-88v316h-326v-316h-87v674z" />
    <glyph glyph-name="I" unicode="I" horiz-adv-x="239" 
d="M76 674h87v-674h-87v674z" />
    <glyph glyph-name="J" unicode="J" horiz-adv-x="370" 
d="M214 230v444h87v-451c0 -179 -88 -234 -204 -234c-32 0 -71 7 -93 16l13 71c18 -7 44 -13 73 -13c78 0 124 35 124 167z" />
    <glyph glyph-name="K" unicode="K" horiz-adv-x="542" 
d="M76 0v674h87v-325h3c18 26 36 50 53 72l206 253h108l-244 -286l263 -388h-103l-222 331l-64 -74v-257h-87z" />
    <glyph glyph-name="L" unicode="L" horiz-adv-x="472" 
d="M76 0v674h87v-601h288v-73h-375z" />
    <glyph glyph-name="M" unicode="M" horiz-adv-x="804" 
d="M661 0l-17 296c-5 94 -11 207 -10 291h-3c-23 -79 -51 -163 -85 -256l-119 -327h-66l-109 321c-32 95 -59 182 -78 262h-2c-2 -84 -7 -197 -13 -298l-18 -289h-83l47 674h111l115 -326c28 -83 51 -157 68 -227h3c17 68 41 142 71 227l120 326h111l42 -674h-85z" />
    <glyph glyph-name="N" unicode="N" horiz-adv-x="658" 
d="M158 0h-82v674h95l216 -341c50 -79 89 -150 121 -219l2 1c-8 90 -10 172 -10 277v282h82v-674h-88l-214 342c-47 75 -92 152 -126 225l-3 -1c5 -85 7 -166 7 -278v-288z" />
    <glyph glyph-name="O" unicode="O" horiz-adv-x="689" 
d="M349 685c184 0 303 -141 303 -341c0 -232 -141 -355 -313 -355c-178 0 -303 138 -303 342c0 214 133 354 313 354zM345 614c-144 0 -216 -133 -216 -281c0 -144 78 -273 215 -273c138 0 216 127 216 280c0 134 -70 274 -215 274z" />
    <glyph glyph-name="P" unicode="P" horiz-adv-x="532" 
d="M76 0v666c42 7 97 13 167 13c86 0 149 -20 189 -56c37 -32 59 -81 59 -141c0 -61 -18 -109 -52 -144c-46 -49 -121 -74 -206 -74c-26 0 -50 1 -70 6v-270h-87zM163 603v-262c19 -5 43 -7 72 -7c105 0 169 51 169 144c0 89 -63 132 -159 132c-38 0 -67 -3 -82 -7z" />
    <glyph glyph-name="Q" unicode="Q" horiz-adv-x="689" 
d="M657 -26l-25 -73c-91 24 -180 51 -258 78c-14 5 -28 10 -41 10c-160 6 -297 124 -297 341c0 216 132 355 314 355c183 0 302 -142 302 -341c0 -173 -80 -284 -192 -323v-4c67 -17 140 -33 197 -43zM343 60c139 0 217 126 217 280c0 135 -70 274 -213 274
c-147 0 -219 -136 -218 -282c-1 -143 78 -272 214 -272z" />
    <glyph glyph-name="R" unicode="R" horiz-adv-x="538" 
d="M76 0v665c44 9 107 14 167 14c93 0 153 -17 195 -55c34 -30 53 -76 53 -128c0 -89 -56 -148 -127 -172v-3c52 -18 83 -66 99 -136c22 -94 38 -159 52 -185h-90c-11 19 -26 77 -45 161c-20 93 -56 128 -135 131h-82v-292h-87zM163 604v-246h89c93 0 152 51 152 128
c0 87 -63 125 -155 126c-42 0 -72 -4 -86 -8z" />
    <glyph glyph-name="S" unicode="S" horiz-adv-x="493" 
d="M42 33l22 73c39 -24 96 -44 156 -44c89 0 141 47 141 115c0 63 -36 99 -127 134c-110 39 -178 96 -178 191c0 105 87 183 218 183c69 0 119 -16 149 -33l-24 -71c-22 12 -67 32 -128 32c-92 0 -127 -55 -127 -101c0 -63 41 -94 134 -130c114 -44 172 -99 172 -198
c0 -104 -77 -194 -236 -194c-65 0 -136 19 -172 43z" />
    <glyph glyph-name="T" unicode="T" horiz-adv-x="497" 
d="M204 0v600h-205v74h499v-74h-206v-600h-88z" />
    <glyph glyph-name="U" unicode="U" horiz-adv-x="647" 
d="M75 674h88v-399c0 -151 67 -215 157 -215c100 0 164 66 164 215v399h88v-393c0 -207 -109 -292 -255 -292c-138 0 -242 79 -242 288v397z" />
    <glyph glyph-name="V" unicode="V" horiz-adv-x="558" 
d="M320 0h-96l-220 674h94l105 -332c29 -91 54 -173 72 -252h2c19 78 47 163 77 251l114 333h93z" />
    <glyph glyph-name="W" unicode="W" horiz-adv-x="846" 
d="M277 0h-91l-171 674h92l80 -341c20 -84 38 -168 50 -233h2c11 67 32 147 55 234l90 340h91l82 -342c19 -80 37 -160 47 -231h2c14 74 33 149 54 233l89 340h89l-191 -674h-91l-85 351c-21 86 -35 152 -44 220h-2c-12 -67 -27 -133 -52 -220z" />
    <glyph glyph-name="X" unicode="X" horiz-adv-x="571" 
d="M546 0h-101l-86 149c-35 57 -57 94 -78 133h-2c-19 -39 -38 -75 -73 -134l-81 -148h-100l206 341l-198 333h101l89 -158c25 -44 44 -78 62 -114h3c19 40 36 71 61 114l92 158h100l-205 -328z" />
    <glyph glyph-name="Y" unicode="Y" horiz-adv-x="541" 
d="M314 0h-88v286l-213 388h99l95 -186c26 -51 46 -92 67 -139h2c19 44 42 88 68 139l97 186h99l-226 -387v-287z" />
    <glyph glyph-name="Z" unicode="Z" horiz-adv-x="553" 
d="M30 0v51l374 547v3h-342v73h455v-53l-372 -545v-3h377v-73h-492z" />
    <glyph glyph-name="bracketleft" unicode="[" horiz-adv-x="284" 
d="M265 -112h-183v797h183v-55h-115v-687h115v-55z" />
    <glyph glyph-name="backslash" unicode="\" horiz-adv-x="341" 
d="M342 -40h-68l-272 725h68z" />
    <glyph glyph-name="bracketright" unicode="]" horiz-adv-x="284" 
d="M19 686h183v-798h-183v55h115v688h-115v55z" />
    <glyph glyph-name="asciicircum" unicode="^" horiz-adv-x="596" 
d="M536 189h-70l-167 388h-2l-167 -388h-70l207 461h62z" />
    <glyph glyph-name="underscore" unicode="_" horiz-adv-x="500" 
d="M0 -75h500v-50h-500v50z" />
    <glyph glyph-name="quoteleft" unicode="&#x2018;" horiz-adv-x="207" 
d="M125 451l-90 -10c23 84 66 192 93 238l56 6c-21 -59 -48 -162 -59 -234z" />
    <glyph glyph-name="a" unicode="a" horiz-adv-x="482" 
d="M421 0h-80l-7 61h-3c-27 -38 -79 -72 -148 -72c-98 0 -148 69 -148 139c0 117 104 181 291 180v10c0 40 -11 112 -110 112c-45 0 -92 -14 -126 -36l-20 58c40 26 98 43 159 43c148 0 184 -101 184 -198v-181c0 -42 2 -83 8 -116zM328 163v84c-96 2 -205 -15 -205 -109
c0 -57 38 -84 83 -84c63 0 103 40 117 81c3 9 5 19 5 28z" />
    <glyph glyph-name="b" unicode="b" horiz-adv-x="569" 
d="M145 0h-76c2 33 4 82 4 125v585h87v-304h2c31 54 87 89 165 89c120 0 205 -100 204 -247c0 -173 -109 -259 -217 -259c-70 0 -126 27 -162 91h-3zM160 281v-87c0 -11 2 -22 4 -32c17 -61 68 -103 132 -103c92 0 147 75 147 186c0 97 -50 180 -144 180
c-60 0 -116 -41 -134 -108c-2 -10 -5 -22 -5 -36z" />
    <glyph glyph-name="c" unicode="c" horiz-adv-x="448" 
d="M403 84l15 -66c-23 -12 -74 -28 -139 -28c-146 0 -241 99 -241 247c0 149 102 257 260 257c52 0 98 -13 122 -25l-20 -68c-21 12 -54 23 -102 23c-111 0 -171 -82 -171 -183c0 -112 72 -181 168 -181c50 0 83 13 108 24z" />
    <glyph glyph-name="d" unicode="d" horiz-adv-x="564" 
d="M403 710h88v-585c0 -43 1 -92 4 -125h-79l-4 84h-2c-27 -54 -86 -95 -165 -95c-117 0 -207 99 -207 246c-1 161 99 260 217 260c74 0 124 -35 146 -74h2v289zM403 203v84c0 11 -1 26 -4 37c-13 56 -61 102 -127 102c-91 0 -145 -80 -145 -187c0 -98 48 -179 143 -179
c59 0 113 39 129 105c3 12 4 24 4 38z" />
    <glyph glyph-name="e" unicode="e" horiz-adv-x="501" 
d="M462 226h-340c2 -119 78 -168 166 -168c63 0 101 11 134 25l15 -63c-31 -14 -84 -30 -161 -30c-149 0 -238 98 -238 244s86 261 227 261c158 0 200 -139 200 -228c0 -18 -2 -32 -3 -41zM123 289h257c1 56 -23 143 -122 143c-89 0 -128 -82 -135 -143z" />
    <glyph glyph-name="f" unicode="f" horiz-adv-x="292" 
d="M169 0h-87v417h-68v67h68v23c0 68 15 130 56 169c33 32 77 45 118 45c31 0 58 -7 75 -14l-12 -68c-13 6 -31 11 -56 11c-75 0 -94 -66 -94 -140v-26h117v-67h-117v-417z" />
    <glyph glyph-name="g" unicode="g" horiz-adv-x="559" 
d="M413 484h77c-2 -35 -4 -74 -4 -133v-281c0 -111 -22 -179 -69 -221c-47 -44 -115 -58 -176 -58c-58 0 -122 14 -161 40l22 67c32 -20 82 -38 142 -38c90 0 156 47 156 169v54h-2c-27 -45 -79 -81 -154 -81c-120 0 -206 102 -206 236c0 164 107 257 218 257
c84 0 130 -44 151 -84h2zM399 206v87c0 15 -1 28 -5 40c-16 51 -59 93 -123 93c-84 0 -144 -71 -144 -183c0 -95 48 -174 143 -174c54 0 103 34 122 90c5 15 7 32 7 47z" />
    <glyph glyph-name="h" unicode="h" horiz-adv-x="555" 
d="M73 0v710h88v-302h2c14 25 36 47 63 62c26 15 57 25 90 25c65 0 169 -40 169 -207v-288h-88v278c0 78 -29 144 -112 144c-57 0 -102 -40 -118 -88c-5 -12 -6 -25 -6 -42v-292h-88z" />
    <glyph glyph-name="i" unicode="i" horiz-adv-x="234" 
d="M161 0h-88v484h88v-484zM117 675c33 0 54 -24 54 -55c1 -30 -21 -54 -56 -54c-31 0 -53 24 -53 54c0 31 23 55 55 55z" />
    <glyph glyph-name="j" unicode="j" horiz-adv-x="243" 
d="M-36 -209l-9 69c40 3 75 14 96 37c24 28 33 66 33 182v405h88v-439c0 -94 -15 -155 -58 -199c-39 -39 -103 -55 -150 -55zM129 675c32 0 53 -24 53 -55c1 -29 -20 -54 -55 -54c-33 0 -54 25 -54 54c0 31 23 55 56 55z" />
    <glyph glyph-name="k" unicode="k" horiz-adv-x="469" 
d="M160 710v-448h2c12 17 29 38 43 55l142 167h106l-187 -199l213 -285h-107l-167 232l-45 -50v-182h-87v710h87z" />
    <glyph glyph-name="l" unicode="l" horiz-adv-x="236" 
d="M73 0v710h88v-710h-88z" />
    <glyph glyph-name="m" unicode="m" horiz-adv-x="834" 
d="M73 0v353c0 50 -1 91 -4 131h77l4 -78h3c27 46 72 89 152 89c66 0 116 -40 137 -97h2c15 27 34 48 54 63c29 22 61 34 107 34c64 0 159 -42 159 -210v-285h-86v274c0 93 -34 149 -105 149c-50 0 -89 -37 -104 -80c-4 -12 -7 -28 -7 -44v-299h-86v290
c0 77 -34 133 -101 133c-55 0 -95 -44 -109 -88c-5 -13 -7 -28 -7 -43v-292h-86z" />
    <glyph glyph-name="n" unicode="n" horiz-adv-x="555" 
d="M73 0v353c0 50 -1 91 -4 131h78l5 -80h2c24 46 80 91 160 91c67 0 171 -40 171 -206v-289h-88v279c0 78 -29 143 -112 143c-58 0 -103 -41 -118 -90c-4 -11 -6 -26 -6 -41v-291h-88z" />
    <glyph glyph-name="o" unicode="o" horiz-adv-x="549" 
d="M278 495c139 0 233 -101 233 -249c0 -179 -124 -257 -241 -257c-131 0 -232 96 -232 249c0 162 106 257 240 257zM276 429c-104 0 -149 -96 -149 -188c0 -106 61 -186 147 -186c84 0 147 79 147 188c0 82 -41 186 -145 186z" />
    <glyph glyph-name="p" unicode="p" horiz-adv-x="569" 
d="M73 -198v524c0 62 -2 112 -4 158h79l4 -83h2c36 59 93 94 172 94c117 0 205 -99 205 -246c0 -174 -106 -260 -220 -260c-64 0 -120 28 -149 76h-2v-263h-87zM160 280v-83c0 -13 2 -25 4 -36c16 -61 69 -103 132 -103c93 0 147 76 147 187c0 97 -51 180 -144 180
c-60 0 -116 -43 -133 -109c-3 -11 -6 -24 -6 -36z" />
    <glyph glyph-name="q" unicode="q" horiz-adv-x="563" 
d="M403 -198v273h-2c-26 -48 -80 -86 -158 -86c-113 0 -205 98 -205 245c0 181 117 261 219 261c75 0 125 -37 149 -84h2l3 73h83c-2 -41 -3 -83 -3 -133v-549h-88zM403 197v91c0 12 -1 26 -4 37c-13 54 -60 100 -126 100c-91 0 -146 -77 -146 -186c0 -96 46 -180 143 -180
c57 0 106 35 126 96c4 12 7 29 7 42z" />
    <glyph glyph-name="r" unicode="r" horiz-adv-x="327" 
d="M73 0v333c0 57 -1 106 -4 151h77l3 -95h4c22 65 75 106 134 106c10 0 17 -1 25 -3v-83c-9 2 -18 3 -30 3c-62 0 -106 -47 -118 -113c-2 -12 -4 -26 -4 -41v-258h-87z" />
    <glyph glyph-name="s" unicode="s" horiz-adv-x="396" 
d="M39 23l22 67c26 -17 72 -35 116 -35c64 0 94 32 94 72c0 42 -25 65 -90 89c-87 31 -128 79 -128 137c0 78 63 142 167 142c49 0 92 -14 119 -30l-22 -64c-19 12 -54 28 -99 28c-52 0 -81 -30 -81 -66c0 -40 29 -58 92 -82c84 -32 127 -74 127 -146
c0 -85 -66 -145 -181 -145c-53 0 -102 13 -136 33z" />
    <glyph glyph-name="t" unicode="t" horiz-adv-x="331" 
d="M93 600l86 23v-139h126v-67h-126v-261c0 -60 17 -94 66 -94c23 0 40 3 51 6l4 -66c-17 -7 -44 -12 -78 -12c-41 0 -74 13 -95 37c-25 26 -34 69 -34 126v264h-75v67h75v116z" />
    <glyph glyph-name="u" unicode="u" horiz-adv-x="551" 
d="M478 484v-352c0 -50 1 -94 4 -132h-78l-5 79h-2c-23 -39 -74 -90 -160 -90c-76 0 -167 42 -167 212v283h88v-268c0 -92 28 -154 108 -154c59 0 100 41 116 80c5 13 8 29 8 45v297h88z" />
    <glyph glyph-name="v" unicode="v" horiz-adv-x="481" 
d="M13 484h94l95 -272c16 -44 29 -84 39 -124h3c11 40 25 80 41 124l94 272h92l-190 -484h-84z" />
    <glyph glyph-name="w" unicode="w" horiz-adv-x="736" 
d="M18 484h90l64 -246c14 -54 27 -104 36 -154h3c11 49 27 101 43 153l79 247h74l75 -242c18 -58 32 -109 43 -158h3c8 49 21 100 37 157l69 243h87l-156 -484h-80l-74 231c-17 54 -31 102 -43 159h-2c-12 -58 -27 -108 -44 -160l-78 -230h-80z" />
    <glyph glyph-name="x" unicode="x" horiz-adv-x="463" 
d="M16 484h98l69 -104c18 -27 33 -52 49 -79h3c16 29 32 54 48 80l68 103h95l-165 -234l170 -250h-100l-71 109c-19 28 -35 55 -52 84h-2c-16 -29 -33 -55 -51 -84l-70 -109h-97l172 247z" />
    <glyph glyph-name="y" unicode="y" horiz-adv-x="471" 
d="M9 484h96l106 -286c11 -32 23 -70 31 -99h2c9 29 19 66 31 101l96 284h93l-132 -345c-63 -166 -106 -251 -166 -303c-43 -38 -86 -53 -108 -57l-22 74c22 7 51 21 77 43c24 19 54 53 74 98c4 9 7 16 7 21s-2 12 -6 23z" />
    <glyph glyph-name="z" unicode="z" horiz-adv-x="428" 
d="M18 0v51l219 285c21 26 41 49 63 75v2h-262v71h369l-1 -55l-216 -281c-20 -27 -40 -51 -62 -76v-2h283v-70h-393z" />
    <glyph glyph-name="braceleft" unicode="{" horiz-adv-x="284" 
d="M28 262v51c71 0 81 39 81 74c0 28 -4 56 -8 84s-8 55 -8 83c0 92 60 131 145 131h21v-55h-18c-59 0 -79 -32 -79 -86c0 -23 3 -47 7 -71c4 -25 7 -49 7 -76c1 -64 -27 -96 -72 -108v-2c45 -11 73 -45 72 -109c0 -27 -3 -52 -7 -76c-4 -25 -7 -48 -7 -72
c0 -56 23 -87 79 -87h18v-55h-21c-83 0 -145 36 -145 137c0 27 4 55 8 82s8 54 8 81c0 31 -10 74 -81 74z" />
    <glyph glyph-name="bar" unicode="|" horiz-adv-x="239" 
d="M86 750h67v-1000h-67v1000z" />
    <glyph glyph-name="braceright" unicode="}" horiz-adv-x="284" 
d="M256 313v-51c-71 0 -81 -43 -81 -74c0 -27 4 -54 8 -81s8 -55 8 -82c0 -101 -63 -137 -145 -137h-21v55h17c56 1 80 31 80 87c0 24 -4 47 -7 72c-4 24 -8 49 -8 76c0 64 28 98 72 109v2c-44 12 -72 44 -72 108c0 27 4 51 8 76c3 24 7 48 7 71c0 54 -21 85 -79 86h-18v55
h20c85 0 146 -39 146 -131c0 -28 -4 -55 -8 -83s-8 -56 -8 -84c0 -35 10 -74 81 -74z" />
    <glyph glyph-name="asciitilde" unicode="~" horiz-adv-x="596" 
d="M108 210h-59c-4 100 50 151 119 151c42 0 74 -13 141 -45c51 -24 88 -42 125 -42c36 0 53 29 54 84h60c5 -112 -53 -151 -115 -151c-40 0 -76 12 -145 44c-47 23 -84 44 -120 44s-58 -25 -60 -85z" />
    <glyph glyph-name="exclamdown" unicode="&#xa1;" horiz-adv-x="230" 
d="M164 -198h-97l14 477h68zM116 488c35 0 58 -26 58 -62c0 -35 -23 -62 -59 -62c-35 0 -59 27 -59 62c0 36 25 62 60 62z" />
    <glyph glyph-name="cent" unicode="&#xa2;" horiz-adv-x="513" 
d="M330 -14h-62v101c-64 8 -109 31 -145 70c-34 38 -56 96 -56 169c0 129 79 227 201 247v100h62v-98c45 0 86 -13 109 -25l-20 -67c-20 12 -54 25 -104 25c-99 0 -160 -80 -160 -178c0 -111 68 -176 156 -176c55 0 90 14 114 25l16 -63c-20 -11 -62 -27 -111 -29v-101z" />
    <glyph glyph-name="sterling" unicode="&#xa3;" horiz-adv-x="513" 
d="M471 0h-415v50c67 34 114 100 114 175c0 24 -1 44 -5 70h-103v63h93c-5 30 -11 69 -11 108c0 118 81 195 192 195c52 0 88 -12 109 -25l-20 -66c-18 10 -47 20 -89 20c-78 0 -110 -54 -110 -125c0 -43 6 -75 12 -107h144v-63h-136c3 -38 5 -76 -4 -112
c-11 -43 -35 -79 -69 -108v-2h298v-73z" />
    <glyph glyph-name="fraction" unicode="&#x2044;" horiz-adv-x="121" 
d="M-101 -11h-56l379 672h57z" />
    <glyph glyph-name="yen" unicode="&#xa5;" horiz-adv-x="513" 
d="M292 0h-83v175h-155v50h155v72h-155v50h130l-168 303h94l104 -206c16 -34 28 -61 40 -91h3c10 28 23 59 40 93l108 204h92l-179 -303h130v-50h-156v-72h156v-50h-156v-175z" />
    <glyph glyph-name="florin" unicode="&#x192;" horiz-adv-x="513" 
d="M111 338v63h99l6 46c12 99 56 214 191 214c30 -1 54 -7 68 -15l-16 -64c-15 6 -32 10 -52 10c-68 0 -98 -65 -106 -139l-6 -52h120v-63h-128l-24 -205c-16 -129 -57 -217 -174 -217c-33 0 -61 7 -78 16l16 63c17 -8 35 -11 56 -11c62 0 85 55 97 157l23 197h-92z" />
    <glyph glyph-name="section" unicode="&#xa7;" horiz-adv-x="519" 
d="M130 351c0 -36 27 -66 106 -95c51 -18 91 -33 114 -48c25 18 38 46 38 77c0 38 -24 70 -89 93c-40 15 -91 32 -123 51c-32 -23 -46 -48 -46 -78zM418 650l-21 -57c-26 16 -66 32 -120 32c-59 0 -104 -29 -104 -74c0 -52 50 -71 125 -96c92 -30 163 -68 163 -158
c0 -52 -25 -90 -65 -121c17 -14 38 -47 38 -88c0 -105 -97 -150 -190 -150c-61 0 -119 14 -157 42l24 57c24 -17 73 -41 132 -41c64 0 112 29 112 82c0 47 -29 72 -122 104c-103 35 -174 72 -174 158c0 38 20 83 73 117c-20 16 -36 50 -37 84c0 88 82 142 185 142
c56 0 104 -14 138 -33z" />
    <glyph glyph-name="currency" unicode="&#xa4;" horiz-adv-x="513" 
d="M256 534c47 0 88 -16 116 -40l71 75l44 -46l-78 -71c19 -27 35 -69 35 -117c0 -55 -17 -98 -35 -123l75 -74l-45 -44l-68 77c-30 -29 -77 -43 -117 -43c-41 0 -87 15 -114 40l-67 -74l-43 44l72 71c-20 26 -37 71 -37 120c0 52 18 95 39 123l-75 71l44 46l69 -76
c28 25 70 41 114 41zM255 471c-74 0 -119 -63 -119 -141c0 -97 67 -139 118 -139c56 0 119 40 119 143c0 69 -41 137 -118 137z" />
    <glyph glyph-name="quotesingle" unicode="'" horiz-adv-x="188" 
d="M51 685h87l-17 -240h-54z" />
    <glyph glyph-name="quotedblleft" unicode="&#x201c;" horiz-adv-x="354" 
d="M125 451l-91 -10c23 84 66 192 94 238l56 6c-22 -59 -48 -162 -59 -234zM273 451l-90 -10c22 84 66 192 93 238l56 6c-22 -59 -48 -162 -59 -234z" />
    <glyph glyph-name="guillemotleft" unicode="&#xab;" horiz-adv-x="419" 
d="M232 436l-134 -184l134 -184h-71l-132 184l132 184h71zM396 436l-134 -184l134 -184h-71l-132 184l132 184h71z" />
    <glyph glyph-name="guilsinglleft" unicode="&#x2039;" horiz-adv-x="255" 
d="M232 436l-134 -184l134 -184h-71l-132 184l132 184h71z" />
    <glyph glyph-name="guilsinglright" unicode="&#x203a;" horiz-adv-x="255" 
d="M157 252l-134 184h70l134 -184l-133 -184h-71z" />
    <glyph glyph-name="fi" unicode="&#xfb01;" horiz-adv-x="523" 
d="M169 0h-87v417h-68v67h68v26c0 128 75 211 211 211c45 0 98 -14 123 -32l-25 -67c-21 15 -59 28 -102 28c-93 0 -120 -65 -120 -142v-24h281v-484h-87v417h-194v-417z" />
    <glyph glyph-name="fl" unicode="&#xfb02;" horiz-adv-x="523" 
d="M169 0h-87v417h-68v67h68v21c0 67 23 127 68 167c38 32 88 49 155 49c56 0 109 -12 145 -32v-689h-87v640c-15 8 -38 13 -72 13c-92 0 -122 -67 -122 -145v-24h113v-67h-113v-417z" />
    <glyph glyph-name="endash" unicode="&#x2013;" horiz-adv-x="500" 
d="M30 284h440v-60h-440v60z" />
    <glyph glyph-name="dagger" unicode="&#x2020;" horiz-adv-x="500" 
d="M209 674h82l-8 -211l174 7v-72l-174 8l8 -456h-82l8 456l-174 -8v72l174 -7z" />
    <glyph glyph-name="daggerdbl" unicode="&#x2021;" horiz-adv-x="500" 
d="M210 674h81l-7 -201l173 8v-72l-173 7v-204l173 8v-72l-173 7l7 -205h-81l5 205l-172 -7v72l173 -8v204l-173 -7v72l173 -8z" />
    <glyph glyph-name="periodcentered" unicode="&#xb7;" horiz-adv-x="207" 
d="M103 200c-35 0 -60 27 -59 63c0 36 25 63 60 63s58 -26 59 -63c0 -36 -24 -63 -60 -63z" />
    <glyph glyph-name="paragraph" unicode="&#xb6;" horiz-adv-x="512" 
d="M293 -49h-63v313h-7c-79 0 -189 64 -189 192c0 103 56 220 275 220c53 0 92 -3 117 -9v-716h-62v664h-71v-664z" />
    <glyph glyph-name="bullet" unicode="&#x2022;" horiz-adv-x="282" 
d="M141 157c-58 0 -105 45 -105 104c-1 59 47 105 105 105s105 -46 105 -104c0 -59 -46 -105 -105 -105z" />
    <glyph glyph-name="quotesinglbase" unicode="&#x201a;" horiz-adv-x="207" 
d="M76 -111l-55 -7c21 59 48 163 58 234l91 10c-23 -84 -66 -191 -94 -237z" />
    <glyph glyph-name="quotedblbase" unicode="&#x201e;" horiz-adv-x="356" 
d="M76 -111l-56 -7c22 59 48 163 59 234l90 10c-22 -84 -66 -191 -93 -237zM224 -111l-56 -7c22 59 48 163 59 234l91 10c-23 -84 -66 -191 -94 -237z" />
    <glyph glyph-name="quotedblright" unicode="&#x201d;" horiz-adv-x="354" 
d="M93 676l90 9c-23 -84 -66 -191 -93 -237l-56 -7c21 59 48 163 59 235zM241 676l90 9c-23 -84 -66 -191 -93 -237l-56 -7c22 59 48 163 59 235z" />
    <glyph glyph-name="guillemotright" unicode="&#xbb;" horiz-adv-x="419" 
d="M157 252l-134 184h71l133 -184l-133 -184h-70zM320 252l-134 184h71l133 -184l-133 -184h-70z" />
    <glyph glyph-name="ellipsis" unicode="&#x2026;" horiz-adv-x="1000" 
d="M167 -11c-35 0 -60 27 -59 63c0 37 24 63 59 63c36 0 59 -26 59 -63c0 -36 -23 -63 -59 -63zM500 -11c-35 0 -60 27 -59 63c0 37 25 63 60 63s58 -26 59 -63c0 -36 -24 -63 -60 -63zM833 -11c-35 0 -59 27 -59 63c0 37 25 63 60 63s59 -26 59 -63c0 -36 -23 -63 -60 -63z
" />
    <glyph glyph-name="perthousand" unicode="&#x2030;" horiz-adv-x="1156" 
d="M611 392c91 0 150 -70 150 -194c0 -137 -72 -205 -155 -205c-81 0 -151 65 -152 195c0 131 71 204 157 204zM608 339c-55 0 -85 -65 -85 -147c-1 -83 30 -146 85 -146c58 0 84 62 84 148c0 79 -23 145 -84 145zM975 392c91 0 151 -70 151 -194c0 -137 -72 -205 -156 -205
c-81 0 -151 65 -152 195c0 131 71 204 157 204zM973 339c-55 0 -85 -65 -85 -147c-2 -83 29 -146 84 -146c59 0 84 62 84 148c0 79 -22 145 -83 145zM187 661c91 0 151 -70 151 -194c0 -137 -72 -205 -156 -205c-81 0 -151 65 -152 196c0 130 71 203 157 203zM184 608
c-55 0 -84 -65 -84 -147c-2 -83 29 -146 84 -146c58 0 84 62 84 148c0 79 -23 145 -84 145zM232 -11h-56l382 672h56z" />
    <glyph glyph-name="questiondown" unicode="&#xbf;" horiz-adv-x="406" 
d="M237 489c36 0 59 -26 59 -62c0 -35 -23 -63 -59 -63s-59 28 -59 63c0 36 24 62 59 62zM197 285h78l3 -26c6 -54 -13 -111 -63 -171c-45 -54 -69 -91 -69 -136c0 -51 31 -85 95 -85c35 0 75 11 101 31l24 -64c-34 -23 -91 -40 -144 -40c-114 0 -167 71 -167 147
c0 68 38 116 87 172c43 53 59 95 56 146z" />
    <glyph glyph-name="grave" unicode="`" 
d="M22 693h97l87 -143h-62z" />
    <glyph glyph-name="acute" unicode="&#xb4;" 
d="M189 693h97l-122 -143h-63z" />
    <glyph glyph-name="circumflex" unicode="&#x2c6;" 
d="M119 693h61l96 -143h-68l-58 95h-2l-58 -95h-65z" />
    <glyph glyph-name="tilde" unicode="&#x2dc;" 
d="M75 567h-48c-2 65 25 104 68 104c22 0 39 -9 62 -22c16 -9 30 -17 42 -17c16 0 26 9 28 43h47c1 -67 -22 -101 -69 -101c-21 0 -40 9 -61 20c-20 12 -31 18 -43 18c-16 0 -24 -17 -26 -45z" />
    <glyph glyph-name="macron" unicode="&#xaf;" 
d="M38 643h225v-57h-225v57z" />
    <glyph glyph-name="breve" unicode="&#x2d8;" 
d="M26 682h52c6 -39 31 -69 72 -69c47 0 69 36 72 69h52c0 -74 -49 -124 -124 -124c-88 0 -124 62 -124 124z" />
    <glyph glyph-name="dotaccent" unicode="&#x2d9;" 
d="M140 570c-30 0 -51 24 -51 51c0 29 22 52 51 52c28 0 49 -23 49 -52c0 -27 -20 -51 -49 -51z" />
    <glyph glyph-name="dieresis" unicode="&#xa8;" 
d="M58 570c-30 0 -51 24 -51 51c0 28 23 51 51 51s49 -22 49 -51c0 -27 -20 -51 -49 -51zM243 570c-30 0 -50 24 -50 51c0 28 22 51 50 51s49 -22 49 -51c0 -27 -20 -51 -49 -51z" />
    <glyph glyph-name="ring" unicode="&#x2da;" 
d="M142 537c-60 0 -101 40 -101 91c0 53 39 95 102 95c60 0 99 -41 99 -94s-43 -92 -100 -92zM141 574c32 0 52 26 52 56s-20 55 -52 55c-31 0 -49 -26 -49 -57c0 -26 20 -54 49 -54z" />
    <glyph glyph-name="cedilla" unicode="&#xb8;" 
d="M136 2h54l-33 -52c37 -5 70 -31 70 -69c0 -59 -49 -81 -104 -81c-25 0 -51 7 -68 17l15 43c16 -10 36 -15 54 -15c22 0 43 8 43 32c-1 26 -31 38 -78 42z" />
    <glyph glyph-name="hungarumlaut" unicode="&#x2dd;" 
d="M123 693h86l-110 -137h-55zM267 693h86l-110 -137h-55z" />
    <glyph glyph-name="ogonek" unicode="&#x2db;" 
d="M123 4h57c-15 -19 -53 -62 -53 -100c0 -32 21 -50 50 -50c18 0 34 4 46 9l14 -45c-20 -16 -55 -23 -80 -23c-56 0 -94 30 -94 86c0 49 36 97 60 123z" />
    <glyph glyph-name="caron" unicode="&#x2c7;" 
d="M183 550h-64l-96 143h68l59 -95h2l59 95h66z" />
    <glyph glyph-name="emdash" unicode="&#x2014;" horiz-adv-x="1000" 
d="M30 284h940v-60h-940v60z" />
    <glyph glyph-name="AE" unicode="&#xc6;" horiz-adv-x="788" 
d="M89 0h-90l308 674h422v-73h-287l26 -215h251v-72h-240l30 -241h247v-73h-322l-30 238h-207zM226 308h168l-22 194c-4 32 -10 75 -12 109h-4c-12 -32 -28 -70 -43 -106z" />
    <glyph glyph-name="ordfeminine" unicode="&#xaa;" horiz-adv-x="346" 
d="M305 266h-60l-6 42h-2c-19 -24 -54 -47 -101 -47c-66 0 -103 43 -103 95c0 72 73 117 201 114v10c0 16 -10 62 -74 62c-32 0 -63 -9 -86 -27l-16 43c29 21 71 33 114 33c100 0 127 -68 127 -140v-107c0 -27 2 -54 6 -78zM235 372v55c-63 1 -136 -10 -136 -67
c0 -33 27 -51 58 -51c30 0 55 17 68 36c6 10 10 20 10 27z" />
    <glyph glyph-name="Lslash" unicode="&#x141;" horiz-adv-x="476" 
d="M455 0h-375v270l-84 -62v68l84 61v337h87v-277l134 97v-69l-134 -96v-256h288v-73z" />
    <glyph glyph-name="Oslash" unicode="&#xd8;" horiz-adv-x="689" 
d="M112 -43l-49 39l62 88c-56 60 -89 149 -89 249c0 213 135 352 311 352c62 0 120 -18 168 -53l59 81l53 -36l-62 -86c56 -61 87 -149 87 -248c0 -235 -145 -354 -306 -354c-64 0 -123 19 -171 54zM176 158l296 410c-34 29 -76 47 -126 47c-147 0 -221 -136 -221 -277
c0 -75 20 -129 50 -181zM513 515l-295 -408c33 -31 72 -48 126 -48c141 0 219 129 219 281c0 57 -12 118 -47 175h-3z" />
    <glyph glyph-name="OE" unicode="&#x152;" horiz-adv-x="894" 
d="M857 73v-73h-345c-20 0 -42 -3 -66 -6c-25 -2 -51 -5 -83 -5c-209 0 -327 150 -327 343c0 222 138 353 332 353c35 0 63 -3 88 -5c25 -3 46 -6 64 -6h322v-73h-277v-213h261v-73h-261v-242h292zM477 73v526c-26 9 -58 15 -106 15c-151 0 -243 -113 -242 -278
c-1 -164 92 -276 250 -276c37 0 76 5 98 13z" />
    <glyph glyph-name="ordmasculine" unicode="&#xba;" horiz-adv-x="355" 
d="M179 591c97 0 158 -69 158 -163c-1 -115 -83 -167 -160 -167c-89 0 -159 64 -159 162c0 104 75 168 161 168zM177 541c-64 0 -92 -62 -92 -116c0 -66 43 -114 93 -114c53 0 92 46 92 115c0 50 -27 115 -93 115z" />
    <glyph glyph-name="ae" unicode="&#xe6;" horiz-adv-x="773" 
d="M734 233h-324c-3 -115 63 -176 154 -176c67 0 105 15 132 28l16 -62c-39 -21 -95 -34 -159 -34c-82 0 -156 39 -184 107h-2c-31 -67 -97 -107 -180 -107c-101 0 -151 68 -151 138c0 112 104 177 292 175v20c0 24 -15 108 -113 108c-46 0 -95 -17 -124 -37l-21 58
c43 27 103 44 151 44c87 0 136 -41 156 -103h2c33 64 93 103 169 103c148 0 189 -143 189 -223c0 -15 -1 -30 -3 -39zM329 172v71c-93 2 -206 -14 -206 -109c0 -51 38 -80 84 -80c63 0 103 39 117 83c4 11 5 23 5 35zM409 296h243c3 49 -24 136 -113 136
c-87 0 -127 -81 -130 -136z" />
    <glyph glyph-name="dotlessi" unicode="&#x131;" horiz-adv-x="234" 
d="M161 0h-88v484h88v-484z" />
    <glyph glyph-name="lslash" unicode="&#x142;" horiz-adv-x="242" 
d="M165 0h-88v288l-68 -58v69l68 59v352h88v-285l71 61v-70l-71 -61v-355z" />
    <glyph glyph-name="oslash" unicode="&#xf8;" horiz-adv-x="549" 
d="M276 495c44 0 87 -12 123 -35l42 60l39 -27l-42 -62c47 -45 73 -110 73 -185c0 -178 -123 -257 -236 -257c-45 0 -89 11 -124 34l-43 -61l-37 30l42 60c-47 44 -75 108 -75 187c0 161 106 256 238 256zM161 119l198 281c-22 18 -50 29 -85 29c-108 0 -151 -100 -151 -188
c0 -42 11 -86 36 -121zM389 361l-198 -278c23 -20 51 -28 81 -28c92 0 153 79 153 188c0 33 -8 80 -34 118h-2z" />
    <glyph glyph-name="oe" unicode="&#x153;" horiz-adv-x="863" 
d="M824 227h-329c1 -110 69 -169 161 -169c60 0 97 13 130 27l16 -63c-39 -22 -104 -33 -157 -33c-84 0 -153 35 -191 114h-3c-36 -78 -112 -114 -187 -114c-128 0 -226 97 -226 250c0 157 102 256 232 256c82 0 153 -42 183 -116h2c36 77 101 116 176 116
c155 0 196 -141 196 -227c0 -17 -1 -32 -3 -41zM271 429c-106 0 -144 -105 -144 -188c0 -105 60 -186 144 -186c85 0 142 76 142 187c0 92 -42 187 -142 187zM495 290h247c1 54 -22 141 -118 141c-87 0 -124 -80 -129 -141z" />
    <glyph glyph-name="germandbls" unicode="&#xdf;" horiz-adv-x="548" 
d="M161 0h-88v452c0 114 27 178 71 218c38 34 86 51 147 51c95 0 178 -60 178 -169c0 -35 -12 -66 -23 -82c-45 -19 -72 -47 -72 -81s20 -55 51 -87c40 -40 81 -82 81 -154c0 -94 -68 -159 -179 -159c-37 0 -77 6 -106 21l16 67c26 -13 54 -20 84 -20c64 0 98 38 98 84
c0 42 -18 70 -54 103c-42 40 -78 77 -78 133c0 51 32 95 89 123c5 12 9 26 9 43c0 69 -42 109 -104 109c-77 0 -120 -54 -120 -196v-456z" />
    <glyph glyph-name="onesuperior" unicode="&#xb9;" horiz-adv-x="244" 
d="M177 443h-70v328h-2l-72 -34l-11 52l94 44h61v-390z" />
    <glyph glyph-name="logicalnot" unicode="&#xac;" horiz-adv-x="596" 
d="M40 399h516v-278h-64v218h-452v60z" />
    <glyph glyph-name="mu" unicode="&#xb5;" horiz-adv-x="553" 
d="M403 75h-3c-20 -38 -67 -84 -139 -84c-44 0 -85 16 -106 53v-60c0 -53 1 -142 11 -182h-79c-10 30 -14 101 -14 178v504h87v-286c0 -75 32 -137 109 -137c58 0 100 42 116 81c5 13 8 29 8 45v297h87v-351c0 -53 11 -74 46 -76l-7 -64c-10 -3 -16 -4 -30 -4
c-43 0 -78 24 -86 86z" />
    <glyph glyph-name="trademark" unicode="&#x2122;" horiz-adv-x="619" 
d="M30 674h228v-45h-87v-227h-54v227h-87v45zM606 402h-54l-10 160c-1 21 -1 47 -2 76h-3c-7 -24 -15 -56 -23 -81l-49 -151h-56l-49 155c-5 21 -13 53 -19 77h-3c0 -25 -1 -51 -2 -76l-10 -160h-52l20 272h81l47 -133c6 -21 11 -41 18 -69h1c7 25 13 48 19 68l47 134h78z
" />
    <glyph glyph-name="Eth" unicode="&#xd0;" horiz-adv-x="671" 
d="M-2 307v70h83v290c53 9 116 15 185 15c124 0 214 -29 273 -84c60 -55 95 -134 95 -245s-34 -200 -97 -263s-168 -97 -298 -97c-63 0 -114 2 -158 7v307h-83zM348 377v-70h-180v-240c22 -3 54 -4 87 -4c188 0 288 103 288 289c1 161 -89 260 -273 260
c-45 0 -79 -4 -102 -9v-226h180z" />
    <glyph glyph-name="onehalf" unicode="&#xbd;" horiz-adv-x="759" 
d="M184 266h-70v329h-2l-72 -35l-11 52l93 44h62v-390zM175 -11h-56l379 672h56zM440 0v37l63 59c83 75 126 122 126 173c0 38 -24 70 -76 70c-35 0 -65 -18 -84 -31l-21 45c27 23 72 42 122 42c95 0 133 -59 133 -113c0 -75 -58 -129 -133 -197l-31 -28v-2h171v-55h-270z
" />
    <glyph glyph-name="plusminus" unicode="&#xb1;" horiz-adv-x="596" 
d="M266 572h64v-195h226v-60h-226v-200h-64v200h-226v60h226v195zM40 60h516v-60h-516v60z" />
    <glyph glyph-name="Thorn" unicode="&#xde;" horiz-adv-x="531" 
d="M76 0v674h86v-132c27 5 60 8 96 8c79 0 137 -19 178 -55c35 -33 55 -79 55 -131c0 -142 -107 -213 -253 -213c-28 0 -55 2 -76 5v-156h-86zM162 473v-246c23 -5 49 -6 75 -6c108 0 167 52 167 134c0 87 -62 126 -154 126c-40 0 -72 -4 -88 -8z" />
    <glyph glyph-name="onequarter" unicode="&#xbc;" horiz-adv-x="759" 
d="M198 266h-70v329h-2l-72 -35l-11 52l94 44h61v-390zM195 -11h-57l380 672h56zM664 0h-67v103h-200v39l193 253h74v-243h60v-49h-60v-103zM597 152v118c0 23 2 44 3 63h-2c-13 -21 -22 -39 -33 -55l-96 -125v-1h128z" />
    <glyph glyph-name="divide" unicode="&#xf7;" horiz-adv-x="596" 
d="M298 387c-32 0 -53 24 -53 55c0 33 22 56 54 56c31 0 52 -23 52 -56c0 -31 -20 -55 -53 -55zM556 237h-516v60h516v-60zM298 36c-32 0 -53 24 -53 55c0 33 22 56 54 56c31 0 52 -23 52 -56c0 -31 -20 -55 -53 -55z" />
    <glyph glyph-name="brokenbar" unicode="&#xa6;" horiz-adv-x="239" 
d="M86 174h67v-350h-67v350zM86 674h67v-350h-67v350z" />
    <glyph glyph-name="degree" unicode="&#xb0;" horiz-adv-x="318" 
d="M162 685c82 0 132 -62 132 -130c0 -81 -65 -134 -134 -134c-78 0 -131 59 -131 129c-1 77 59 135 133 135zM161 638c-52 0 -78 -45 -78 -88c0 -46 34 -82 78 -82c45 0 79 37 79 86c0 37 -22 84 -79 84z" />
    <glyph glyph-name="thorn" unicode="&#xfe;" horiz-adv-x="569" 
d="M73 710h87v-303h2c33 53 86 88 165 88c114 1 204 -97 204 -247c0 -177 -110 -259 -220 -259c-64 0 -118 28 -149 76h-2v-263h-87v908zM160 280v-89c0 -14 4 -31 10 -44c19 -55 70 -89 128 -89c87 0 145 73 145 189c0 96 -53 178 -143 178c-56 0 -109 -37 -130 -96
c-5 -14 -10 -33 -10 -49z" />
    <glyph glyph-name="threequarters" unicode="&#xbe;" horiz-adv-x="759" 
d="M66 583l-17 46c23 16 65 32 114 32c87 0 123 -46 123 -94c0 -40 -29 -74 -76 -90v-2c54 -8 92 -46 92 -97c0 -62 -55 -117 -157 -117c-49 0 -92 13 -115 28l18 50c16 -11 55 -26 93 -26c62 0 88 36 88 67c-1 50 -54 70 -106 70h-28v46h28c37 1 91 17 91 64
c0 24 -18 49 -64 49c-36 0 -68 -16 -84 -26zM232 -11h-57l380 672h56zM674 0h-66v103h-200v39l193 253h73v-243h61v-49h-61v-103zM608 152v118c0 23 2 44 3 63h-2c-13 -22 -22 -39 -33 -55l-97 -125l1 -1h128z" />
    <glyph glyph-name="twosuperior" unicode="&#xb2;" horiz-adv-x="311" 
d="M12 443v37l63 58c83 76 126 123 126 174c0 38 -24 69 -76 69c-35 0 -65 -17 -84 -31l-21 46c27 22 72 42 122 42c94 0 133 -60 133 -113c0 -76 -57 -131 -133 -197l-31 -28v-2h171v-55h-270z" />
    <glyph glyph-name="registered" unicode="&#xae;" horiz-adv-x="419" 
d="M184 501v-66h-38v164c15 3 36 5 63 5c31 0 45 -5 57 -12c9 -7 16 -20 16 -36c0 -18 -14 -32 -34 -38v-2c16 -6 25 -18 30 -40c5 -25 8 -35 12 -41h-41c-5 6 -8 21 -13 40c-3 18 -13 26 -34 26h-18zM185 575v-47h18c21 0 38 7 38 24c0 15 -11 25 -35 25
c-10 0 -17 -1 -21 -2zM210 685c95 0 168 -73 168 -164c0 -93 -73 -166 -168 -166c-94 0 -169 73 -169 166c0 91 75 164 169 164zM210 652c-73 0 -127 -59 -127 -131c0 -73 54 -131 128 -131c72 0 125 58 125 130c0 73 -53 132 -126 132z" />
    <glyph glyph-name="minus" unicode="&#x2212;" horiz-adv-x="596" 
d="M40 297h516v-60h-516v60z" />
    <glyph glyph-name="eth" unicode="&#xf0;" horiz-adv-x="541" 
d="M267 55c88 0 144 78 144 188c0 63 -9 103 -34 134c-22 25 -55 47 -106 47c-104 0 -144 -107 -144 -187c0 -102 59 -182 140 -182zM116 507l-19 43l116 55c-30 22 -67 42 -104 60l38 55c48 -22 98 -50 141 -81l128 61l21 -44l-106 -50c55 -45 99 -99 128 -159
c27 -56 42 -120 42 -194c1 -186 -118 -264 -234 -264c-131 0 -229 96 -229 247c0 157 110 248 225 248c37 0 73 -7 111 -43l2 3c-29 48 -67 91 -118 129z" />
    <glyph glyph-name="multiply" unicode="&#xd7;" horiz-adv-x="596" 
d="M40 482l44 44l214 -219l214 219l44 -44l-215 -219l215 -219l-44 -44l-214 219l-214 -219l-44 44l214 219z" />
    <glyph glyph-name="threesuperior" unicode="&#xb3;" horiz-adv-x="305" 
d="M45 759l-17 47c23 15 66 32 115 32c86 0 122 -46 122 -95c0 -40 -29 -73 -77 -90v-2c55 -7 93 -46 93 -96c0 -62 -56 -117 -158 -117c-48 0 -92 12 -114 27l18 50c16 -10 55 -26 93 -26c61 0 88 36 87 67c0 51 -53 71 -106 71h-27v46h28c37 0 90 17 91 63
c0 25 -18 50 -63 50c-36 0 -69 -16 -85 -27z" />
    <glyph glyph-name="copyright" unicode="&#xa9;" horiz-adv-x="677" 
d="M340 648c169 0 301 -138 301 -308c0 -172 -132 -310 -301 -310c-170 0 -304 138 -304 310c0 170 134 308 304 308zM340 607c-144 0 -254 -118 -254 -270c0 -149 110 -266 254 -266c141 0 251 117 251 269c0 149 -110 267 -251 267zM474 493l-12 -39c-13 7 -50 23 -97 23
c-94 0 -140 -60 -140 -140c0 -78 49 -141 141 -141c40 0 78 11 101 26l12 -38c-35 -23 -81 -31 -123 -31c-116 0 -183 80 -183 181c0 114 90 186 191 186c52 0 97 -15 110 -27z" />
    <glyph glyph-name="Aacute" unicode="&#xc1;" horiz-adv-x="612" 
d="M424 212h-239l-70 -212h-90l229 674h105l230 -674h-93zM203 280h203l-66 194c-15 44 -25 84 -35 123h-2c-10 -40 -21 -81 -34 -122zM348 827h106l-127 -117h-72z" />
    <glyph glyph-name="Acircumflex" unicode="&#xc2;" horiz-adv-x="612" 
d="M424 212h-239l-70 -212h-90l229 674h105l230 -674h-93zM203 280h203l-66 194c-15 44 -25 84 -35 123h-2c-10 -40 -21 -81 -34 -122zM276 824h67l105 -114h-73l-64 69h-2l-64 -69h-71z" />
    <glyph glyph-name="Adieresis" unicode="&#xc4;" horiz-adv-x="612" 
d="M424 212h-239l-70 -212h-90l229 674h105l230 -674h-93zM203 280h203l-66 194c-15 44 -25 84 -35 123h-2c-10 -40 -21 -81 -34 -122zM217 719c-29 0 -49 23 -49 51s22 50 50 50s48 -22 48 -50s-19 -51 -49 -51zM403 719c-30 0 -49 23 -49 51s21 50 49 50s48 -22 48 -50
s-19 -51 -48 -51z" />
    <glyph glyph-name="Agrave" unicode="&#xc0;" horiz-adv-x="612" 
d="M424 212h-239l-70 -212h-90l229 674h105l230 -674h-93zM203 280h203l-66 194c-15 44 -25 84 -35 123h-2c-10 -40 -21 -81 -34 -122zM161 827h106l92 -116h-71z" />
    <glyph glyph-name="Aring" unicode="&#xc5;" horiz-adv-x="612" 
d="M424 212h-239l-70 -212h-90l229 674h105l230 -674h-93zM203 280h203l-66 194c-15 44 -25 84 -35 123h-2c-10 -40 -21 -81 -34 -122zM308 878c62 0 99 -40 99 -90s-41 -89 -99 -89c-60 0 -100 40 -100 88c0 50 38 91 100 91zM307 842c-30 0 -48 -26 -48 -55
c0 -25 19 -51 48 -51s48 24 48 53s-19 53 -48 53z" />
    <glyph glyph-name="Atilde" unicode="&#xc3;" horiz-adv-x="612" 
d="M424 212h-239l-70 -212h-90l229 674h105l230 -674h-93zM203 280h203l-66 194c-15 44 -25 84 -35 123h-2c-10 -40 -21 -81 -34 -122zM232 715h-47c-1 61 25 102 68 102c23 0 39 -9 60 -20c16 -9 32 -18 48 -18c15 0 24 7 27 39h46c1 -63 -21 -97 -67 -97
c-22 0 -40 8 -61 19c-19 10 -33 19 -48 19s-23 -17 -26 -44z" />
    <glyph glyph-name="Ccedilla" unicode="&#xc7;" horiz-adv-x="585" 
d="M529 91l18 -69c-31 -16 -92 -31 -176 -32l-24 -40c37 -7 70 -34 70 -75c0 -58 -51 -81 -103 -81c-26 0 -54 7 -71 17l14 45c15 -8 35 -13 55 -13c23 0 43 9 43 31c0 26 -31 37 -78 42l42 77c-164 19 -283 135 -283 338c0 211 143 354 352 354c84 0 137 -18 160 -30
l-21 -71c-33 16 -80 28 -136 28c-158 0 -263 -101 -263 -278c0 -165 95 -271 259 -271c53 0 107 11 142 28z" />
    <glyph glyph-name="Eacute" unicode="&#xc9;" horiz-adv-x="492" 
d="M425 388v-72h-262v-243h292v-73h-379v674h364v-73h-277v-213h262zM302 827h106l-127 -117h-72z" />
    <glyph glyph-name="Ecircumflex" unicode="&#xca;" horiz-adv-x="492" 
d="M425 388v-72h-262v-243h292v-73h-379v674h364v-73h-277v-213h262zM223 824h67l105 -114h-74l-63 69h-2l-64 -69h-72z" />
    <glyph glyph-name="Edieresis" unicode="&#xcb;" horiz-adv-x="492" 
d="M425 388v-72h-262v-243h292v-73h-379v674h364v-73h-277v-213h262zM163 721c-30 0 -49 23 -49 51c0 27 21 50 49 50s48 -22 48 -50s-19 -51 -48 -51zM348 721c-29 0 -49 23 -49 51c0 27 21 50 50 50c28 0 48 -22 48 -50s-19 -51 -49 -51z" />
    <glyph glyph-name="Egrave" unicode="&#xc8;" horiz-adv-x="492" 
d="M425 388v-72h-262v-243h292v-73h-379v674h364v-73h-277v-213h262zM119 827h106l93 -116h-72z" />
    <glyph glyph-name="Iacute" unicode="&#xcd;" horiz-adv-x="239" 
d="M76 674h87v-674h-87v674zM159 827h107l-128 -117h-71z" />
    <glyph glyph-name="Icircumflex" unicode="&#xce;" horiz-adv-x="239" 
d="M76 674h87v-674h-87v674zM85 824h67l105 -114h-73l-64 69h-2l-64 -69h-71z" />
    <glyph glyph-name="Idieresis" unicode="&#xcf;" horiz-adv-x="239" 
d="M76 674h87v-674h-87v674zM28 721c-30 0 -50 23 -50 51c0 27 22 50 50 50s48 -22 48 -50s-19 -51 -48 -51zM213 721c-29 0 -49 23 -49 51c0 27 21 50 50 50c28 0 48 -22 48 -50s-19 -51 -49 -51z" />
    <glyph glyph-name="Igrave" unicode="&#xcc;" horiz-adv-x="239" 
d="M76 674h87v-674h-87v674zM-25 827h106l93 -116h-72z" />
    <glyph glyph-name="Ntilde" unicode="&#xd1;" horiz-adv-x="658" 
d="M158 0h-82v674h95l216 -341c50 -79 89 -150 121 -219l2 1c-8 90 -10 172 -10 277v282h82v-674h-88l-214 342c-47 75 -92 152 -126 225l-3 -1c5 -85 7 -166 7 -278v-288zM257 715h-47c-2 61 24 102 68 102c22 0 38 -9 59 -20c16 -9 32 -18 48 -18c15 0 24 7 27 39h46
c1 -63 -21 -97 -67 -97c-21 0 -39 8 -61 19c-19 10 -33 19 -47 19c-16 0 -24 -17 -26 -44z" />
    <glyph glyph-name="Oacute" unicode="&#xd3;" horiz-adv-x="689" 
d="M349 685c184 0 303 -141 303 -341c0 -232 -141 -355 -313 -355c-178 0 -303 138 -303 342c0 214 133 354 313 354zM345 614c-144 0 -216 -133 -216 -281c0 -144 78 -273 215 -273c138 0 216 127 216 280c0 134 -70 274 -215 274zM384 829h106l-127 -116h-72z" />
    <glyph glyph-name="Ocircumflex" unicode="&#xd4;" horiz-adv-x="689" 
d="M349 685c184 0 303 -141 303 -341c0 -232 -141 -355 -313 -355c-178 0 -303 138 -303 342c0 214 133 354 313 354zM345 614c-144 0 -216 -133 -216 -281c0 -144 78 -273 215 -273c138 0 216 127 216 280c0 134 -70 274 -215 274zM310 827h67l105 -114h-74l-64 69h-2
l-63 -69h-72z" />
    <glyph glyph-name="Odieresis" unicode="&#xd6;" horiz-adv-x="689" 
d="M349 685c184 0 303 -141 303 -341c0 -232 -141 -355 -313 -355c-178 0 -303 138 -303 342c0 214 133 354 313 354zM345 614c-144 0 -216 -133 -216 -281c0 -144 78 -273 215 -273c138 0 216 127 216 280c0 134 -70 274 -215 274zM252 721c-30 0 -49 23 -49 51
c0 27 21 50 49 50s48 -22 48 -50s-19 -51 -48 -51zM437 721c-29 0 -49 23 -49 51c0 27 21 50 50 50c28 0 48 -22 48 -50s-19 -51 -49 -51z" />
    <glyph glyph-name="Ograve" unicode="&#xd2;" horiz-adv-x="689" 
d="M349 685c184 0 303 -141 303 -341c0 -232 -141 -355 -313 -355c-178 0 -303 138 -303 342c0 214 133 354 313 354zM345 614c-144 0 -216 -133 -216 -281c0 -144 78 -273 215 -273c138 0 216 127 216 280c0 134 -70 274 -215 274zM199 829h107l92 -116h-71z" />
    <glyph glyph-name="Otilde" unicode="&#xd5;" horiz-adv-x="689" 
d="M349 685c184 0 303 -141 303 -341c0 -232 -141 -355 -313 -355c-178 0 -303 138 -303 342c0 214 133 354 313 354zM345 614c-144 0 -216 -133 -216 -281c0 -144 78 -273 215 -273c138 0 216 127 216 280c0 134 -70 274 -215 274zM267 717h-47c-2 61 24 102 68 102
c22 0 38 -8 59 -20c16 -9 32 -18 48 -18c15 0 24 7 27 39h46c1 -63 -21 -97 -67 -97c-21 0 -39 8 -61 19c-19 10 -33 19 -47 19c-16 0 -24 -17 -26 -44z" />
    <glyph glyph-name="Scaron" unicode="&#x160;" horiz-adv-x="493" 
d="M42 33l22 73c39 -24 96 -44 156 -44c89 0 141 47 141 115c0 63 -36 99 -127 134c-110 39 -178 96 -178 191c0 105 87 183 218 183c69 0 119 -16 149 -33l-24 -71c-22 12 -67 32 -128 32c-92 0 -127 -55 -127 -101c0 -63 41 -94 134 -130c114 -44 172 -99 172 -198
c0 -104 -77 -194 -236 -194c-65 0 -136 19 -172 43zM292 713h-67l-105 114h74l64 -70h2l63 70h71z" />
    <glyph glyph-name="Uacute" unicode="&#xda;" horiz-adv-x="647" 
d="M75 674h88v-399c0 -151 67 -215 157 -215c100 0 164 66 164 215v399h88v-393c0 -207 -109 -292 -255 -292c-138 0 -242 79 -242 288v397zM366 827h107l-128 -117h-71z" />
    <glyph glyph-name="Ucircumflex" unicode="&#xdb;" horiz-adv-x="647" 
d="M75 674h88v-399c0 -151 67 -215 157 -215c100 0 164 66 164 215v399h88v-393c0 -207 -109 -292 -255 -292c-138 0 -242 79 -242 288v397zM295 824h67l105 -114h-74l-63 69h-2l-64 -69h-71z" />
    <glyph glyph-name="Udieresis" unicode="&#xdc;" horiz-adv-x="647" 
d="M75 674h88v-399c0 -151 67 -215 157 -215c100 0 164 66 164 215v399h88v-393c0 -207 -109 -292 -255 -292c-138 0 -242 79 -242 288v397zM233 721c-29 0 -49 23 -49 51c0 27 22 50 50 50c27 0 48 -22 48 -50s-20 -51 -49 -51zM419 721c-30 0 -49 23 -49 51
c0 27 21 50 49 50s48 -22 48 -50s-19 -51 -48 -51z" />
    <glyph glyph-name="Ugrave" unicode="&#xd9;" horiz-adv-x="647" 
d="M75 674h88v-399c0 -151 67 -215 157 -215c100 0 164 66 164 215v399h88v-393c0 -207 -109 -292 -255 -292c-138 0 -242 79 -242 288v397zM183 827h106l93 -116h-72z" />
    <glyph glyph-name="Yacute" unicode="&#xdd;" horiz-adv-x="541" 
d="M314 0h-88v286l-213 388h99l95 -186c26 -51 46 -92 67 -139h2c19 44 42 88 68 139l97 186h99l-226 -387v-287zM320 821h106l-127 -116h-72z" />
    <glyph glyph-name="Ydieresis" unicode="&#x178;" horiz-adv-x="541" 
d="M314 0h-88v286l-213 388h99l95 -186c26 -51 46 -92 67 -139h2c19 44 42 88 68 139l97 186h99l-226 -387v-287zM187 714c-29 0 -49 23 -49 51c0 27 21 50 50 50c27 0 47 -22 47 -50s-19 -51 -48 -51zM372 714c-29 0 -48 23 -48 51c0 27 21 50 49 50s48 -22 48 -50
s-19 -51 -49 -51z" />
    <glyph glyph-name="Zcaron" unicode="&#x17d;" horiz-adv-x="553" 
d="M30 0v51l374 547v3h-342v73h455v-53l-372 -545v-3h377v-73h-492zM320 710h-67l-104 114h73l64 -69h2l64 69h71z" />
    <glyph glyph-name="aacute" unicode="&#xe1;" horiz-adv-x="482" 
d="M421 0h-80l-7 61h-3c-27 -38 -79 -72 -148 -72c-98 0 -148 69 -148 139c0 117 104 181 291 180v10c0 40 -11 112 -110 112c-45 0 -92 -14 -126 -36l-20 58c40 26 98 43 159 43c148 0 184 -101 184 -198v-181c0 -42 2 -83 8 -116zM328 163v84c-96 2 -205 -15 -205 -109
c0 -57 38 -84 83 -84c63 0 103 40 117 81c3 9 5 19 5 28zM275 693h97l-122 -143h-63z" />
    <glyph glyph-name="acircumflex" unicode="&#xe2;" horiz-adv-x="482" 
d="M421 0h-80l-7 61h-3c-27 -38 -79 -72 -148 -72c-98 0 -148 69 -148 139c0 117 104 181 291 180v10c0 40 -11 112 -110 112c-45 0 -92 -14 -126 -36l-20 58c40 26 98 43 159 43c148 0 184 -101 184 -198v-181c0 -42 2 -83 8 -116zM328 163v84c-96 2 -205 -15 -205 -109
c0 -57 38 -84 83 -84c63 0 103 40 117 81c3 9 5 19 5 28zM205 693h61l96 -143h-67l-58 95h-2l-58 -95h-66z" />
    <glyph glyph-name="adieresis" unicode="&#xe4;" horiz-adv-x="482" 
d="M421 0h-80l-7 61h-3c-27 -38 -79 -72 -148 -72c-98 0 -148 69 -148 139c0 117 104 181 291 180v10c0 40 -11 112 -110 112c-45 0 -92 -14 -126 -36l-20 58c40 26 98 43 159 43c148 0 184 -101 184 -198v-181c0 -42 2 -83 8 -116zM328 163v84c-96 2 -205 -15 -205 -109
c0 -57 38 -84 83 -84c63 0 103 40 117 81c3 9 5 19 5 28zM149 570c-30 0 -51 24 -51 51c0 28 23 51 51 51s49 -22 49 -51c0 -27 -20 -51 -49 -51zM334 570c-30 0 -50 24 -50 51c0 28 22 51 50 51s49 -22 49 -51c0 -27 -20 -51 -49 -51z" />
    <glyph glyph-name="agrave" unicode="&#xe0;" horiz-adv-x="482" 
d="M421 0h-80l-7 61h-3c-27 -38 -79 -72 -148 -72c-98 0 -148 69 -148 139c0 117 104 181 291 180v10c0 40 -11 112 -110 112c-45 0 -92 -14 -126 -36l-20 58c40 26 98 43 159 43c148 0 184 -101 184 -198v-181c0 -42 2 -83 8 -116zM328 163v84c-96 2 -205 -15 -205 -109
c0 -57 38 -84 83 -84c63 0 103 40 117 81c3 9 5 19 5 28zM95 693h97l87 -143h-62z" />
    <glyph glyph-name="aring" unicode="&#xe5;" horiz-adv-x="482" 
d="M421 0h-80l-7 61h-3c-27 -38 -79 -72 -148 -72c-98 0 -148 69 -148 139c0 117 104 181 291 180v10c0 40 -11 112 -110 112c-45 0 -92 -14 -126 -36l-20 58c40 26 98 43 159 43c148 0 184 -101 184 -198v-181c0 -42 2 -83 8 -116zM328 163v84c-96 2 -205 -15 -205 -109
c0 -57 38 -84 83 -84c63 0 103 40 117 81c3 9 5 19 5 28zM240 537c-60 0 -101 40 -101 91c0 53 39 95 102 95c60 0 99 -41 99 -94s-43 -92 -100 -92zM239 574c32 0 52 26 52 56s-20 55 -52 55c-31 0 -49 -26 -49 -57c0 -26 20 -54 49 -54z" />
    <glyph glyph-name="atilde" unicode="&#xe3;" horiz-adv-x="482" 
d="M421 0h-80l-7 61h-3c-27 -38 -79 -72 -148 -72c-98 0 -148 69 -148 139c0 117 104 181 291 180v10c0 40 -11 112 -110 112c-45 0 -92 -14 -126 -36l-20 58c40 26 98 43 159 43c148 0 184 -101 184 -198v-181c0 -42 2 -83 8 -116zM328 163v84c-96 2 -205 -15 -205 -109
c0 -57 38 -84 83 -84c63 0 103 40 117 81c3 9 5 19 5 28zM163 567h-48c-2 65 25 104 68 104c22 0 39 -9 62 -22c16 -9 30 -17 42 -17c16 0 25 9 28 43h46c2 -67 -21 -101 -68 -101c-21 0 -40 9 -61 20c-20 12 -31 18 -43 18c-16 0 -24 -17 -26 -45z" />
    <glyph glyph-name="ccedilla" unicode="&#xe7;" horiz-adv-x="447" 
d="M403 84l16 -66c-21 -11 -67 -27 -127 -28l-25 -40c36 -7 70 -32 70 -73c0 -60 -50 -83 -104 -83c-23 0 -51 6 -70 17l15 45c15 -9 35 -13 55 -13c23 0 43 7 43 31c-1 27 -31 37 -78 42l42 77c-123 15 -202 110 -202 244c0 149 102 257 260 257c52 0 98 -13 122 -25
l-20 -68c-21 12 -54 23 -102 23c-111 0 -171 -82 -171 -183c0 -112 72 -181 168 -181c50 0 84 13 108 24z" />
    <glyph glyph-name="eacute" unicode="&#xe9;" horiz-adv-x="501" 
d="M462 226h-340c2 -119 78 -168 166 -168c63 0 101 11 134 25l15 -63c-31 -14 -84 -30 -161 -30c-149 0 -238 98 -238 244s86 261 227 261c158 0 200 -139 200 -228c0 -18 -2 -32 -3 -41zM123 289h257c1 56 -23 143 -122 143c-89 0 -128 -82 -135 -143zM304 693h97
l-122 -143h-63z" />
    <glyph glyph-name="ecircumflex" unicode="&#xea;" horiz-adv-x="501" 
d="M462 226h-340c2 -119 78 -168 166 -168c63 0 101 11 134 25l15 -63c-31 -14 -84 -30 -161 -30c-149 0 -238 98 -238 244s86 261 227 261c158 0 200 -139 200 -228c0 -18 -2 -32 -3 -41zM123 289h257c1 56 -23 143 -122 143c-89 0 -128 -82 -135 -143zM232 693h60l96 -143
h-67l-58 95h-2l-58 -95h-66z" />
    <glyph glyph-name="edieresis" unicode="&#xeb;" horiz-adv-x="501" 
d="M462 226h-340c2 -119 78 -168 166 -168c63 0 101 11 134 25l15 -63c-31 -14 -84 -30 -161 -30c-149 0 -238 98 -238 244s86 261 227 261c158 0 200 -139 200 -228c0 -18 -2 -32 -3 -41zM123 289h257c1 56 -23 143 -122 143c-89 0 -128 -82 -135 -143zM176 570
c-30 0 -51 24 -51 51c0 28 23 51 51 51s49 -22 49 -51c0 -27 -20 -51 -49 -51zM361 570c-30 0 -50 24 -50 51c0 28 22 51 50 51s49 -22 49 -51c0 -27 -20 -51 -49 -51z" />
    <glyph glyph-name="egrave" unicode="&#xe8;" horiz-adv-x="501" 
d="M462 226h-340c2 -119 78 -168 166 -168c63 0 101 11 134 25l15 -63c-31 -14 -84 -30 -161 -30c-149 0 -238 98 -238 244s86 261 227 261c158 0 200 -139 200 -228c0 -18 -2 -32 -3 -41zM123 289h257c1 56 -23 143 -122 143c-89 0 -128 -82 -135 -143zM135 693h97l88 -143
h-63z" />
    <glyph glyph-name="iacute" unicode="&#xed;" horiz-adv-x="234" 
d="M161 0h-88v484h88v-484zM155 693h97l-122 -143h-63z" />
    <glyph glyph-name="icircumflex" unicode="&#xee;" horiz-adv-x="234" 
d="M161 0h-88v484h88v-484zM86 693h61l96 -143h-68l-58 95h-2l-58 -95h-65z" />
    <glyph glyph-name="idieresis" unicode="&#xef;" horiz-adv-x="234" 
d="M161 0h-88v484h88v-484zM25 570c-30 0 -51 24 -51 51c0 28 23 51 51 51s49 -22 49 -51c0 -27 -20 -51 -49 -51zM210 570c-30 0 -50 24 -50 51c0 28 22 51 50 51s49 -22 49 -51c0 -27 -20 -51 -49 -51z" />
    <glyph glyph-name="igrave" unicode="&#xec;" horiz-adv-x="234" 
d="M161 0h-88v484h88v-484zM-27 693h96l88 -143h-62z" />
    <glyph glyph-name="ntilde" unicode="&#xf1;" horiz-adv-x="555" 
d="M73 0v353c0 50 -1 91 -4 131h78l5 -80h2c24 46 80 91 160 91c67 0 171 -40 171 -206v-289h-88v279c0 78 -29 143 -112 143c-58 0 -103 -41 -118 -90c-4 -11 -6 -26 -6 -41v-291h-88zM203 567h-48c-2 65 25 104 68 104c22 0 39 -9 62 -22c16 -9 30 -17 42 -17
c16 0 26 9 28 43h47c1 -67 -22 -101 -69 -101c-21 0 -40 9 -61 20c-20 12 -31 18 -43 18c-16 0 -24 -17 -26 -45z" />
    <glyph glyph-name="oacute" unicode="&#xf3;" horiz-adv-x="549" 
d="M278 495c139 0 233 -101 233 -249c0 -179 -124 -257 -241 -257c-131 0 -232 96 -232 249c0 162 106 257 240 257zM276 429c-104 0 -149 -96 -149 -188c0 -106 61 -186 147 -186c84 0 147 79 147 188c0 82 -41 186 -145 186zM309 693h97l-122 -143h-63z" />
    <glyph glyph-name="ocircumflex" unicode="&#xf4;" horiz-adv-x="549" 
d="M278 495c139 0 233 -101 233 -249c0 -179 -124 -257 -241 -257c-131 0 -232 96 -232 249c0 162 106 257 240 257zM276 429c-104 0 -149 -96 -149 -188c0 -106 61 -186 147 -186c84 0 147 79 147 188c0 82 -41 186 -145 186zM243 693h61l96 -143h-68l-58 95h-2l-58 -95
h-65z" />
    <glyph glyph-name="odieresis" unicode="&#xf6;" horiz-adv-x="549" 
d="M278 495c139 0 233 -101 233 -249c0 -179 -124 -257 -241 -257c-131 0 -232 96 -232 249c0 162 106 257 240 257zM276 429c-104 0 -149 -96 -149 -188c0 -106 61 -186 147 -186c84 0 147 79 147 188c0 82 -41 186 -145 186zM182 570c-30 0 -51 24 -51 51
c0 28 23 51 51 51s49 -22 49 -51c0 -27 -20 -51 -49 -51zM367 570c-30 0 -50 24 -50 51c0 28 22 51 50 51s49 -22 49 -51c0 -27 -20 -51 -49 -51z" />
    <glyph glyph-name="ograve" unicode="&#xf2;" horiz-adv-x="549" 
d="M278 495c139 0 233 -101 233 -249c0 -179 -124 -257 -241 -257c-131 0 -232 96 -232 249c0 162 106 257 240 257zM276 429c-104 0 -149 -96 -149 -188c0 -106 61 -186 147 -186c84 0 147 79 147 188c0 82 -41 186 -145 186zM145 693h97l87 -143h-62z" />
    <glyph glyph-name="otilde" unicode="&#xf5;" horiz-adv-x="549" 
d="M278 495c139 0 233 -101 233 -249c0 -179 -124 -257 -241 -257c-131 0 -232 96 -232 249c0 162 106 257 240 257zM276 429c-104 0 -149 -96 -149 -188c0 -106 61 -186 147 -186c84 0 147 79 147 188c0 82 -41 186 -145 186zM199 567h-48c-2 65 25 104 68 104
c22 0 39 -9 62 -22c16 -9 30 -17 42 -17c16 0 26 9 28 43h47c1 -67 -22 -101 -69 -101c-21 0 -40 9 -61 20c-20 12 -31 18 -43 18c-16 0 -24 -17 -26 -45z" />
    <glyph glyph-name="scaron" unicode="&#x161;" horiz-adv-x="396" 
d="M39 23l22 67c26 -17 72 -35 116 -35c64 0 94 32 94 72c0 42 -25 65 -90 89c-87 31 -128 79 -128 137c0 78 63 142 167 142c49 0 92 -14 119 -30l-22 -64c-19 12 -54 28 -99 28c-52 0 -81 -30 -81 -66c0 -40 29 -58 92 -82c84 -32 127 -74 127 -146
c0 -85 -66 -145 -181 -145c-53 0 -102 13 -136 33zM235 550h-64l-96 143h68l59 -95h2l59 95h66z" />
    <glyph glyph-name="uacute" unicode="&#xfa;" horiz-adv-x="551" 
d="M478 484v-352c0 -50 1 -94 4 -132h-78l-5 79h-2c-23 -39 -74 -90 -160 -90c-76 0 -167 42 -167 212v283h88v-268c0 -92 28 -154 108 -154c59 0 100 41 116 80c5 13 8 29 8 45v297h88zM321 693h97l-122 -143h-63z" />
    <glyph glyph-name="ucircumflex" unicode="&#xfb;" horiz-adv-x="551" 
d="M478 484v-352c0 -50 1 -94 4 -132h-78l-5 79h-2c-23 -39 -74 -90 -160 -90c-76 0 -167 42 -167 212v283h88v-268c0 -92 28 -154 108 -154c59 0 100 41 116 80c5 13 8 29 8 45v297h88zM244 693h61l96 -143h-67l-58 95h-2l-58 -95h-66z" />
    <glyph glyph-name="udieresis" unicode="&#xfc;" horiz-adv-x="551" 
d="M478 484v-352c0 -50 1 -94 4 -132h-78l-5 79h-2c-23 -39 -74 -90 -160 -90c-76 0 -167 42 -167 212v283h88v-268c0 -92 28 -154 108 -154c59 0 100 41 116 80c5 13 8 29 8 45v297h88zM186 570c-30 0 -51 24 -51 51c0 28 23 51 51 51s49 -22 49 -51c0 -27 -20 -51 -49 -51
zM371 570c-30 0 -50 24 -50 51c0 28 22 51 50 51s49 -22 49 -51c0 -27 -20 -51 -49 -51z" />
    <glyph glyph-name="ugrave" unicode="&#xf9;" horiz-adv-x="551" 
d="M478 484v-352c0 -50 1 -94 4 -132h-78l-5 79h-2c-23 -39 -74 -90 -160 -90c-76 0 -167 42 -167 212v283h88v-268c0 -92 28 -154 108 -154c59 0 100 41 116 80c5 13 8 29 8 45v297h88zM140 693h97l88 -143h-63z" />
    <glyph glyph-name="yacute" unicode="&#xfd;" horiz-adv-x="471" 
d="M9 484h96l106 -286c11 -32 23 -70 31 -99h2c9 29 19 66 31 101l96 284h93l-132 -345c-63 -166 -106 -251 -166 -303c-43 -38 -86 -53 -108 -57l-22 74c22 7 51 21 77 43c24 19 54 53 74 98c4 9 7 16 7 21s-2 12 -6 23zM285 693h97l-122 -143h-63z" />
    <glyph glyph-name="ydieresis" unicode="&#xff;" horiz-adv-x="471" 
d="M9 484h96l106 -286c11 -32 23 -70 31 -99h2c9 29 19 66 31 101l96 284h93l-132 -345c-63 -166 -106 -251 -166 -303c-43 -38 -86 -53 -108 -57l-22 74c22 7 51 21 77 43c24 19 54 53 74 98c4 9 7 16 7 21s-2 12 -6 23zM155 570c-30 0 -51 24 -51 51c0 28 23 51 51 51
s49 -22 49 -51c0 -27 -20 -51 -49 -51zM340 570c-30 0 -50 24 -50 51c0 28 22 51 51 51c27 0 48 -22 48 -51c0 -27 -19 -51 -49 -51z" />
    <glyph glyph-name="zcaron" unicode="&#x17e;" horiz-adv-x="428" 
d="M18 0v51l219 285c21 26 41 49 63 75v2h-262v71h369l-1 -55l-216 -281c-20 -27 -40 -51 -62 -76v-2h283v-70h-393zM259 550h-64l-96 143h68l59 -95h2l59 95h66z" />
    <glyph glyph-name="Dcroat" unicode="&#x110;" horiz-adv-x="671" 
d="M-2 307v70h83v290c53 9 116 15 185 15c124 0 214 -29 273 -84c60 -55 95 -134 95 -245s-34 -200 -97 -263s-168 -97 -298 -97c-63 0 -114 2 -158 7v307h-83zM348 377v-70h-180v-240c22 -3 54 -4 87 -4c188 0 288 103 288 289c1 161 -89 260 -273 260
c-45 0 -79 -4 -102 -9v-226h180z" />
    <glyph glyph-name="Eng" unicode="&#x14a;" horiz-adv-x="658" 
d="M158 0h-82v674h95l216 -341c50 -79 89 -150 121 -219l2 1c-8 90 -10 172 -10 277v282h82v-636c0 -143 -65 -218 -193 -237l-18 68c80 16 120 54 127 125l-218 348c-47 75 -92 152 -126 225l-3 -1c5 -85 7 -166 7 -278v-288z" />
    <glyph glyph-name="Hbar" unicode="&#x126;" horiz-adv-x="657" 
d="M636 479h-57v-479h-88v302h-326v-302h-87v479h-57v58h57v137h87v-137h326v137h88v-137h57v-58zM491 377v102h-326v-102h326z" />
    <glyph glyph-name="Tbar" unicode="&#x166;" horiz-adv-x="497" 
d="M498 600h-206v-222h124v-58h-124v-320h-88v320h-124v58h124v222h-205v74h499v-74z" />
    <glyph glyph-name="uni021C" unicode="&#x21c;" horiz-adv-x="480" 
d="M63 -115l-11 69c160 24 297 110 297 228c0 74 -53 133 -147 132c-21 0 -60 -7 -94 -18l-12 62c113 26 201 87 201 166c0 55 -46 91 -111 91c-54 0 -112 -23 -137 -36l-18 59c32 20 103 47 171 47c109 0 183 -60 183 -147c0 -75 -55 -133 -123 -164v-3
c101 -10 179 -76 179 -183c0 -154 -148 -276 -378 -303z" />
    <glyph glyph-name="dcroat" unicode="&#x111;" horiz-adv-x="564" 
d="M568 552h-77v-427c0 -43 1 -92 4 -125h-79l-4 84h-2c-27 -54 -86 -95 -165 -95c-117 0 -207 99 -207 246c-1 161 99 260 217 260c74 0 124 -35 146 -74h2v131h-197v55h197v103h88v-103h77v-55zM403 203v84c0 11 -1 26 -4 37c-13 56 -61 102 -127 102
c-91 0 -145 -80 -145 -187c0 -98 48 -179 143 -179c59 0 113 39 129 105c3 12 4 24 4 38z" />
    <glyph glyph-name="eng" unicode="&#x14b;" horiz-adv-x="555" 
d="M73 0v353c0 50 -1 91 -4 131h78l5 -80h2c24 46 80 91 160 91c67 0 171 -40 171 -206v-230c0 -154 -83 -223 -190 -238l-17 70c79 16 119 67 119 160v228c0 78 -29 143 -112 143c-58 0 -103 -41 -118 -90c-4 -11 -6 -26 -6 -41v-291h-88z" />
    <glyph glyph-name="hbar" unicode="&#x127;" horiz-adv-x="555" 
d="M485 0h-88v278c0 78 -29 144 -112 144c-57 0 -102 -40 -118 -88c-5 -12 -6 -25 -6 -42v-292h-88v552h-77v55h77v103h88v-103h193v-55h-193v-144h2c14 25 36 47 63 62c26 15 57 25 90 25c65 0 169 -40 169 -207v-288z" />
    <glyph glyph-name="kgreenlandic" unicode="&#x138;" horiz-adv-x="469" 
d="M160 484v-222h2c12 17 29 38 43 55l142 167h106l-187 -199l213 -285h-107l-167 232l-45 -50v-182h-87v484h87z" />
    <glyph glyph-name="napostrophe" unicode="&#x149;" horiz-adv-x="555" 
d="M56 536l-38 29c17 19 37 44 37 82c0 23 -14 45 -31 59l64 17c17 -10 35 -37 35 -72c0 -67 -51 -103 -67 -115zM73 0v353c0 50 -1 91 -4 131h78l5 -80h2c24 46 80 91 160 91c67 0 171 -40 171 -206v-289h-88v279c0 78 -29 143 -112 143c-58 0 -103 -41 -118 -90
c-4 -11 -6 -26 -6 -41v-291h-88z" />
    <glyph glyph-name="tbar" unicode="&#x167;" horiz-adv-x="331" 
d="M305 417h-126v-115h98v-54h-98v-92c0 -60 17 -94 66 -94c23 0 40 3 51 6l4 -66c-17 -7 -44 -12 -78 -12c-41 0 -74 13 -95 37c-25 26 -34 69 -34 126v95h-67v54h67v115h-75v67h75v116l86 23v-139h126v-67z" />
    <glyph glyph-name="uni021D" unicode="&#x21d;" horiz-adv-x="427" 
d="M44 -209l-9 68c38 3 275 33 275 188c0 59 -39 109 -128 109c-28 0 -61 -7 -88 -15l-13 63c107 25 185 65 185 138c0 52 -40 84 -104 84c-51 0 -100 -25 -124 -38l-18 58c37 24 98 49 163 49c101 0 168 -54 168 -138c0 -66 -43 -115 -106 -140v-3c92 -10 155 -69 155 -157
c0 -130 -123 -247 -356 -266z" />
    <glyph glyph-name="IJ" unicode="&#x132;" horiz-adv-x="609" 
d="M76 674h87v-674h-87v674zM453 230v444h87v-451c0 -179 -87 -234 -203 -234c-33 0 -72 7 -94 16l13 71c18 -7 44 -13 74 -13c77 0 123 35 123 167z" />
    <glyph glyph-name="ij" unicode="&#x133;" horiz-adv-x="477" 
d="M161 0h-88v484h88v-484zM117 675c33 0 54 -24 54 -55c1 -30 -21 -54 -56 -54c-31 0 -53 24 -53 54c0 31 23 55 55 55zM198 -209l-10 69c41 3 75 14 96 37c24 28 34 66 34 182v405h88v-439c0 -94 -15 -155 -58 -199c-39 -39 -103 -55 -150 -55zM363 675
c32 0 53 -24 53 -55c0 -29 -20 -54 -55 -54c-33 0 -54 25 -54 54c0 31 23 55 56 55z" />
    <glyph glyph-name="zero.slash" unicode="&#xf638;" horiz-adv-x="513" 
d="M146 168l201 374c-20 32 -50 51 -90 51c-82 0 -135 -105 -136 -265c0 -63 8 -117 25 -160zM371 481l-202 -375c22 -32 51 -49 86 -49c91 0 137 105 137 271c0 58 -7 110 -21 153zM262 661c137 0 215 -122 215 -329c0 -221 -82 -343 -226 -343c-127 0 -213 119 -215 334
c0 218 94 338 226 338z" />
    <glyph glyph-name="Euro" unicode="&#x20ac;" horiz-adv-x="513" 
d="M479 94l17 -63c-31 -21 -83 -42 -149 -42c-81 0 -153 31 -203 89c-38 42 -63 100 -72 172h-62v49h57v15c0 16 1 31 2 45h-59v50h66c12 70 42 128 82 169c51 53 116 83 198 83c59 0 105 -17 133 -32l-20 -66c-25 15 -67 28 -112 28c-54 0 -98 -19 -132 -55
c-30 -29 -50 -74 -60 -127h279v-50h-288c-1 -13 -2 -28 -2 -42v-18h290v-49h-283c8 -58 28 -101 55 -131c37 -39 87 -58 141 -58c53 0 99 20 122 33z" />
    <glyph glyph-name="Aringacute" unicode="&#x1fa;" horiz-adv-x="612" 
d="M312 692c-56 0 -91 34 -91 77s34 79 92 79c56 0 89 -35 89 -79s-36 -77 -90 -77zM311 729c27 0 44 16 44 41c0 23 -17 42 -45 42c-27 0 -42 -20 -42 -43c0 -22 17 -40 43 -40zM366 952h114l-143 -86h-77zM424 212h-239l-70 -212h-90l229 674h105l230 -674h-93zM203 280
h203l-66 194c-15 44 -25 84 -35 123h-2c-10 -40 -21 -81 -34 -122z" />
    <glyph glyph-name="estimated" unicode="&#x212e;" horiz-adv-x="817" 
d="M782 316h-605c-3 0 -5 -1 -5 -4v-183c0 -8 4 -15 9 -21c57 -61 139 -99 229 -99c96 0 182 43 240 111h55c-68 -79 -176 -131 -296 -131c-206 0 -374 150 -374 336s168 336 374 336s373 -150 373 -336v-9zM646 340v184c0 9 -4 16 -10 22c-58 58 -138 95 -226 95
c-90 0 -170 -38 -228 -98c-6 -6 -10 -14 -10 -23v-180c0 -3 2 -5 5 -5h464c3 0 5 2 5 5z" />
    <glyph glyph-name="zero.oldstyle" unicode="&#xf730;" horiz-adv-x="530" 
d="M265 -11c-124 0 -225 92 -225 253c0 157 101 253 225 253s225 -93 225 -253c0 -158 -100 -253 -225 -253zM265 56c89 0 140 79 140 186s-52 186 -140 186s-140 -79 -140 -186s52 -186 140 -186z" />
    <glyph glyph-name="one.oldstyle" unicode="&#xf731;" horiz-adv-x="362" 
d="M263 0h-84v409h-2l-135 -63l-16 65l164 75h73v-486z" />
    <glyph glyph-name="two.oldstyle" unicode="&#xf732;" horiz-adv-x="448" 
d="M420 0h-396v48l48 34c151 99 225 166 225 246c0 65 -46 96 -108 96c-52 0 -101 -23 -136 -48l-23 57c35 27 101 62 181 62c102 0 174 -57 174 -155c0 -92 -72 -160 -177 -234l-51 -37v-3c24 3 56 4 81 4h182v-70z" />
    <glyph glyph-name="three.oldstyle" unicode="&#xf733;" horiz-adv-x="433" 
d="M17 -96l11 65c25 -9 67 -16 109 -16c99 0 169 48 169 121c0 63 -60 102 -152 102c-23 0 -43 -1 -55 -2l-2 64l19 2c93 7 163 43 163 105c0 54 -40 81 -105 81c-51 0 -99 -22 -123 -35l-18 59c31 21 94 45 160 45c102 0 174 -51 174 -135c0 -68 -50 -118 -118 -138v-3
c79 -11 147 -59 147 -144c0 -115 -117 -191 -252 -191c-52 0 -104 10 -127 20z" />
    <glyph glyph-name="four.oldstyle" unicode="&#xf734;" horiz-adv-x="502" 
d="M483 50h-91v-165h-82v165h-292v57l279 384h95v-374h91v-67zM310 117v200c0 33 0 63 3 94l-4 1c-16 -32 -35 -65 -54 -94l-150 -198l2 -3h203z" />
    <glyph glyph-name="five.oldstyle" unicode="&#xf735;" horiz-adv-x="441" 
d="M36 -98l11 63c23 -7 64 -13 102 -13c85 0 164 45 164 129c0 29 -12 54 -31 73c-39 39 -118 51 -228 43l52 287h287l-11 -72h-217l-30 -150c83 2 168 -10 221 -61c30 -29 46 -70 46 -113c0 -123 -103 -204 -252 -204c-44 0 -89 8 -114 18z" />
    <glyph glyph-name="six.oldstyle" unicode="&#xf736;" horiz-adv-x="520" 
d="M432 606l6 -65c-180 -11 -274 -106 -297 -220h3c25 36 77 73 146 73c102 0 187 -73 187 -192c0 -134 -104 -213 -208 -213c-133 0 -222 99 -222 246c0 207 145 358 385 371zM269 56c59 0 121 47 121 142c0 82 -49 133 -122 133c-45 0 -82 -23 -100 -43
c-25 -25 -33 -49 -33 -82c0 -81 53 -150 134 -150z" />
    <glyph glyph-name="seven.oldstyle" unicode="&#xf737;" horiz-adv-x="428" 
d="M405 484v-56c-62 -163 -182 -387 -283 -543l-82 15c82 119 222 369 275 509v2h-298v73h388z" />
    <glyph glyph-name="eight.oldstyle" unicode="&#xf738;" horiz-adv-x="513" 
d="M343 320v-3c76 -27 129 -80 129 -151c0 -108 -98 -177 -218 -177c-126 0 -213 69 -213 166c0 73 51 125 125 158v3c-57 24 -101 66 -101 129c0 96 86 162 197 162c113 0 187 -67 187 -151c0 -58 -35 -102 -106 -136zM261 547c-61 0 -111 -37 -111 -95
c0 -54 45 -88 120 -108c54 16 97 52 97 108c0 63 -52 95 -106 95zM255 52c71 0 127 43 127 106s-51 105 -142 129c-66 -22 -111 -68 -111 -123c0 -65 48 -112 126 -112z" />
    <glyph glyph-name="nine.oldstyle" unicode="&#xf739;" horiz-adv-x="520" 
d="M82 -116l-6 65c171 7 272 91 299 209h-2c-20 -33 -75 -67 -143 -67c-101 0 -187 71 -187 191c0 121 95 213 217 213c118 0 212 -87 212 -240c0 -218 -149 -362 -390 -371zM252 153c51 0 99 30 118 65c9 13 15 35 15 60c0 90 -59 149 -129 149c-61 0 -125 -45 -125 -139
c0 -92 56 -135 121 -135z" />
    <glyph glyph-name="percent.oldstyle" unicode="&#xf642;" horiz-adv-x="818" 
d="M184 603c91 0 151 -70 151 -194c0 -137 -72 -205 -156 -205c-81 0 -151 65 -152 196c0 130 71 203 157 203zM182 550c-55 0 -85 -65 -85 -147c-1 -82 30 -146 84 -146c59 0 84 62 84 148c0 79 -22 145 -83 145zM261 -12h-56l352 620h55zM640 392c91 0 150 -70 150 -194
c0 -137 -72 -205 -155 -205c-81 0 -152 65 -152 195c-1 131 71 204 157 204zM637 339c-55 0 -84 -65 -85 -147c-1 -83 31 -146 85 -146c58 0 84 62 84 148c0 79 -23 145 -84 145z" />
    <glyph glyph-name="zero.fitted" unicode="&#xf639;" horiz-adv-x="513" 
d="M262 661c137 0 215 -122 215 -329c0 -221 -82 -343 -226 -343c-127 0 -213 119 -215 334c0 218 94 338 226 338zM257 593c-77 0 -133 -94 -133 -271c0 -169 52 -265 132 -265c90 0 133 105 133 271c0 160 -41 265 -132 265z" />
    <glyph glyph-name="one.fitted" unicode="&#xf6dc;" horiz-adv-x="326" 
d="M151 0v568h-2l-113 -61l-17 67l142 76h75v-650h-85z" />
    <glyph glyph-name="two.fitted" unicode="&#xf63a;" horiz-adv-x="447" 
d="M418 0h-415v54l69 67c166 158 242 242 242 340c0 66 -31 127 -128 127c-60 0 -108 -30 -138 -55l-28 62c44 38 108 66 183 66c140 0 199 -96 199 -189c0 -120 -87 -217 -224 -349l-51 -48v-2h291v-73z" />
    <glyph glyph-name="three.fitted" unicode="&#xf63b;" horiz-adv-x="450" 
d="M7 33l24 68c24 -16 82 -41 144 -41c112 0 148 72 147 126c-1 91 -83 130 -168 130h-49v66h49c64 0 145 33 145 110c0 52 -33 98 -114 98c-52 0 -102 -23 -130 -43l-24 64c34 25 101 50 170 50c129 0 187 -76 187 -155c0 -67 -41 -124 -120 -153v-2
c80 -16 145 -76 145 -167c0 -104 -82 -195 -237 -195c-73 0 -137 23 -169 44z" />
    <glyph glyph-name="four.fitted" unicode="&#xf63c;" horiz-adv-x="503" 
d="M396 0h-83v177h-302v58l290 415h95v-404h91v-69h-91v-177zM100 246h213v217c0 34 1 68 3 102h-3c-21 -38 -36 -66 -54 -96l-159 -221v-2z" />
    <glyph glyph-name="five.fitted" unicode="&#xf63d;" horiz-adv-x="460" 
d="M406 650v-74h-248l-25 -167c15 2 29 4 53 4c50 0 100 -11 140 -35c50 -29 93 -85 93 -167c0 -127 -101 -222 -242 -222c-71 0 -131 20 -162 40l22 67c27 -16 80 -36 139 -36c83 0 154 54 154 141c-1 84 -57 144 -187 144c-37 0 -66 -4 -90 -7l42 312h311z" />
    <glyph glyph-name="six.fitted" unicode="&#xf63e;" horiz-adv-x="515" 
d="M418 660v-72c-18 1 -41 0 -66 -4c-138 -23 -211 -124 -226 -231h3c31 41 85 75 157 75c115 0 196 -83 196 -210c0 -119 -81 -229 -216 -229c-139 0 -230 108 -230 277c0 128 46 229 110 293c54 53 126 86 208 96c26 4 48 5 64 5zM266 57c76 0 127 63 127 156
s-53 149 -134 149c-53 0 -102 -33 -126 -80c-6 -10 -10 -23 -10 -39c2 -107 51 -186 143 -186z" />
    <glyph glyph-name="seven.fitted" unicode="&#xf63f;" horiz-adv-x="412" 
d="M1 650h410v-58l-283 -592h-90l281 575v2h-318v73z" />
    <glyph glyph-name="eight.fitted" unicode="&#xf640;" horiz-adv-x="513" 
d="M255 -11c-136 0 -218 81 -218 176c0 82 49 140 129 174l-1 3c-72 34 -103 90 -103 146c0 103 87 173 201 173c126 0 189 -79 189 -160c0 -55 -27 -114 -107 -152v-3c81 -32 131 -89 131 -168c0 -113 -97 -189 -221 -189zM257 53c79 0 130 49 130 116
c0 79 -55 117 -143 142c-76 -22 -117 -72 -117 -134c-3 -66 47 -124 130 -124zM258 598c-73 0 -113 -48 -113 -104c0 -65 49 -100 124 -120c56 19 99 59 99 118c0 52 -31 106 -110 106z" />
    <glyph glyph-name="nine.fitted" unicode="&#xf641;" horiz-adv-x="517" 
d="M96 -10v72c19 -2 41 0 71 3c51 7 99 28 136 63c43 39 74 96 86 173h-3c-36 -44 -88 -70 -153 -70c-117 0 -192 88 -192 199c0 123 89 231 222 231s215 -108 215 -274c0 -143 -48 -243 -112 -305c-50 -49 -119 -79 -189 -87c-32 -5 -60 -6 -81 -5zM256 594
c-75 0 -128 -66 -128 -158c0 -81 49 -138 125 -138c59 0 105 29 128 68c5 8 8 18 8 32c0 111 -41 196 -133 196z" />
    <glyph glyph-name="zero.slashfitted" unicode="&#xe008;" horiz-adv-x="513" 
d="M146 168l201 374c-20 32 -50 51 -90 51c-82 0 -135 -105 -136 -265c0 -63 8 -117 25 -160zM371 481l-202 -375c22 -32 51 -49 86 -49c91 0 137 105 137 271c0 58 -7 110 -21 153zM262 661c137 0 215 -122 215 -329c0 -221 -82 -343 -226 -343c-127 0 -213 119 -215 334
c0 218 94 338 226 338z" />
    <glyph glyph-name="zero.taboldstyle" unicode="&#xf643;" horiz-adv-x="530" 
d="M265 -11c-124 0 -225 92 -225 253c0 157 101 253 225 253s225 -93 225 -253c0 -158 -100 -253 -225 -253zM265 56c89 0 140 79 140 186s-52 186 -140 186s-140 -79 -140 -186s52 -186 140 -186z" />
    <glyph glyph-name="one.taboldstyle" unicode="&#xf644;" horiz-adv-x="530" 
d="M366 0h-85v412h-2l-186 -84l-15 65l215 93h73v-486z" />
    <glyph glyph-name="two.taboldstyle" unicode="&#xf645;" horiz-adv-x="530" 
d="M462 0h-396v48l49 34c150 99 224 166 224 246c0 65 -45 96 -108 96c-51 0 -101 -23 -135 -48l-24 57c36 27 101 62 182 62c101 0 173 -57 173 -155c0 -92 -72 -160 -177 -234l-51 -37v-3c25 3 56 4 82 4h181v-70z" />
    <glyph glyph-name="three.taboldstyle" unicode="&#xf646;" horiz-adv-x="530" 
d="M62 -96l10 65c25 -9 67 -16 109 -16c99 0 169 48 169 121c0 63 -60 102 -152 102c-22 0 -42 -1 -55 -2l-2 64l19 2c94 7 164 43 164 105c0 54 -41 81 -105 81c-51 0 -100 -22 -124 -35l-18 59c31 21 95 45 161 45c101 0 173 -51 173 -135c0 -68 -50 -118 -118 -138v-3
c79 -11 147 -59 147 -144c0 -115 -116 -191 -251 -191c-52 0 -105 10 -127 20z" />
    <glyph glyph-name="four.taboldstyle" unicode="&#xf647;" horiz-adv-x="530" 
d="M497 50h-91v-165h-82v165h-292v57l279 384h95v-374h91v-67zM324 117v200c0 33 0 63 3 94l-4 1c-16 -32 -35 -65 -54 -94l-150 -198l2 -3h203z" />
    <glyph glyph-name="five.taboldstyle" unicode="&#xf648;" horiz-adv-x="530" 
d="M78 -98l11 63c23 -7 64 -13 102 -13c85 0 164 45 164 129c0 29 -11 54 -31 73c-39 39 -118 51 -227 43l51 287h287l-11 -72h-217l-29 -150c82 2 167 -10 220 -61c30 -29 46 -70 46 -113c0 -123 -103 -204 -252 -204c-44 0 -89 8 -114 18z" />
    <glyph glyph-name="six.taboldstyle" unicode="&#xf649;" horiz-adv-x="530" 
d="M441 606l6 -65c-180 -11 -274 -106 -297 -220h3c26 36 77 73 147 73c101 0 186 -73 186 -192c0 -134 -104 -213 -208 -213c-133 0 -222 99 -222 246c0 207 146 358 385 371zM278 56c60 0 121 47 121 142c0 82 -49 133 -121 133c-46 0 -82 -23 -101 -43
c-25 -25 -32 -49 -32 -82c0 -81 52 -150 133 -150z" />
    <glyph glyph-name="seven.taboldstyle" unicode="&#xf64a;" horiz-adv-x="530" 
d="M454 484v-56c-62 -163 -182 -387 -283 -543l-82 15c82 119 222 369 275 509v2h-297v73h387z" />
    <glyph glyph-name="eight.taboldstyle" unicode="&#xf64b;" horiz-adv-x="530" 
d="M350 320v-3c76 -27 129 -80 129 -151c0 -108 -98 -177 -218 -177c-127 0 -213 69 -213 166c0 73 51 125 125 158v3c-57 24 -101 66 -101 129c0 96 86 162 197 162c112 0 187 -67 187 -151c0 -58 -35 -102 -106 -136zM268 547c-61 0 -111 -37 -111 -95
c0 -54 45 -88 120 -108c53 16 96 52 96 108c0 63 -51 95 -105 95zM262 52c71 0 127 43 127 106s-51 105 -142 129c-66 -22 -111 -68 -111 -123c0 -65 48 -112 126 -112z" />
    <glyph glyph-name="nine.taboldstyle" unicode="&#xf64c;" horiz-adv-x="530" 
d="M89 -116l-6 65c171 7 271 91 299 209h-2c-20 -33 -75 -67 -143 -67c-101 0 -187 71 -187 191c0 121 95 213 216 213c119 0 213 -87 213 -240c0 -218 -150 -362 -390 -371zM259 153c51 0 98 30 117 65c10 13 16 35 16 60c0 90 -59 149 -129 149c-61 0 -126 -45 -126 -139
c0 -92 57 -135 122 -135z" />
    <glyph glyph-name="dollar.taboldstyle" unicode="&#xf653;" horiz-adv-x="530" 
d="M295 -81h-57v80c-54 1 -114 17 -148 39l24 61c29 -20 86 -36 134 -36c58 0 106 27 106 71c0 40 -29 60 -100 84c-103 35 -153 70 -153 138c0 66 58 116 143 126v86h57v-83c54 -2 99 -18 124 -32l-24 -60c-23 14 -68 30 -116 30c-54 0 -96 -24 -96 -61
c0 -36 23 -54 109 -83c100 -32 146 -75 146 -140c0 -63 -53 -124 -149 -138v-82z" />
    <glyph glyph-name="cent.taboldstyle" unicode="&#xf654;" horiz-adv-x="530" 
d="M403 129l14 -59c-17 -9 -56 -22 -100 -24v-72h-55v73c-108 12 -181 83 -181 197c0 108 73 189 181 205v68h55v-66c40 0 78 -11 98 -20l-16 -60c-20 11 -53 18 -94 18c-84 0 -140 -57 -140 -141c0 -91 61 -139 136 -139c47 0 81 11 102 20z" />
    <glyph glyph-name="Euro.taboldstyle" unicode="&#xf64e;" horiz-adv-x="530" 
d="M466 83l12 -61c-23 -15 -76 -33 -137 -33c-66 0 -131 22 -179 70c-30 30 -52 72 -61 119h-63v49h56c-1 11 -2 18 -2 24c0 10 1 22 3 35h-57v48h64c11 46 33 87 63 117c51 51 120 75 189 75c59 0 97 -15 123 -28l-20 -62c-23 12 -56 24 -104 24c-44 0 -88 -14 -123 -48
c-20 -20 -36 -47 -41 -78h249v-48h-259c-1 -11 -2 -22 -2 -29c0 -9 0 -18 1 -30h260v-49h-250c7 -29 21 -54 39 -72c36 -35 76 -49 126 -49c49 0 90 14 113 26z" />
    <glyph glyph-name="florin.taboldstyle" unicode="&#xf64f;" horiz-adv-x="530" 
d="M128 282v58h99l6 53c12 99 57 215 191 214c30 0 55 -8 69 -15l-17 -64c-15 5 -31 10 -52 10c-68 0 -98 -65 -106 -139l-7 -59h121v-58h-128l-22 -182c-15 -129 -56 -218 -174 -217c-33 0 -61 7 -77 16l16 63c17 -8 35 -11 56 -12c61 1 85 55 97 158l20 174h-92z" />
    <glyph glyph-name="sterling.taboldstyle" unicode="&#xf651;" horiz-adv-x="530" 
d="M479 0h-416v50c66 28 107 74 107 127c0 15 -1 30 -4 45h-97v55h86c-4 21 -8 42 -8 62c0 115 77 194 192 194c50 0 87 -12 109 -25l-19 -65c-18 11 -50 21 -90 21c-73 0 -109 -49 -109 -126c0 -21 3 -42 7 -61h149v-55h-138c1 -11 2 -23 2 -33c-1 -52 -27 -92 -63 -116v-2
h292v-71z" />
    <glyph glyph-name="yen.taboldstyle" unicode="&#xf652;" horiz-adv-x="530" 
d="M304 0h-82v115h-153v49h153v60h-153v49h128l-150 242h94l85 -154c16 -30 29 -54 39 -78h3c11 25 26 52 42 80l90 152h91l-160 -242h127v-49h-154v-60h154v-49h-154v-115z" />
    <glyph glyph-name="numbersign.taboldstyle" unicode="&#xf650;" horiz-adv-x="530" 
d="M205 226h104l18 145h-103zM174 -3h-60l22 170h-82v59h91l19 145h-86v59h95l22 165h59l-22 -165h104l22 165h59l-21 -165h82v-59h-91l-18 -145h86v-59h-95l-23 -170h-60l23 170h-104z" />
    <glyph glyph-name="zero.superior" unicode="&#x2070;" horiz-adv-x="336" 
d="M166 438c-88 0 -143 74 -143 199c0 124 57 201 147 201c92 0 143 -76 143 -198s-49 -202 -147 -202zM167 488c50 0 76 56 76 151c0 93 -25 148 -75 148c-45 0 -75 -55 -75 -148c0 -96 29 -151 74 -151z" />
    <glyph glyph-name="one.superior" horiz-adv-x="244" 
d="M177 443h-70v328h-2l-72 -34l-11 52l94 44h61v-390z" />
    <glyph glyph-name="two.superior" horiz-adv-x="311" 
d="M12 443v37l63 58c83 76 126 123 126 174c0 38 -24 69 -76 69c-35 0 -65 -17 -84 -31l-21 46c27 22 72 42 122 42c94 0 133 -60 133 -113c0 -76 -57 -131 -133 -197l-31 -28v-2h171v-55h-270z" />
    <glyph glyph-name="three.superior" horiz-adv-x="305" 
d="M45 759l-17 47c23 15 66 32 115 32c86 0 122 -46 122 -95c0 -40 -29 -73 -77 -90v-2c55 -7 93 -46 93 -96c0 -62 -56 -117 -158 -117c-48 0 -92 12 -114 27l18 50c16 -10 55 -26 93 -26c61 0 88 36 87 67c0 51 -53 71 -106 71h-27v46h28c37 0 90 17 91 63
c0 25 -18 50 -63 50c-36 0 -69 -16 -85 -27z" />
    <glyph glyph-name="four.superior" unicode="&#x2074;" horiz-adv-x="347" 
d="M272 443h-67v102h-189v41l177 249h79v-240h56v-50h-56v-102zM205 595v117c0 22 2 44 3 63l-2 1c-12 -24 -22 -41 -34 -59l-87 -121l1 -1h119z" />
    <glyph glyph-name="five.superior" unicode="&#x2075;" horiz-adv-x="308" 
d="M268 833v-56h-155l-13 -84c8 1 18 1 31 1c33 0 66 -6 92 -22c31 -17 56 -51 56 -100c0 -77 -63 -134 -156 -134c-43 0 -84 12 -104 23l14 50c17 -9 51 -21 89 -21c45 0 88 28 88 76c0 46 -32 79 -113 79c-23 0 -42 -2 -57 -4l26 192h202z" />
    <glyph glyph-name="six.superior" unicode="&#x2076;" horiz-adv-x="332" 
d="M267 837v-53c-11 0 -26 1 -40 -1c-80 -11 -125 -63 -135 -123h1c19 22 52 42 94 42c72 0 122 -50 122 -126s-58 -138 -138 -138c-93 0 -148 69 -148 167c0 74 27 134 68 172c34 34 80 52 136 58c16 1 30 2 40 2zM170 488c42 0 71 36 71 84c0 49 -29 82 -76 82
c-31 0 -58 -20 -71 -45c-3 -6 -5 -13 -5 -22c0 -54 28 -99 81 -99z" />
    <glyph glyph-name="seven.superior" unicode="&#x2077;" horiz-adv-x="294" 
d="M19 833h263v-43l-171 -347h-71l171 334v1h-192v55z" />
    <glyph glyph-name="eight.superior" unicode="&#x2078;" horiz-adv-x="328" 
d="M167 838c82 0 122 -48 122 -97c0 -34 -18 -69 -63 -89v-2c45 -17 78 -50 78 -98c0 -68 -59 -114 -142 -114c-90 0 -138 51 -138 105c0 48 29 81 76 101v2c-42 19 -62 52 -62 86c0 63 56 106 129 106zM164 485c44 0 72 27 72 62c0 44 -32 64 -79 76
c-42 -11 -66 -38 -66 -72c0 -35 27 -66 73 -66zM165 791c-42 0 -64 -26 -64 -55c0 -35 27 -55 70 -66c31 10 55 31 55 64c0 28 -18 57 -61 57z" />
    <glyph glyph-name="nine.superior" unicode="&#x2079;" horiz-adv-x="327" 
d="M58 438v53c11 -1 26 -1 42 1c31 3 61 14 84 33c26 22 44 52 51 92l-1 1c-21 -24 -51 -39 -90 -39c-71 0 -121 50 -121 120c0 75 58 139 141 139c90 0 140 -70 140 -166c0 -83 -29 -143 -69 -180c-33 -31 -80 -48 -131 -52c-17 -3 -35 -3 -46 -2zM161 787
c-41 0 -71 -36 -71 -85c0 -42 27 -75 71 -75c33 0 58 16 71 37c3 5 4 11 4 20c0 57 -22 103 -75 103z" />
    <glyph glyph-name="period.superior" unicode="&#xf6e8;" horiz-adv-x="131" 
d="M65 438c-26 0 -44 19 -44 45s19 45 45 45s43 -19 43 -45s-17 -45 -44 -45z" />
    <glyph glyph-name="comma.superior" unicode="&#xf6e2;" horiz-adv-x="131" 
d="M48 376l-48 -5c16 44 32 106 39 155l74 6c-16 -56 -43 -120 -65 -156z" />
    <glyph glyph-name="dollar.superior" unicode="&#xf6e4;" horiz-adv-x="317" 
d="M179 392h-45v58c-38 1 -76 12 -99 27l17 51c24 -16 57 -27 93 -27c42 0 69 21 69 51c0 29 -21 46 -68 63c-66 25 -105 52 -105 106c0 51 36 91 96 100v59h45v-56c37 -1 65 -11 83 -21l-16 -49c-13 7 -41 21 -82 21c-46 0 -61 -24 -61 -46c0 -27 20 -40 76 -61
c67 -25 98 -56 98 -111c0 -48 -35 -93 -101 -104v-61z" />
    <glyph glyph-name="cent.superior" unicode="&#xf6e0;" horiz-adv-x="315" 
d="M206 435h-46v59c-40 6 -68 20 -90 44c-21 24 -34 58 -34 100c0 76 46 136 124 149v58h46v-57c25 0 48 -7 64 -14l-13 -50c-13 7 -32 14 -62 14c-56 0 -92 -41 -92 -97c0 -62 41 -96 91 -96c31 0 52 7 67 13l11 -47c-13 -7 -38 -16 -66 -17v-59z" />
    <glyph glyph-name="hyphen.superior" unicode="&#xf6e6;" horiz-adv-x="191" 
d="M18 650h155v-48h-155v48z" />
    <glyph glyph-name="parenleft.superior" unicode="&#x207d;" horiz-adv-x="180" 
d="M117 868h51c-40 -57 -72 -136 -72 -243c0 -106 33 -182 72 -241h-51c-36 49 -77 125 -77 241s41 194 77 243z" />
    <glyph glyph-name="parenright.superior" unicode="&#x207e;" horiz-adv-x="180" 
d="M64 384h-51c39 59 72 136 72 242s-33 184 -72 242h51c36 -48 77 -125 77 -242c0 -115 -41 -192 -77 -242z" />
    <glyph glyph-name="zero.inferior" unicode="&#x2080;" horiz-adv-x="336" 
d="M166 -152c-88 0 -143 75 -143 199s57 201 147 201c92 0 143 -76 143 -197c0 -122 -49 -203 -147 -203zM167 -101c50 0 76 56 76 151c0 93 -25 147 -75 147c-45 0 -75 -54 -75 -147c0 -97 29 -151 74 -151z" />
    <glyph glyph-name="one.inferior" unicode="&#x2081;" horiz-adv-x="244" 
d="M177 -147h-70v329h-2l-72 -35l-11 52l94 44h61v-390z" />
    <glyph glyph-name="two.inferior" unicode="&#x2082;" horiz-adv-x="311" 
d="M12 -147v37l63 59c83 75 126 122 126 173c0 38 -24 70 -76 70c-35 0 -65 -18 -84 -31l-21 45c27 23 72 42 122 42c94 0 133 -59 133 -113c0 -75 -57 -130 -133 -197l-31 -28v-2h171v-55h-270z" />
    <glyph glyph-name="three.inferior" unicode="&#x2083;" horiz-adv-x="305" 
d="M45 170l-17 47c23 15 66 31 115 31c86 0 122 -46 122 -94c0 -40 -29 -74 -77 -90v-2c55 -8 93 -46 93 -97c0 -62 -56 -117 -158 -117c-48 0 -92 13 -114 28l18 50c16 -11 55 -26 93 -26c61 0 88 36 87 67c0 50 -53 70 -106 70h-27v46h28c37 0 90 17 91 64
c0 24 -18 49 -63 49c-36 0 -69 -15 -85 -26z" />
    <glyph glyph-name="four.inferior" unicode="&#x2084;" horiz-adv-x="347" 
d="M272 -147h-67v103h-189v40l177 249h79v-240h56v-49h-56v-103zM205 5v118c0 22 2 43 3 63h-2c-12 -23 -22 -41 -34 -59l-87 -120l1 -2h119z" />
    <glyph glyph-name="five.inferior" unicode="&#x2085;" horiz-adv-x="308" 
d="M268 243v-55h-155l-13 -85c8 1 18 2 31 2c33 0 66 -6 92 -22c31 -17 56 -52 56 -101c0 -77 -63 -134 -156 -134c-43 0 -84 12 -104 24l14 50c17 -10 51 -22 89 -22c45 0 88 29 88 76s-32 80 -113 80c-23 0 -42 -3 -57 -4l26 191h202z" />
    <glyph glyph-name="six.inferior" unicode="&#x2086;" horiz-adv-x="332" 
d="M267 247v-52c-11 0 -26 0 -40 -2c-80 -11 -125 -62 -135 -122h1c19 22 52 41 94 41c72 0 122 -50 122 -125c0 -77 -58 -139 -138 -139c-93 0 -148 70 -148 167c0 74 27 135 68 173c34 33 80 52 136 57c16 2 30 3 40 2zM170 -101c42 0 71 36 71 84c0 49 -29 81 -76 81
c-31 0 -58 -19 -71 -45c-3 -6 -5 -12 -5 -21c0 -54 28 -99 81 -99z" />
    <glyph glyph-name="seven.inferior" unicode="&#x2087;" horiz-adv-x="294" 
d="M19 243h263v-43l-171 -347h-71l171 334v1h-192v55z" />
    <glyph glyph-name="eight.inferior" unicode="&#x2088;" horiz-adv-x="328" 
d="M167 248c82 0 122 -48 122 -97c0 -33 -18 -68 -63 -88v-2c45 -17 78 -50 78 -98c0 -69 -59 -115 -142 -115c-90 0 -138 51 -138 106c0 48 29 80 76 100v2c-42 20 -62 52 -62 87c0 62 56 105 129 105zM164 -105c44 0 72 27 72 63c0 43 -32 63 -79 76
c-42 -12 -66 -39 -66 -72c0 -35 27 -67 73 -67zM165 202c-42 0 -64 -26 -64 -56c0 -35 27 -54 70 -65c31 9 55 31 55 63c0 28 -18 58 -61 58z" />
    <glyph glyph-name="nine.inferior" unicode="&#x2089;" horiz-adv-x="327" 
d="M58 -151v52c11 -1 26 0 42 1c31 4 61 15 84 34c26 21 44 52 51 92h-1c-21 -24 -51 -38 -90 -38c-71 0 -121 50 -121 120c0 74 58 138 141 138c90 0 140 -69 140 -165c0 -83 -29 -143 -69 -180c-33 -31 -80 -48 -131 -53c-17 -2 -35 -2 -46 -1zM161 198
c-41 0 -71 -37 -71 -85c0 -42 27 -75 71 -75c33 0 58 16 71 36c3 5 4 12 4 20c0 57 -22 104 -75 104z" />
    <glyph glyph-name="period.inferior" unicode="&#xf6e7;" horiz-adv-x="131" 
d="M65 -152c-26 0 -44 20 -44 45c0 27 19 45 45 45s43 -18 43 -45c0 -25 -17 -45 -44 -45z" />
    <glyph glyph-name="comma.inferior" unicode="&#xf6e1;" horiz-adv-x="131" 
d="M48 -214l-48 -4c16 43 32 106 39 155l74 5c-16 -55 -43 -120 -65 -156z" />
    <glyph glyph-name="dollar.inferior" unicode="&#xf6e3;" horiz-adv-x="317" 
d="M179 -198h-45v59c-38 0 -76 12 -99 26l17 51c24 -15 57 -27 93 -27c42 0 69 21 69 51s-21 46 -68 64c-66 24 -105 51 -105 106c0 51 36 90 96 100v59h45v-56c37 -1 65 -12 83 -22l-16 -49c-13 8 -41 22 -82 22c-46 0 -61 -24 -61 -46c0 -27 20 -41 76 -62
c67 -24 98 -56 98 -110c0 -49 -35 -94 -101 -105v-61z" />
    <glyph glyph-name="cent.inferior" unicode="&#xf6df;" horiz-adv-x="315" 
d="M206 -155h-46v60c-40 5 -68 20 -90 44c-21 23 -34 58 -34 99c0 76 46 137 124 149v59h46v-57c25 0 48 -7 64 -15l-13 -49c-13 6 -32 14 -62 14c-56 0 -92 -42 -92 -97c0 -63 41 -97 91 -97c31 0 52 7 67 13l11 -47c-13 -7 -38 -15 -66 -17v-59z" />
    <glyph glyph-name="hyphen.inferior" unicode="&#xf6e5;" horiz-adv-x="191" 
d="M18 61h155v-48h-155v48z" />
    <glyph glyph-name="parenleft.inferior" unicode="&#x208d;" horiz-adv-x="180" 
d="M117 278h51c-40 -57 -72 -135 -72 -243c0 -106 33 -182 72 -240h-51c-36 48 -77 125 -77 240c0 117 41 195 77 243z" />
    <glyph glyph-name="parenright.inferior" unicode="&#x208e;" horiz-adv-x="180" 
d="M64 -205h-51c39 58 72 135 72 242c0 106 -33 183 -72 241h51c36 -48 77 -125 77 -241s-41 -193 -77 -242z" />
    <glyph glyph-name="zero.numerator" unicode="&#xf661;" horiz-adv-x="336" 
d="M166 261c-88 0 -143 75 -143 199s57 201 147 201c92 0 143 -76 143 -197c0 -122 -49 -203 -147 -203zM167 312c50 0 76 56 76 151c0 93 -25 147 -75 147c-45 0 -75 -54 -75 -147c0 -97 29 -151 74 -151z" />
    <glyph glyph-name="one.numerator" unicode="&#xf662;" horiz-adv-x="244" 
d="M177 266h-70v329h-2l-72 -35l-11 52l94 44h61v-390z" />
    <glyph glyph-name="two.numerator" unicode="&#xf663;" horiz-adv-x="311" 
d="M12 266v37l63 59c83 75 126 122 126 173c0 38 -24 70 -76 70c-35 0 -65 -18 -84 -31l-21 45c27 23 72 42 122 42c94 0 133 -59 133 -113c0 -75 -57 -130 -133 -197l-31 -28v-2h171v-55h-270z" />
    <glyph glyph-name="three.numerator" unicode="&#xf664;" horiz-adv-x="305" 
d="M45 583l-17 47c23 15 66 31 115 31c86 0 122 -46 122 -94c0 -40 -29 -74 -77 -90v-2c55 -8 93 -46 93 -97c0 -62 -56 -117 -158 -117c-48 0 -92 13 -114 28l18 50c16 -11 55 -26 93 -26c61 0 88 36 87 67c0 50 -53 70 -106 70h-27v46h28c37 0 90 17 91 64
c0 24 -18 49 -63 49c-36 0 -69 -15 -85 -26z" />
    <glyph glyph-name="four.numerator" unicode="&#xf665;" horiz-adv-x="347" 
d="M272 266h-67v103h-189v40l177 249h79v-240h56v-49h-56v-103zM205 418v118c0 22 2 43 3 63h-2c-12 -23 -22 -41 -34 -59l-87 -120l1 -2h119z" />
    <glyph glyph-name="five.numerator" unicode="&#xf666;" horiz-adv-x="308" 
d="M268 656v-55h-155l-13 -85c8 1 18 2 31 2c33 0 66 -6 92 -22c31 -17 56 -52 56 -101c0 -77 -63 -134 -156 -134c-43 0 -84 12 -104 24l14 50c17 -10 51 -22 89 -22c45 0 88 29 88 76s-32 80 -113 80c-23 0 -42 -3 -57 -4l26 191h202z" />
    <glyph glyph-name="six.numerator" unicode="&#xf667;" horiz-adv-x="332" 
d="M267 660v-52c-11 0 -26 0 -40 -2c-80 -11 -125 -62 -135 -122h1c19 22 52 41 94 41c72 0 122 -50 122 -125c0 -77 -58 -139 -138 -139c-93 0 -148 70 -148 167c0 74 27 135 68 173c34 33 80 52 136 57c16 2 30 3 40 2zM170 312c42 0 71 36 71 84c0 49 -29 81 -76 81
c-31 0 -58 -19 -71 -45c-3 -6 -5 -12 -5 -21c0 -54 28 -99 81 -99z" />
    <glyph glyph-name="seven.numerator" unicode="&#xf668;" horiz-adv-x="294" 
d="M19 656h263v-43l-171 -347h-71l171 334v1h-192v55z" />
    <glyph glyph-name="eight.numerator" unicode="&#xf669;" horiz-adv-x="328" 
d="M167 661c82 0 122 -48 122 -97c0 -33 -18 -68 -63 -88v-2c45 -17 78 -50 78 -98c0 -69 -59 -115 -142 -115c-90 0 -138 51 -138 106c0 48 29 80 76 100v2c-42 20 -62 52 -62 87c0 62 56 105 129 105zM164 308c44 0 72 27 72 63c0 43 -32 63 -79 76
c-42 -12 -66 -39 -66 -72c0 -35 27 -67 73 -67zM165 615c-42 0 -64 -26 -64 -56c0 -35 27 -54 70 -65c31 9 55 31 55 63c0 28 -18 58 -61 58z" />
    <glyph glyph-name="nine.numerator" unicode="&#xf66a;" horiz-adv-x="327" 
d="M58 262v52c11 -1 26 0 42 1c31 4 61 15 84 34c26 21 44 52 51 92h-1c-21 -24 -51 -38 -90 -38c-71 0 -121 50 -121 120c0 74 58 138 141 138c90 0 140 -69 140 -165c0 -83 -29 -143 -69 -180c-33 -31 -80 -48 -131 -53c-17 -2 -35 -2 -46 -1zM161 611
c-41 0 -71 -37 -71 -85c0 -42 27 -75 71 -75c33 0 58 16 71 36c3 5 4 12 4 20c0 57 -22 104 -75 104z" />
    <glyph glyph-name="period.numerator" unicode="&#xf66c;" horiz-adv-x="131" 
d="M65 261c-26 0 -44 20 -44 45c0 27 19 45 45 45s43 -18 43 -45c0 -25 -17 -45 -44 -45z" />
    <glyph glyph-name="comma.numerator" unicode="&#xf66b;" horiz-adv-x="131" 
d="M48 199l-48 -4c16 43 32 106 39 155l74 5c-16 -55 -43 -120 -65 -156z" />
    <glyph glyph-name="dollar.numerator" unicode="&#xf62f;" horiz-adv-x="317" 
d="M179 215h-45v59c-38 0 -76 12 -99 26l17 51c24 -15 57 -27 93 -27c42 0 69 21 69 51s-21 46 -68 64c-66 24 -105 51 -105 106c0 51 36 90 96 100v59h45v-56c37 -1 65 -12 83 -22l-16 -49c-13 8 -41 22 -82 22c-46 0 -61 -24 -61 -46c0 -27 20 -41 76 -62
c67 -24 98 -56 98 -110c0 -49 -35 -94 -101 -105v-61z" />
    <glyph glyph-name="cent.numerator" unicode="&#xf62e;" horiz-adv-x="315" 
d="M206 258h-46v60c-40 5 -68 20 -90 44c-21 23 -34 58 -34 99c0 76 46 137 124 149v59h46v-57c25 0 48 -7 64 -15l-13 -49c-13 6 -32 14 -62 14c-56 0 -92 -42 -92 -97c0 -63 41 -97 91 -97c31 0 52 7 67 13l11 -47c-13 -7 -38 -15 -66 -17v-59z" />
    <glyph glyph-name="hyphen.numerator" unicode="&#xf630;" horiz-adv-x="191" 
d="M18 474h155v-48h-155v48z" />
    <glyph glyph-name="parenleft.numerator" unicode="&#xf631;" horiz-adv-x="180" 
d="M117 691h51c-40 -57 -72 -135 -72 -243c0 -106 33 -182 72 -240h-51c-36 48 -77 125 -77 240c0 117 41 195 77 243z" />
    <glyph glyph-name="parenright.numerator" unicode="&#xf632;" horiz-adv-x="180" 
d="M64 208h-51c39 58 72 135 72 242c0 106 -33 183 -72 241h51c36 -48 77 -125 77 -241s-41 -193 -77 -242z" />
    <glyph glyph-name="zero.denominator" unicode="&#xf655;" horiz-adv-x="336" 
d="M166 -5c-88 0 -143 75 -143 199s57 201 147 201c92 0 143 -76 143 -197c0 -122 -49 -203 -147 -203zM167 46c50 0 76 56 76 151c0 93 -25 147 -75 147c-45 0 -75 -54 -75 -147c0 -97 29 -151 74 -151z" />
    <glyph glyph-name="one.denominator" unicode="&#xf656;" horiz-adv-x="244" 
d="M177 0h-70v329h-2l-72 -35l-11 52l94 44h61v-390z" />
    <glyph glyph-name="two.denominator" unicode="&#xf657;" horiz-adv-x="311" 
d="M12 0v37l63 59c83 75 126 122 126 173c0 38 -24 70 -76 70c-35 0 -65 -18 -84 -31l-21 45c27 23 72 42 122 42c94 0 133 -59 133 -113c0 -75 -57 -130 -133 -197l-31 -28v-2h171v-55h-270z" />
    <glyph glyph-name="three.denominator" unicode="&#xf658;" horiz-adv-x="305" 
d="M45 317l-17 47c23 15 66 31 115 31c86 0 122 -46 122 -94c0 -40 -29 -74 -77 -90v-2c55 -8 93 -46 93 -97c0 -62 -56 -117 -158 -117c-48 0 -92 13 -114 28l18 50c16 -11 55 -26 93 -26c61 0 88 36 87 67c0 50 -53 70 -106 70h-27v46h28c37 0 90 17 91 64
c0 24 -18 49 -63 49c-36 0 -69 -15 -85 -26z" />
    <glyph glyph-name="four.denominator" unicode="&#xf659;" horiz-adv-x="347" 
d="M272 0h-67v103h-189v40l177 249h79v-240h56v-49h-56v-103zM205 152v118c0 22 2 43 3 63h-2c-12 -23 -22 -41 -34 -59l-87 -120l1 -2h119z" />
    <glyph glyph-name="five.denominator" unicode="&#xf65a;" horiz-adv-x="308" 
d="M268 390v-55h-155l-13 -85c8 1 18 2 31 2c33 0 66 -6 92 -22c31 -17 56 -52 56 -101c0 -77 -63 -134 -156 -134c-43 0 -84 12 -104 24l14 50c17 -10 51 -22 89 -22c45 0 88 29 88 76s-32 80 -113 80c-23 0 -42 -3 -57 -4l26 191h202z" />
    <glyph glyph-name="six.denominator" unicode="&#xf65b;" horiz-adv-x="332" 
d="M267 394v-52c-11 0 -26 0 -40 -2c-80 -11 -125 -62 -135 -122h1c19 22 52 41 94 41c72 0 122 -50 122 -125c0 -77 -58 -139 -138 -139c-93 0 -148 70 -148 167c0 74 27 135 68 173c34 33 80 52 136 57c16 2 30 3 40 2zM170 46c42 0 71 36 71 84c0 49 -29 81 -76 81
c-31 0 -58 -19 -71 -45c-3 -6 -5 -12 -5 -21c0 -54 28 -99 81 -99z" />
    <glyph glyph-name="seven.denominator" unicode="&#xf65c;" horiz-adv-x="294" 
d="M19 390h263v-43l-171 -347h-71l171 334v1h-192v55z" />
    <glyph glyph-name="eight.denominator" unicode="&#xf65d;" horiz-adv-x="328" 
d="M167 395c82 0 122 -48 122 -97c0 -33 -18 -68 -63 -88v-2c45 -17 78 -50 78 -98c0 -69 -59 -115 -142 -115c-90 0 -138 51 -138 106c0 48 29 80 76 100v2c-42 20 -62 52 -62 87c0 62 56 105 129 105zM164 42c44 0 72 27 72 63c0 43 -32 63 -79 76
c-42 -12 -66 -39 -66 -72c0 -35 27 -67 73 -67zM165 349c-42 0 -64 -26 -64 -56c0 -35 27 -54 70 -65c31 9 55 31 55 63c0 28 -18 58 -61 58z" />
    <glyph glyph-name="nine.denominator" unicode="&#xf65e;" horiz-adv-x="327" 
d="M58 -4v52c11 -1 26 0 42 1c31 4 61 15 84 34c26 21 44 52 51 92h-1c-21 -24 -51 -38 -90 -38c-71 0 -121 50 -121 120c0 74 58 138 141 138c90 0 140 -69 140 -165c0 -83 -29 -143 -69 -180c-33 -31 -80 -48 -131 -53c-17 -2 -35 -2 -46 -1zM161 345
c-41 0 -71 -37 -71 -85c0 -42 27 -75 71 -75c33 0 58 16 71 36c3 5 4 12 4 20c0 57 -22 104 -75 104z" />
    <glyph glyph-name="period.denominator" unicode="&#xf660;" horiz-adv-x="131" 
d="M65 -5c-26 0 -44 20 -44 45c0 27 19 45 45 45s43 -18 43 -45c0 -25 -17 -45 -44 -45z" />
    <glyph glyph-name="comma.denominator" unicode="&#xf65f;" horiz-adv-x="131" 
d="M48 -67l-48 -4c16 43 32 106 39 155l74 5c-16 -55 -43 -120 -65 -156z" />
    <glyph glyph-name="dollar.denominator" unicode="&#xf62a;" horiz-adv-x="317" 
d="M179 -51h-45v59c-38 0 -76 12 -99 26l17 51c24 -15 57 -27 93 -27c42 0 69 21 69 51s-21 46 -68 64c-66 24 -105 51 -105 106c0 51 36 90 96 100v59h45v-56c37 -1 65 -12 83 -22l-16 -49c-13 8 -41 22 -82 22c-46 0 -61 -24 -61 -46c0 -27 20 -41 76 -62
c67 -24 98 -56 98 -110c0 -49 -35 -94 -101 -105v-61z" />
    <glyph glyph-name="cent.denominator" unicode="&#xf629;" horiz-adv-x="315" 
d="M206 -8h-46v60c-40 5 -68 20 -90 44c-21 23 -34 58 -34 99c0 76 46 137 124 149v59h46v-57c25 0 48 -7 64 -15l-13 -49c-13 6 -32 14 -62 14c-56 0 -92 -42 -92 -97c0 -63 41 -97 91 -97c31 0 52 7 67 13l11 -47c-13 -7 -38 -15 -66 -17v-59z" />
    <glyph glyph-name="hyphen.denominator" unicode="&#xf62b;" horiz-adv-x="191" 
d="M18 208h155v-48h-155v48z" />
    <glyph glyph-name="parenleft.denominator" unicode="&#xf62c;" horiz-adv-x="180" 
d="M117 425h51c-40 -57 -72 -135 -72 -243c0 -106 33 -182 72 -240h-51c-36 48 -77 125 -77 240c0 117 41 195 77 243z" />
    <glyph glyph-name="parenright.denominator" unicode="&#xf62d;" horiz-adv-x="180" 
d="M64 -58h-51c39 58 72 135 72 242c0 106 -33 183 -72 241h51c36 -48 77 -125 77 -241s-41 -193 -77 -242z" />
    <glyph glyph-name="at.cap" unicode="&#xf633;" horiz-adv-x="737" 
d="M448 348l21 113c-10 3 -27 7 -50 7c-88 0 -159 -83 -159 -180c0 -44 22 -76 66 -76c58 0 111 74 122 136zM508 72l16 -43c-55 -29 -111 -40 -178 -40c-164 0 -303 120 -303 312c0 206 143 384 365 384c174 0 291 -122 291 -289c0 -150 -84 -238 -178 -238
c-40 0 -77 27 -74 88h-4c-35 -59 -81 -88 -141 -88c-58 0 -108 47 -108 126c0 124 98 237 237 237c43 0 81 -9 107 -21l-34 -181c-15 -76 -3 -111 30 -112c51 -1 108 67 108 183c0 145 -87 249 -242 249c-163 0 -300 -129 -300 -332c0 -167 109 -270 257 -270
c57 0 110 12 151 35z" />
    <glyph glyph-name="emdash.cap" unicode="&#xf6bc;" horiz-adv-x="1000" 
d="M30 359h940v-60h-940v60z" />
    <glyph glyph-name="endash.cap" unicode="&#xf6bb;" horiz-adv-x="500" 
d="M30 359h440v-60h-440v60z" />
    <glyph glyph-name="exclamdown.cap" unicode="&#xf6b4;" horiz-adv-x="230" 
d="M164 -3h-97l14 477h68zM116 683c35 0 58 -26 58 -63c0 -34 -23 -61 -59 -61c-35 0 -59 27 -59 61c0 37 25 63 60 63z" />
    <glyph glyph-name="guillemotleft.cap" unicode="&#xf6b6;" horiz-adv-x="419" 
d="M232 511l-134 -184l134 -184h-71l-132 184l132 184h71zM396 511l-134 -184l134 -184h-71l-132 184l132 184h71z" />
    <glyph glyph-name="guillemotright.cap" unicode="&#xf6b7;" horiz-adv-x="419" 
d="M157 327l-134 184h71l133 -184l-133 -184h-70zM320 327l-134 184h71l133 -184l-133 -184h-70z" />
    <glyph glyph-name="guilsinglleft.cap" unicode="&#xf6b8;" horiz-adv-x="255" 
d="M232 511l-134 -184l134 -184h-71l-132 184l132 184h71z" />
    <glyph glyph-name="guilsinglright.cap" unicode="&#xf6b9;" horiz-adv-x="255" 
d="M157 327l-134 184h70l134 -184l-133 -184h-71z" />
    <glyph glyph-name="hyphen.cap" unicode="&#xf6ba;" horiz-adv-x="307" 
d="M30 378h247v-65h-247v65z" />
    <glyph glyph-name="questiondown.cap" unicode="&#xf6b5;" horiz-adv-x="406" 
d="M237 685c36 0 59 -26 59 -63c0 -35 -23 -62 -59 -62s-59 27 -59 62c0 37 24 63 59 63zM197 480h78l3 -26c6 -53 -13 -111 -63 -171c-45 -53 -69 -90 -69 -135c0 -51 31 -85 95 -86c35 0 75 12 101 32l24 -64c-34 -23 -91 -40 -144 -40c-114 0 -167 71 -167 147
c0 67 38 115 87 172c43 52 59 95 56 146z" />
    <glyph glyph-name="braceleft.cap" unicode="&#xf6b2;" horiz-adv-x="284" 
d="M28 302v50c71 1 81 39 81 75c0 27 -4 55 -8 83s-8 56 -8 83c0 92 60 132 145 132h21v-55h-18c-59 0 -79 -32 -79 -87c0 -23 3 -47 7 -71s7 -49 7 -76c1 -64 -27 -96 -72 -107v-2c45 -12 73 -46 72 -110c0 -26 -3 -51 -7 -76c-4 -24 -7 -48 -7 -71c0 -57 23 -88 79 -88h18
v-55h-21c-83 0 -145 37 -145 137c0 27 4 55 8 82s8 55 8 81c0 32 -10 75 -81 75z" />
    <glyph glyph-name="braceright.cap" unicode="&#xf6b3;" horiz-adv-x="284" 
d="M256 352v-50c-71 0 -81 -43 -81 -75c0 -26 4 -54 8 -81s8 -55 8 -82c0 -100 -63 -137 -145 -137h-21v55h17c56 2 80 31 80 88c0 23 -4 47 -7 71c-4 25 -8 50 -8 76c0 64 28 98 72 110v2c-44 11 -72 43 -72 107c0 27 4 52 8 76c3 24 7 48 7 71c0 55 -21 85 -79 87h-18v55
h20c85 0 146 -40 146 -132c0 -27 -4 -55 -8 -83s-8 -56 -8 -83c0 -36 10 -74 81 -75z" />
    <glyph glyph-name="bracketleft.cap" unicode="&#xf6b0;" horiz-adv-x="284" 
d="M265 -73h-183v797h183v-54h-115v-688h115v-55z" />
    <glyph glyph-name="bracketright.cap" unicode="&#xf6b1;" horiz-adv-x="284" 
d="M19 725h183v-798h-183v55h115v689h-115v54z" />
    <glyph glyph-name="parenleft.cap" unicode="&#xf6ae;" horiz-adv-x="284" 
d="M195 734h69c-73 -99 -126 -228 -126 -410c0 -178 55 -305 126 -405h-69c-63 83 -131 211 -131 406c1 196 68 325 131 409z" />
    <glyph glyph-name="parenright.cap" unicode="&#xf6af;" horiz-adv-x="284" 
d="M88 -81h-68c71 99 126 228 126 408s-54 307 -126 407h68c64 -82 131 -211 131 -407s-67 -324 -131 -408z" />
    <glyph glyph-name="periodcentered.cap" unicode="&#xf6bd;" horiz-adv-x="207" 
d="M103 275c-35 0 -60 27 -59 63c0 36 25 63 60 63s58 -26 59 -63c0 -36 -24 -63 -60 -63z" />
    <glyph glyph-name="lessequal" unicode="&#x2264;" horiz-adv-x="596" 
d="M530 99l-464 193v59l464 192v-66l-382 -155v-2l382 -154v-67zM530 0h-462v58h462v-58z" />
    <glyph glyph-name="greaterequal" unicode="&#x2265;" horiz-adv-x="596" 
d="M530 292l-464 -193v67l382 154v2l-382 155v66l464 -192v-59zM528 0h-462v58h462v-58z" />
    <glyph glyph-name="approxequal" unicode="&#x2248;" horiz-adv-x="596" 
d="M533 416l37 -41c-32 -40 -90 -78 -152 -78c-58 0 -96 23 -128 37c-30 12 -64 34 -114 34c-46 0 -91 -31 -118 -59l-35 42c32 38 90 77 153 77c59 0 95 -23 128 -36c30 -13 63 -34 113 -34c46 0 91 32 116 58zM538 218l36 -40c-32 -41 -91 -79 -153 -79
c-57 0 -94 23 -127 36c-30 12 -64 34 -115 34c-44 0 -90 -30 -117 -59l-34 43c31 38 90 76 152 76c59 0 95 -22 128 -36c30 -12 64 -34 113 -34c47 0 92 30 117 59z" />
    <glyph glyph-name="notequal" unicode="&#x2260;" horiz-adv-x="596" 
d="M556 140h-310l-76 -122h-65l79 122h-144v60h182l89 138h-271v60h309l76 122h65l-79 -122h145v-60h-183l-88 -138h271v-60z" />
    <glyph glyph-name="infinity" unicode="&#x221e;" horiz-adv-x="728" 
d="M541 116c-74 0 -129 59 -177 107c-51 -51 -104 -107 -185 -107c-84 0 -144 62 -144 148c0 79 64 148 152 148c74 0 129 -59 177 -107c51 51 104 107 185 107c85 0 144 -62 144 -148c0 -79 -64 -148 -152 -148zM542 176c50 0 88 41 88 88c0 51 -36 88 -85 88
c-57 0 -103 -49 -141 -88c39 -36 80 -88 138 -88zM183 176c57 0 103 49 141 88c-39 36 -80 88 -138 88c-50 0 -88 -41 -88 -88c0 -51 36 -88 85 -88z" />
    <glyph glyph-name="lozenge" unicode="&#x25ca;" horiz-adv-x="522" 
d="M477 325l-182 -356h-69l-181 356l181 355h69zM401 323l-130 267c-4 6 -8 15 -11 23h-2c-2 -8 -6 -17 -10 -23l-128 -264l131 -266c3 -7 8 -16 10 -23h2c3 7 7 16 10 23z" />
    <glyph glyph-name="integral" unicode="&#x222b;" horiz-adv-x="316" 
d="M306 788l-11 -56c-9 2 -20 4 -30 4c-18 0 -35 -7 -46 -22c-20 -25 -30 -69 -30 -158c0 -145 12 -319 12 -470c0 -98 -18 -156 -42 -188c-22 -32 -57 -48 -95 -48c-23 0 -45 4 -54 9l12 58c8 -3 21 -6 35 -6c16 0 32 6 44 21c17 21 31 58 31 154c0 151 -12 329 -12 476
c0 101 16 157 52 196c24 26 55 37 89 37c19 0 35 -3 45 -7z" />
    <glyph glyph-name="partialdiff" unicode="&#x2202;" horiz-adv-x="530" 
d="M86 614l-28 59c33 24 88 53 173 53c138 0 263 -124 263 -354c0 -254 -128 -383 -269 -383c-135 0 -199 104 -199 210c0 136 96 244 219 244c83 0 142 -48 163 -87h1c1 10 1 22 1 33c0 176 -93 265 -187 265c-65 0 -110 -21 -137 -40zM232 61c90 0 154 102 168 216
c-19 49 -72 96 -141 96c-80 0 -145 -74 -145 -172c0 -88 48 -140 118 -140z" />
    <glyph glyph-name="product" unicode="&#x220f;" horiz-adv-x="615" 
d="M605 577h-93v-667h-83v667h-244v-667h-83v667h-93v73h596v-73z" />
    <glyph glyph-name="radical" unicode="&#x221a;" horiz-adv-x="562" 
d="M579 827l-230 -922h-64l-159 428l-75 -32l-19 47l138 58l123 -346c8 -21 15 -45 19 -64h2c3 17 8 43 13 65l186 766h66z" />
    <glyph glyph-name="summation" unicode="&#x2211;" horiz-adv-x="507" 
d="M514 -90h-505v52l251 316l-238 313v59h461v-72h-349v-4l222 -293l-234 -295v-3h392v-73z" />
    <glyph glyph-name="Delta" unicode="&#x2206;" horiz-adv-x="569" 
d="M544 0h-518v49l211 607h98l209 -606v-50zM451 72l-119 347c-16 49 -37 115 -49 158h-3c-9 -35 -27 -97 -43 -144l-123 -361h337z" />
    <glyph glyph-name="Omega" unicode="&#x2126;" horiz-adv-x="705" 
d="M284 0h-254v69h145v4c-67 55 -132 155 -132 285c0 192 135 327 314 327c187 0 304 -141 304 -319c0 -138 -66 -237 -133 -293v-4h147v-69h-253v55c80 55 149 162 149 297c0 123 -73 262 -216 262c-142 0 -221 -131 -221 -263c0 -126 70 -246 150 -296v-55z" />
    <glyph glyph-name="pi" unicode="&#x3c0;" horiz-adv-x="555" 
d="M520 415h-67v-271c0 -79 7 -119 14 -144h-85c-8 15 -15 58 -15 135v280h-159c-4 -127 -33 -335 -68 -415h-84c36 95 64 287 68 415c-39 0 -74 -2 -99 -9l-12 52c22 15 62 26 139 26h378z" />
    <glyph glyph-name="aringacute" unicode="&#x1fb;" horiz-adv-x="482" 
d="M297 834h98l-143 -106h-62zM241 520c-60 0 -101 40 -101 91c0 52 39 94 102 94c60 0 99 -40 99 -94c0 -52 -43 -91 -100 -91zM240 557c32 0 52 25 52 55c0 31 -20 56 -52 56c-31 0 -49 -27 -49 -57c0 -27 20 -54 49 -54zM421 0h-80l-7 61h-3c-27 -38 -79 -72 -148 -72
c-98 0 -148 69 -148 139c0 117 104 181 291 180v10c0 40 -11 112 -110 112c-45 0 -92 -14 -126 -36l-20 58c40 26 98 43 159 43c148 0 184 -101 184 -198v-181c0 -42 2 -83 8 -116zM328 163v84c-96 2 -205 -15 -205 -109c0 -57 38 -84 83 -84c63 0 103 40 117 81
c3 9 5 19 5 28z" />
    <glyph glyph-name="Abreve" unicode="&#x102;" horiz-adv-x="612" 
d="M424 212h-239l-70 -212h-90l229 674h105l230 -674h-93zM203 280h203l-66 194c-15 44 -25 84 -35 123h-2c-10 -40 -21 -81 -34 -122zM181 817h52c6 -23 23 -49 72 -49s68 23 73 49h51c-1 -59 -39 -106 -125 -106c-85 0 -121 47 -123 106z" />
    <glyph glyph-name="Amacron" unicode="&#x100;" horiz-adv-x="612" 
d="M424 212h-239l-70 -212h-90l229 674h105l230 -674h-93zM203 280h203l-66 194c-15 44 -25 84 -35 123h-2c-10 -40 -21 -81 -34 -122zM185 788h239v-55h-239v55z" />
    <glyph glyph-name="Aogonek" unicode="&#x104;" horiz-adv-x="612" 
d="M359 674l230 -674h-34c-16 -16 -55 -59 -55 -95c0 -33 21 -52 51 -52c17 0 33 4 45 10l14 -45c-21 -16 -56 -23 -81 -23c-56 0 -93 30 -93 86c0 49 35 96 59 123l-71 208h-239l-70 -212h-90l229 674h105zM203 280h203l-66 194c-15 44 -25 84 -35 123h-2
c-10 -40 -21 -81 -34 -122z" />
    <glyph glyph-name="i.dot" horiz-adv-x="234" 
d="M161 0h-88v484h88v-484zM117 675c33 0 54 -24 54 -55c1 -30 -21 -54 -56 -54c-31 0 -53 24 -53 54c0 31 23 55 55 55z" />
    <glyph glyph-name="Cacute" unicode="&#x106;" horiz-adv-x="580" 
d="M529 91l18 -69c-32 -16 -96 -32 -178 -32c-190 0 -333 120 -333 341c0 211 143 354 352 354c84 0 137 -18 160 -30l-21 -71c-33 16 -80 28 -136 28c-158 0 -263 -101 -263 -278c0 -165 95 -271 259 -271c53 0 107 11 142 28zM400 829h106l-127 -117h-71z" />
    <glyph glyph-name="Ccaron" unicode="&#x10c;" horiz-adv-x="580" 
d="M529 91l18 -69c-32 -16 -96 -32 -178 -32c-190 0 -333 120 -333 341c0 211 143 354 352 354c84 0 137 -18 160 -30l-21 -71c-33 16 -80 28 -136 28c-158 0 -263 -101 -263 -278c0 -165 95 -271 259 -271c53 0 107 11 142 28zM386 713h-67l-104 114h73l64 -70h2l63 70h72z
" />
    <glyph glyph-name="Ccircumflex" unicode="&#x108;" horiz-adv-x="580" 
d="M529 91l18 -69c-32 -16 -96 -32 -178 -32c-190 0 -333 120 -333 341c0 211 143 354 352 354c84 0 137 -18 160 -30l-21 -71c-33 16 -80 28 -136 28c-158 0 -263 -101 -263 -278c0 -165 95 -271 259 -271c53 0 107 11 142 28zM314 828h67l105 -114h-74l-63 69h-2l-64 -69
h-72z" />
    <glyph glyph-name="Cdotaccent" unicode="&#x10a;" horiz-adv-x="580" 
d="M529 91l18 -69c-32 -16 -96 -32 -178 -32c-190 0 -333 120 -333 341c0 211 143 354 352 354c84 0 137 -18 160 -30l-21 -71c-33 16 -80 28 -136 28c-158 0 -263 -101 -263 -278c0 -165 95 -271 259 -271c53 0 107 11 142 28zM348 720c-28 0 -50 24 -50 50s22 50 51 50
c27 0 48 -24 48 -50s-21 -50 -49 -50z" />
    <glyph glyph-name="Dcaron" unicode="&#x10e;" horiz-adv-x="666" 
d="M76 2v663c53 8 116 14 185 14c125 0 214 -29 273 -84c60 -55 95 -133 95 -242c0 -110 -34 -200 -97 -262c-63 -63 -167 -97 -298 -97c-62 0 -114 3 -158 8zM163 601v-532c22 -4 54 -5 88 -5c186 0 287 104 287 286c1 159 -89 260 -273 260c-45 0 -79 -4 -102 -9zM342 712
h-67l-105 114h74l64 -69h2l63 69h72z" />
    <glyph glyph-name="Ebreve" unicode="&#x114;" horiz-adv-x="492" 
d="M425 388v-72h-262v-243h292v-73h-379v674h364v-73h-277v-213h262zM130 825h52c6 -23 23 -49 72 -49s68 23 73 49h51c-1 -59 -39 -106 -125 -106c-85 0 -121 47 -123 106z" />
    <glyph glyph-name="Ecaron" unicode="&#x11a;" horiz-adv-x="492" 
d="M425 388v-72h-262v-243h292v-73h-379v674h364v-73h-277v-213h262zM291 710h-67l-105 114h74l64 -69h2l63 69h71z" />
    <glyph glyph-name="Edotaccent" unicode="&#x116;" horiz-adv-x="492" 
d="M425 388v-72h-262v-243h292v-73h-379v674h364v-73h-277v-213h262zM251 721c-29 0 -50 25 -50 51s22 50 50 50c27 0 48 -24 48 -50s-21 -51 -48 -51z" />
    <glyph glyph-name="Emacron" unicode="&#x112;" horiz-adv-x="492" 
d="M425 388v-72h-262v-243h292v-73h-379v674h364v-73h-277v-213h262zM139 788h240v-55h-240v55z" />
    <glyph glyph-name="Eogonek" unicode="&#x118;" horiz-adv-x="492" 
d="M447 -138l13 -47c-23 -14 -50 -21 -80 -21c-57 0 -92 29 -92 81c0 54 44 101 80 125h-292v674h364v-73h-277v-213h262v-72h-262v-243h292v-73h-15c-42 -27 -83 -69 -83 -106c0 -26 19 -40 46 -40c15 0 29 2 44 8z" />
    <glyph glyph-name="Gbreve" unicode="&#x11e;" horiz-adv-x="646" 
d="M589 354v-324c-39 -14 -116 -37 -207 -37c-102 0 -186 26 -252 89c-58 56 -94 146 -94 251c1 201 139 348 365 348c78 0 139 -17 168 -31l-21 -71c-36 16 -81 29 -149 29c-164 0 -271 -102 -271 -271c0 -171 103 -272 260 -272c57 0 96 8 116 18v201h-137v70h222z
M231 827h52c5 -23 23 -49 72 -49c48 0 67 23 72 49h51c-1 -59 -39 -106 -125 -106c-85 0 -121 46 -122 106z" />
    <glyph glyph-name="Gcircumflex" unicode="&#x11c;" horiz-adv-x="646" 
d="M589 354v-324c-39 -14 -116 -37 -207 -37c-102 0 -186 26 -252 89c-58 56 -94 146 -94 251c1 201 139 348 365 348c78 0 139 -17 168 -31l-21 -71c-36 16 -81 29 -149 29c-164 0 -271 -102 -271 -271c0 -171 103 -272 260 -272c57 0 96 8 116 18v201h-137v70h222z
M326 827h67l105 -114h-74l-64 69h-2l-63 -69h-72z" />
    <glyph glyph-name="Gcommaaccent" unicode="&#x122;" horiz-adv-x="646" 
d="M589 354v-324c-39 -14 -116 -37 -207 -37c-102 0 -186 26 -252 89c-58 56 -94 146 -94 251c1 201 139 348 365 348c78 0 139 -17 168 -31l-21 -71c-36 16 -81 29 -149 29c-164 0 -271 -102 -271 -271c0 -171 103 -272 260 -272c57 0 96 8 116 18v201h-137v70h222z
M298 -222l-17 41c38 7 75 26 75 66c0 23 -17 46 -34 60l65 14c20 -13 39 -40 39 -73c0 -74 -67 -104 -128 -108z" />
    <glyph glyph-name="Gdotaccent" unicode="&#x120;" horiz-adv-x="646" 
d="M589 354v-324c-39 -14 -116 -37 -207 -37c-102 0 -186 26 -252 89c-58 56 -94 146 -94 251c1 201 139 348 365 348c78 0 139 -17 168 -31l-21 -71c-36 16 -81 29 -149 29c-164 0 -271 -102 -271 -271c0 -171 103 -272 260 -272c57 0 96 8 116 18v201h-137v70h222z
M362 720c-29 0 -50 24 -50 50s22 50 50 50s48 -24 48 -50s-20 -50 -48 -50z" />
    <glyph glyph-name="G_tildecomb" unicode="&#xe000;" horiz-adv-x="646" 
d="M589 354v-324c-39 -14 -116 -37 -207 -37c-102 0 -186 26 -252 89c-58 56 -94 146 -94 251c1 201 139 348 365 348c78 0 139 -17 168 -31l-21 -71c-36 16 -81 29 -149 29c-164 0 -271 -102 -271 -271c0 -171 103 -272 260 -272c57 0 96 8 116 18v201h-137v70h222z
M291 715h-47c-1 61 25 102 68 102c22 0 39 -9 60 -20c16 -9 32 -18 47 -18c16 0 25 7 27 39h47c1 -63 -21 -97 -68 -97c-21 0 -39 8 -61 19c-19 10 -32 19 -47 19c-16 0 -23 -17 -26 -44z" />
    <glyph glyph-name="Hcircumflex" unicode="&#x124;" horiz-adv-x="652" 
d="M76 674h87v-282h326v282h88v-674h-88v316h-326v-316h-87v674zM292 824h67l105 -114h-74l-63 69h-2l-64 -69h-71z" />
    <glyph glyph-name="Ibreve" unicode="&#x12c;" horiz-adv-x="239" 
d="M76 674h87v-674h-87v674zM-4 823h52c5 -23 23 -49 72 -49c48 0 67 23 72 49h51c-1 -59 -38 -106 -124 -106s-122 46 -123 106z" />
    <glyph glyph-name="Idotaccent" unicode="&#x130;" horiz-adv-x="239" 
d="M76 674h87v-674h-87v674zM121 721c-29 0 -50 25 -50 51s22 50 50 50c27 0 48 -24 48 -50s-21 -51 -48 -51z" />
    <glyph glyph-name="Imacron" unicode="&#x12a;" horiz-adv-x="239" 
d="M76 674h87v-674h-87v674zM1 788h239v-55h-239v55z" />
    <glyph glyph-name="Iogonek" unicode="&#x12e;" horiz-adv-x="239" 
d="M163 674v-674h-30c-15 -21 -41 -62 -41 -98c0 -34 22 -52 51 -52c19 0 34 4 45 9l14 -45c-21 -16 -56 -23 -81 -23c-55 0 -93 30 -93 86c0 49 30 96 48 123v674h87z" />
    <glyph glyph-name="Itilde" unicode="&#x128;" horiz-adv-x="239" 
d="M76 674h87v-674h-87v674zM43 715h-47c-2 61 24 102 68 102c22 0 38 -9 59 -20c16 -9 32 -18 48 -18c15 0 24 7 27 39h46c1 -63 -21 -97 -67 -97c-21 0 -39 8 -61 19c-19 10 -33 19 -47 19c-16 0 -24 -17 -26 -44z" />
    <glyph glyph-name="Jcircumflex" unicode="&#x134;" horiz-adv-x="370" 
d="M214 230v444h87v-451c0 -179 -88 -234 -204 -234c-32 0 -71 7 -93 16l13 71c18 -7 44 -13 73 -13c78 0 124 35 124 167zM219 824h67l105 -114h-74l-63 69h-2l-64 -69h-71z" />
    <glyph glyph-name="Kcommaaccent" unicode="&#x136;" horiz-adv-x="542" 
d="M76 0v674h87v-325h3c18 26 36 50 53 72l206 253h108l-244 -286l263 -388h-103l-222 331l-64 -74v-257h-87zM215 -220l-17 41c39 6 75 26 75 65c0 24 -16 47 -34 61l65 14c20 -13 40 -41 40 -74c0 -73 -67 -103 -129 -107z" />
    <glyph glyph-name="Lacute" unicode="&#x139;" horiz-adv-x="472" 
d="M76 0v674h87v-601h288v-73h-375zM179 827h106l-127 -117h-72z" />
    <glyph glyph-name="Lcaron" unicode="&#x13d;" horiz-adv-x="472" 
d="M76 0v674h87v-601h288v-73h-375zM260 504l-17 41c38 6 75 26 75 65c0 24 -17 46 -34 61l65 14c20 -13 40 -41 40 -74c0 -73 -68 -103 -129 -107z" />
    <glyph glyph-name="Lcommaaccent" unicode="&#x13b;" horiz-adv-x="472" 
d="M76 0v674h87v-601h288v-73h-375zM187 -222l-17 41c39 7 75 26 75 66c0 23 -16 46 -34 60l65 14c20 -13 40 -40 40 -73c0 -74 -67 -104 -129 -108z" />
    <glyph glyph-name="Ldot" unicode="&#x13f;" horiz-adv-x="472" 
d="M76 0v674h87v-601h288v-73h-375zM341 321c-29 0 -50 24 -50 50c0 27 22 50 50 50c27 0 48 -23 48 -50c0 -26 -21 -50 -48 -50z" />
    <glyph glyph-name="M_uni0302" unicode="&#xe001;" horiz-adv-x="804" 
d="M661 0l-17 296c-5 94 -11 207 -10 291h-3c-23 -79 -51 -163 -85 -256l-119 -327h-66l-109 321c-32 95 -59 182 -78 262h-2c-2 -84 -7 -197 -13 -298l-18 -289h-83l47 674h111l115 -326c28 -83 51 -157 68 -227h3c17 68 41 142 71 227l120 326h111l42 -674h-85zM367 824
h67l105 -114h-74l-63 69h-2l-64 -69h-72z" />
    <glyph glyph-name="Nacute" unicode="&#x143;" horiz-adv-x="658" 
d="M158 0h-82v674h95l216 -341c50 -79 89 -150 121 -219l2 1c-8 90 -10 172 -10 277v282h82v-674h-88l-214 342c-47 75 -92 152 -126 225l-3 -1c5 -85 7 -166 7 -278v-288zM370 827h107l-128 -117h-71z" />
    <glyph glyph-name="Ncaron" unicode="&#x147;" horiz-adv-x="658" 
d="M158 0h-82v674h95l216 -341c50 -79 89 -150 121 -219l2 1c-8 90 -10 172 -10 277v282h82v-674h-88l-214 342c-47 75 -92 152 -126 225l-3 -1c5 -85 7 -166 7 -278v-288zM364 705h-67l-104 114h73l65 -70h2l63 70h71z" />
    <glyph glyph-name="N_uni0302" unicode="&#xe002;" horiz-adv-x="658" 
d="M158 0h-82v674h95l216 -341c50 -79 89 -150 121 -219l2 1c-8 90 -10 172 -10 277v282h82v-674h-88l-214 342c-47 75 -92 152 -126 225l-3 -1c5 -85 7 -166 7 -278v-288zM295 824h67l104 -114h-73l-64 69h-2l-64 -69h-71z" />
    <glyph glyph-name="Ncommaaccent" unicode="&#x145;" horiz-adv-x="658" 
d="M158 0h-82v674h95l216 -341c50 -79 89 -150 121 -219l2 1c-8 90 -10 172 -10 277v282h82v-674h-88l-214 342c-47 75 -92 152 -126 225l-3 -1c5 -85 7 -166 7 -278v-288zM270 -221l-17 41c38 6 75 26 75 65c0 24 -17 47 -34 61l65 14c20 -13 39 -41 39 -74
c0 -73 -67 -103 -128 -107z" />
    <glyph glyph-name="Obreve" unicode="&#x14e;" horiz-adv-x="689" 
d="M349 685c184 0 303 -141 303 -341c0 -232 -141 -355 -313 -355c-178 0 -303 138 -303 342c0 214 133 354 313 354zM345 614c-144 0 -216 -133 -216 -281c0 -144 78 -273 215 -273c138 0 216 127 216 280c0 134 -70 274 -215 274zM220 830h52c5 -23 23 -49 72 -49
c48 0 67 23 72 49h51c-1 -59 -38 -106 -124 -106s-122 47 -123 106z" />
    <glyph glyph-name="Ohungarumlaut" unicode="&#x150;" horiz-adv-x="689" 
d="M349 685c184 0 303 -141 303 -341c0 -232 -141 -355 -313 -355c-178 0 -303 138 -303 342c0 214 133 354 313 354zM345 614c-144 0 -216 -133 -216 -281c0 -144 78 -273 215 -273c138 0 216 127 216 280c0 134 -70 274 -215 274zM318 830h96l-112 -112h-64zM466 830h95
l-111 -112h-64z" />
    <glyph glyph-name="Omacron" unicode="&#x14c;" horiz-adv-x="689" 
d="M349 685c184 0 303 -141 303 -341c0 -232 -141 -355 -313 -355c-178 0 -303 138 -303 342c0 214 133 354 313 354zM345 614c-144 0 -216 -133 -216 -281c0 -144 78 -273 215 -273c138 0 216 127 216 280c0 134 -70 274 -215 274zM225 794h240v-55h-240v55z" />
    <glyph glyph-name="Oslashacute" unicode="&#x1fe;" horiz-adv-x="689" 
d="M112 -43l-49 39l62 88c-56 60 -89 149 -89 249c0 213 135 352 311 352c62 0 120 -18 168 -53l59 81l53 -36l-62 -86c56 -61 87 -149 87 -248c0 -235 -145 -354 -306 -354c-64 0 -123 19 -171 54zM176 158l296 410c-34 29 -76 47 -126 47c-147 0 -221 -136 -221 -277
c0 -75 20 -129 50 -181zM513 515l-295 -408c33 -31 72 -48 126 -48c141 0 219 129 219 281c0 57 -12 118 -47 175h-3zM392 835h106l-127 -117h-72z" />
    <glyph glyph-name="Racute" unicode="&#x154;" horiz-adv-x="538" 
d="M76 0v665c44 9 107 14 167 14c93 0 153 -17 195 -55c34 -30 53 -76 53 -128c0 -89 -56 -148 -127 -172v-3c52 -18 83 -66 99 -136c22 -94 38 -159 52 -185h-90c-11 19 -26 77 -45 161c-20 93 -56 128 -135 131h-82v-292h-87zM163 604v-246h89c93 0 152 51 152 128
c0 87 -63 125 -155 126c-42 0 -72 -4 -86 -8zM302 829h106l-128 -116h-71z" />
    <glyph glyph-name="Rcaron" unicode="&#x158;" horiz-adv-x="538" 
d="M76 0v665c44 9 107 14 167 14c93 0 153 -17 195 -55c34 -30 53 -76 53 -128c0 -89 -56 -148 -127 -172v-3c52 -18 83 -66 99 -136c22 -94 38 -159 52 -185h-90c-11 19 -26 77 -45 161c-20 93 -56 128 -135 131h-82v-292h-87zM163 604v-246h89c93 0 152 51 152 128
c0 87 -63 125 -155 126c-42 0 -72 -4 -86 -8zM297 713h-67l-104 114h73l64 -70h2l64 70h71z" />
    <glyph glyph-name="Rcommaaccent" unicode="&#x156;" horiz-adv-x="538" 
d="M76 0v665c44 9 107 14 167 14c93 0 153 -17 195 -55c34 -30 53 -76 53 -128c0 -89 -56 -148 -127 -172v-3c52 -18 83 -66 99 -136c22 -94 38 -159 52 -185h-90c-11 19 -26 77 -45 161c-20 93 -56 128 -135 131h-82v-292h-87zM163 604v-246h89c93 0 152 51 152 128
c0 87 -63 125 -155 126c-42 0 -72 -4 -86 -8zM212 -215l-17 41c38 7 75 26 75 66c0 23 -17 46 -34 60l65 14c20 -13 39 -40 39 -73c0 -74 -67 -104 -128 -108z" />
    <glyph glyph-name="Sacute" unicode="&#x15a;" horiz-adv-x="493" 
d="M42 33l22 73c39 -24 96 -44 156 -44c89 0 141 47 141 115c0 63 -36 99 -127 134c-110 39 -178 96 -178 191c0 105 87 183 218 183c69 0 119 -16 149 -33l-24 -71c-22 12 -67 32 -128 32c-92 0 -127 -55 -127 -101c0 -63 41 -94 134 -130c114 -44 172 -99 172 -198
c0 -104 -77 -194 -236 -194c-65 0 -136 19 -172 43zM298 829h107l-128 -116h-71z" />
    <glyph glyph-name="Scedilla" unicode="&#x15e;" horiz-adv-x="493" 
d="M42 33l22 73c39 -24 96 -44 156 -44c89 0 141 47 141 115c0 63 -36 99 -127 134c-110 39 -178 96 -178 191c0 105 87 183 218 183c69 0 119 -16 149 -33l-24 -71c-22 12 -67 32 -128 32c-92 0 -127 -55 -127 -101c0 -63 41 -94 134 -130c114 -44 172 -99 172 -198
c0 -89 -57 -168 -175 -189l-28 -45c38 -5 70 -33 70 -70c0 -57 -49 -80 -103 -80c-27 0 -53 7 -70 17l15 43c16 -9 34 -15 55 -15c22 0 42 10 42 32c0 25 -31 37 -78 42l40 71h-7c-58 0 -131 18 -169 43z" />
    <glyph glyph-name="Scircumflex" unicode="&#x15c;" horiz-adv-x="493" 
d="M42 33l22 73c39 -24 96 -44 156 -44c89 0 141 47 141 115c0 63 -36 99 -127 134c-110 39 -178 96 -178 191c0 105 87 183 218 183c69 0 119 -16 149 -33l-24 -71c-22 12 -67 32 -128 32c-92 0 -127 -55 -127 -101c0 -63 41 -94 134 -130c114 -44 172 -99 172 -198
c0 -104 -77 -194 -236 -194c-65 0 -136 19 -172 43zM214 827h67l104 -114h-73l-64 69h-2l-63 -69h-72z" />
    <glyph glyph-name="Scommaaccent" unicode="&#x218;" horiz-adv-x="493" 
d="M42 33l22 73c39 -24 96 -44 156 -44c89 0 141 47 141 115c0 63 -36 99 -127 134c-110 39 -178 96 -178 191c0 105 87 183 218 183c69 0 119 -16 149 -33l-24 -71c-22 12 -67 32 -128 32c-92 0 -127 -55 -127 -101c0 -63 41 -94 134 -130c114 -44 172 -99 172 -198
c0 -104 -77 -194 -236 -194c-65 0 -136 19 -172 43zM185 -222l-16 41c38 7 75 26 75 66c0 23 -17 46 -35 60l66 14c20 -13 39 -40 39 -73c0 -74 -67 -104 -129 -108z" />
    <glyph glyph-name="Tcaron" unicode="&#x164;" horiz-adv-x="497" 
d="M204 0v600h-205v74h499v-74h-206v-600h-88zM282 710h-67l-104 114h73l64 -69h2l63 69h72z" />
    <glyph glyph-name="uni021A" unicode="&#x21a;" horiz-adv-x="497" 
d="M204 0v600h-205v74h499v-74h-206v-600h-88zM180 -222l-17 41c39 7 75 26 75 66c0 23 -16 46 -34 60l65 14c20 -13 40 -40 40 -73c0 -74 -67 -104 -129 -108z" />
    <glyph glyph-name="Ubreve" unicode="&#x16c;" horiz-adv-x="647" 
d="M75 674h88v-399c0 -151 67 -215 157 -215c100 0 164 66 164 215v399h88v-393c0 -207 -109 -292 -255 -292c-138 0 -242 79 -242 288v397zM199 827h52c5 -23 23 -49 72 -49s68 23 73 49h51c-1 -58 -39 -106 -125 -106c-85 0 -121 47 -123 106z" />
    <glyph glyph-name="Uhungarumlaut" unicode="&#x170;" horiz-adv-x="647" 
d="M75 674h88v-399c0 -151 67 -215 157 -215c100 0 164 66 164 215v399h88v-393c0 -207 -109 -292 -255 -292c-138 0 -242 79 -242 288v397zM282 827h96l-111 -112h-64zM430 827h95l-111 -112h-64z" />
    <glyph glyph-name="Umacron" unicode="&#x16a;" horiz-adv-x="647" 
d="M75 674h88v-399c0 -151 67 -215 157 -215c100 0 164 66 164 215v399h88v-393c0 -207 -109 -292 -255 -292c-138 0 -242 79 -242 288v397zM204 788h239v-55h-239v55z" />
    <glyph glyph-name="Uogonek" unicode="&#x172;" horiz-adv-x="647" 
d="M416 -135l13 -45c-21 -15 -55 -24 -82 -24c-56 0 -90 30 -90 80c0 44 30 85 57 114c-2 0 -4 -1 -6 -1c-133 5 -233 83 -233 288v397h88v-399c0 -151 67 -215 157 -215c100 0 164 66 164 215v399h88v-393c0 -172 -77 -260 -186 -282c-27 -25 -61 -65 -61 -101
c0 -28 20 -43 45 -43c16 0 32 4 46 10z" />
    <glyph glyph-name="Uring" unicode="&#x16e;" horiz-adv-x="647" 
d="M75 674h88v-399c0 -151 67 -215 157 -215c100 0 164 66 164 215v399h88v-393c0 -207 -109 -292 -255 -292c-138 0 -242 79 -242 288v397zM324 872c62 0 99 -40 99 -90s-41 -89 -99 -89c-60 0 -100 40 -100 88c0 50 38 91 100 91zM323 836c-30 0 -48 -26 -48 -55
c0 -25 19 -51 48 -51s49 24 49 53s-20 53 -49 53z" />
    <glyph glyph-name="Utilde" unicode="&#x168;" horiz-adv-x="647" 
d="M75 674h88v-399c0 -151 67 -215 157 -215c100 0 164 66 164 215v399h88v-393c0 -207 -109 -292 -255 -292c-138 0 -242 79 -242 288v397zM246 715h-47c-1 61 25 102 68 102c22 0 38 -9 59 -20c17 -9 33 -18 48 -18c16 0 25 7 27 39h47c1 -63 -21 -97 -68 -97
c-21 0 -39 8 -61 19c-19 10 -32 19 -47 19c-16 0 -23 -17 -26 -44z" />
    <glyph glyph-name="Wacute" unicode="&#x1e82;" horiz-adv-x="846" 
d="M277 0h-91l-171 674h92l80 -341c20 -84 38 -168 50 -233h2c11 67 32 147 55 234l90 340h91l82 -342c19 -80 37 -160 47 -231h2c14 74 33 149 54 233l89 340h89l-191 -674h-91l-85 351c-21 86 -35 152 -44 220h-2c-12 -67 -27 -133 -52 -220zM476 827h107l-128 -117h-71z
" />
    <glyph glyph-name="Wcircumflex" unicode="&#x174;" horiz-adv-x="846" 
d="M277 0h-91l-171 674h92l80 -341c20 -84 38 -168 50 -233h2c11 67 32 147 55 234l90 340h91l82 -342c19 -80 37 -160 47 -231h2c14 74 33 149 54 233l89 340h89l-191 -674h-91l-85 351c-21 86 -35 152 -44 220h-2c-12 -67 -27 -133 -52 -220zM390 824h67l105 -114h-73
l-64 69h-2l-64 -69h-71z" />
    <glyph glyph-name="Wdieresis" unicode="&#x1e84;" horiz-adv-x="846" 
d="M277 0h-91l-171 674h92l80 -341c20 -84 38 -168 50 -233h2c11 67 32 147 55 234l90 340h91l82 -342c19 -80 37 -160 47 -231h2c14 74 33 149 54 233l89 340h89l-191 -674h-91l-85 351c-21 86 -35 152 -44 220h-2c-12 -67 -27 -133 -52 -220zM334 721c-29 0 -49 23 -49 51
c0 27 21 50 50 50c27 0 47 -22 47 -50s-19 -51 -48 -51zM519 721c-29 0 -48 23 -48 51c0 27 21 50 49 50s48 -22 48 -50s-19 -51 -49 -51z" />
    <glyph glyph-name="Wgrave" unicode="&#x1e80;" horiz-adv-x="846" 
d="M277 0h-91l-171 674h92l80 -341c20 -84 38 -168 50 -233h2c11 67 32 147 55 234l90 340h91l82 -342c19 -80 37 -160 47 -231h2c14 74 33 149 54 233l89 340h89l-191 -674h-91l-85 351c-21 86 -35 152 -44 220h-2c-12 -67 -27 -133 -52 -220zM273 827h106l93 -116h-72z
" />
    <glyph glyph-name="Ycircumflex" unicode="&#x176;" horiz-adv-x="541" 
d="M314 0h-88v286l-213 388h99l95 -186c26 -51 46 -92 67 -139h2c19 44 42 88 68 139l97 186h99l-226 -387v-287zM237 824h67l104 -114h-73l-64 69h-2l-63 -69h-72z" />
    <glyph glyph-name="Ygrave" unicode="&#x1ef2;" horiz-adv-x="541" 
d="M314 0h-88v286l-213 388h99l95 -186c26 -51 46 -92 67 -139h2c19 44 42 88 68 139l97 186h99l-226 -387v-287zM131 820h107l92 -116h-71z" />
    <glyph glyph-name="uni0232" unicode="&#x232;" horiz-adv-x="541" 
d="M314 0h-88v286l-213 388h99l95 -186c26 -51 46 -92 67 -139h2c19 44 42 88 68 139l97 186h99l-226 -387v-287zM151 788h239v-55h-239v55z" />
    <glyph glyph-name="Zacute" unicode="&#x179;" horiz-adv-x="553" 
d="M30 0v51l374 547v3h-342v73h455v-53l-372 -545v-3h377v-73h-492zM325 827h106l-127 -117h-71z" />
    <glyph glyph-name="Zdotaccent" unicode="&#x17b;" horiz-adv-x="553" 
d="M30 0v51l374 547v3h-342v73h455v-53l-372 -545v-3h377v-73h-492zM281 720c-29 0 -50 24 -50 50c0 27 22 50 50 50s48 -23 48 -50c0 -26 -20 -50 -48 -50z" />
    <glyph glyph-name="AEacute" unicode="&#x1fc;" horiz-adv-x="788" 
d="M89 0h-90l308 674h422v-73h-287l26 -215h251v-72h-240l30 -241h247v-73h-322l-30 238h-207zM226 308h168l-22 194c-4 32 -10 75 -12 109h-4c-12 -32 -28 -70 -43 -106zM488 827h106l-127 -117h-71z" />
    <glyph glyph-name="abreve" unicode="&#x103;" horiz-adv-x="482" 
d="M421 0h-80l-7 61h-3c-27 -38 -79 -72 -148 -72c-98 0 -148 69 -148 139c0 117 104 181 291 180v10c0 40 -11 112 -110 112c-45 0 -92 -14 -126 -36l-20 58c40 26 98 43 159 43c148 0 184 -101 184 -198v-181c0 -42 2 -83 8 -116zM328 163v84c-96 2 -205 -15 -205 -109
c0 -57 38 -84 83 -84c63 0 103 40 117 81c3 9 5 19 5 28zM117 682h52c6 -39 31 -69 72 -69c47 0 69 36 72 69h52c0 -74 -49 -124 -124 -124c-88 0 -124 62 -124 124z" />
    <glyph glyph-name="amacron" unicode="&#x101;" horiz-adv-x="482" 
d="M421 0h-80l-7 61h-3c-27 -38 -79 -72 -148 -72c-98 0 -148 69 -148 139c0 117 104 181 291 180v10c0 40 -11 112 -110 112c-45 0 -92 -14 -126 -36l-20 58c40 26 98 43 159 43c148 0 184 -101 184 -198v-181c0 -42 2 -83 8 -116zM328 163v84c-96 2 -205 -15 -205 -109
c0 -57 38 -84 83 -84c63 0 103 40 117 81c3 9 5 19 5 28zM129 643h225v-57h-225v57z" />
    <glyph glyph-name="aogonek" unicode="&#x105;" horiz-adv-x="482" 
d="M90 394l-20 58c40 26 98 43 159 43c148 0 184 -101 184 -198v-181c0 -45 2 -84 8 -116h-25c-15 -20 -39 -61 -39 -96c0 -34 20 -50 48 -50c19 0 33 4 46 10l14 -46c-23 -17 -56 -24 -83 -24c-51 0 -89 30 -89 85c0 50 30 96 48 124l-7 58h-3c-27 -38 -79 -72 -148 -72
c-98 0 -148 69 -148 139c0 117 104 181 291 180v10c0 40 -11 112 -110 112c-45 0 -92 -14 -126 -36zM328 163v84c-96 2 -205 -15 -205 -109c0 -57 38 -84 83 -84c63 0 103 40 117 81c3 9 5 19 5 28z" />
    <glyph glyph-name="a.superior" horiz-adv-x="346" 
d="M305 266h-60l-6 42h-2c-19 -24 -54 -47 -101 -47c-66 0 -103 43 -103 95c0 72 73 117 201 114v10c0 16 -10 62 -74 62c-32 0 -63 -9 -86 -27l-16 43c29 21 71 33 114 33c100 0 127 -68 127 -140v-107c0 -27 2 -54 6 -78zM235 372v55c-63 1 -136 -10 -136 -67
c0 -33 27 -51 58 -51c30 0 55 17 68 36c6 10 10 20 10 27z" />
    <glyph glyph-name="cacute" unicode="&#x107;" horiz-adv-x="448" 
d="M403 84l15 -66c-23 -12 -74 -28 -139 -28c-146 0 -241 99 -241 247c0 149 102 257 260 257c52 0 98 -13 122 -25l-20 -68c-21 12 -54 23 -102 23c-111 0 -171 -82 -171 -183c0 -112 72 -181 168 -181c50 0 83 13 108 24zM302 693h97l-122 -143h-63z" />
    <glyph glyph-name="ccaron" unicode="&#x10d;" horiz-adv-x="448" 
d="M403 84l15 -66c-23 -12 -74 -28 -139 -28c-146 0 -241 99 -241 247c0 149 102 257 260 257c52 0 98 -13 122 -25l-20 -68c-21 12 -54 23 -102 23c-111 0 -171 -82 -171 -183c0 -112 72 -181 168 -181c50 0 83 13 108 24zM294 550h-64l-95 143h67l59 -95h2l59 95h66z" />
    <glyph glyph-name="ccircumflex" unicode="&#x109;" horiz-adv-x="448" 
d="M403 84l15 -66c-23 -12 -74 -28 -139 -28c-146 0 -241 99 -241 247c0 149 102 257 260 257c52 0 98 -13 122 -25l-20 -68c-21 12 -54 23 -102 23c-111 0 -171 -82 -171 -183c0 -112 72 -181 168 -181c50 0 83 13 108 24zM229 693h61l96 -143h-68l-58 95h-2l-58 -95h-65z
" />
    <glyph glyph-name="cdotaccent" unicode="&#x10b;" horiz-adv-x="448" 
d="M403 84l15 -66c-23 -12 -74 -28 -139 -28c-146 0 -241 99 -241 247c0 149 102 257 260 257c52 0 98 -13 122 -25l-20 -68c-21 12 -54 23 -102 23c-111 0 -171 -82 -171 -183c0 -112 72 -181 168 -181c50 0 83 13 108 24zM265 570c-30 0 -51 24 -51 51c0 29 23 52 51 52
s49 -23 49 -52c0 -27 -20 -51 -49 -51z" />
    <glyph glyph-name="dcaron" unicode="&#x10f;" horiz-adv-x="574" 
d="M403 710h88v-585c0 -43 1 -92 4 -125h-79l-4 84h-2c-27 -54 -86 -95 -165 -95c-117 0 -207 99 -207 246c-1 161 99 260 217 260c74 0 124 -35 146 -74h2v289zM403 203v84c0 11 -1 26 -4 37c-13 56 -61 102 -127 102c-91 0 -145 -80 -145 -187c0 -98 48 -179 143 -179
c59 0 113 39 129 105c3 12 4 24 4 38zM572 522l-37 29c16 19 36 48 36 89c0 25 -14 50 -31 65l63 14c18 -11 36 -40 36 -73c0 -75 -52 -112 -67 -124z" />
    <glyph glyph-name="ebreve" unicode="&#x115;" horiz-adv-x="501" 
d="M462 226h-340c2 -119 78 -168 166 -168c63 0 101 11 134 25l15 -63c-31 -14 -84 -30 -161 -30c-149 0 -238 98 -238 244s86 261 227 261c158 0 200 -139 200 -228c0 -18 -2 -32 -3 -41zM123 289h257c1 56 -23 143 -122 143c-89 0 -128 -82 -135 -143zM129 682h52
c6 -39 31 -69 72 -69c47 0 69 36 72 69h52c0 -74 -49 -124 -124 -124c-88 0 -124 62 -124 124z" />
    <glyph glyph-name="ecaron" unicode="&#x11b;" horiz-adv-x="501" 
d="M462 226h-340c2 -119 78 -168 166 -168c63 0 101 11 134 25l15 -63c-31 -14 -84 -30 -161 -30c-149 0 -238 98 -238 244s86 261 227 261c158 0 200 -139 200 -228c0 -18 -2 -32 -3 -41zM123 289h257c1 56 -23 143 -122 143c-89 0 -128 -82 -135 -143zM285 550h-63
l-96 143h67l59 -95h2l60 95h65z" />
    <glyph glyph-name="edotaccent" unicode="&#x117;" horiz-adv-x="501" 
d="M462 226h-340c2 -119 78 -168 166 -168c63 0 101 11 134 25l15 -63c-31 -14 -84 -30 -161 -30c-149 0 -238 98 -238 244s86 261 227 261c158 0 200 -139 200 -228c0 -18 -2 -32 -3 -41zM123 289h257c1 56 -23 143 -122 143c-89 0 -128 -82 -135 -143zM255 570
c-30 0 -51 24 -51 51c0 29 22 52 51 52c28 0 49 -23 49 -52c0 -27 -20 -51 -49 -51z" />
    <glyph glyph-name="emacron" unicode="&#x113;" horiz-adv-x="501" 
d="M462 226h-340c2 -119 78 -168 166 -168c63 0 101 11 134 25l15 -63c-31 -14 -84 -30 -161 -30c-149 0 -238 98 -238 244s86 261 227 261c158 0 200 -139 200 -228c0 -18 -2 -32 -3 -41zM123 289h257c1 56 -23 143 -122 143c-89 0 -128 -82 -135 -143zM141 643h225v-57
h-225v57z" />
    <glyph glyph-name="eogonek" unicode="&#x119;" horiz-adv-x="501" 
d="M385 -136l14 -45c-22 -16 -51 -24 -81 -24c-54 0 -90 29 -90 79c0 49 41 93 73 116v1c-9 -1 -17 -1 -27 -1c-147 0 -236 99 -236 244c0 146 86 261 227 261c158 0 200 -139 200 -228c0 -18 -2 -32 -3 -41h-340c2 -119 78 -168 166 -168c63 0 101 11 134 25l15 -63
c-15 -7 -37 -14 -46 -17c-39 -17 -94 -66 -94 -107c0 -29 20 -42 41 -42c14 0 33 4 47 10zM123 289h257c1 56 -23 143 -122 143c-89 0 -128 -82 -135 -143z" />
    <glyph glyph-name="gbreve" unicode="&#x11f;" horiz-adv-x="559" 
d="M413 484h77c-2 -35 -4 -74 -4 -133v-281c0 -111 -22 -179 -69 -221c-47 -44 -115 -58 -176 -58c-58 0 -122 14 -161 40l22 67c32 -20 82 -38 142 -38c90 0 156 47 156 169v54h-2c-27 -45 -79 -81 -154 -81c-120 0 -206 102 -206 236c0 164 107 257 218 257
c84 0 130 -44 151 -84h2zM399 206v87c0 15 -1 28 -5 40c-16 51 -59 93 -123 93c-84 0 -144 -71 -144 -183c0 -95 48 -174 143 -174c54 0 103 34 122 90c5 15 7 32 7 47zM148 682h52c6 -39 31 -69 72 -69c47 0 69 36 72 69h52c0 -74 -49 -124 -124 -124
c-88 0 -124 62 -124 124z" />
    <glyph glyph-name="gcircumflex" unicode="&#x11d;" horiz-adv-x="559" 
d="M413 484h77c-2 -35 -4 -74 -4 -133v-281c0 -111 -22 -179 -69 -221c-47 -44 -115 -58 -176 -58c-58 0 -122 14 -161 40l22 67c32 -20 82 -38 142 -38c90 0 156 47 156 169v54h-2c-27 -45 -79 -81 -154 -81c-120 0 -206 102 -206 236c0 164 107 257 218 257
c84 0 130 -44 151 -84h2zM399 206v87c0 15 -1 28 -5 40c-16 51 -59 93 -123 93c-84 0 -144 -71 -144 -183c0 -95 48 -174 143 -174c54 0 103 34 122 90c5 15 7 32 7 47zM248 697h61l96 -144h-68l-58 95h-2l-58 -95h-65z" />
    <glyph glyph-name="gcommaaccent" unicode="&#x123;" horiz-adv-x="559" 
d="M338 709l17 -37c-41 -6 -78 -25 -78 -65c0 -23 17 -44 35 -59l-63 -13c-20 13 -40 40 -40 71c0 71 68 100 129 103zM413 484h77c-2 -35 -4 -74 -4 -133v-281c0 -111 -22 -179 -69 -221c-47 -44 -115 -58 -176 -58c-58 0 -122 14 -161 40l22 67c32 -20 82 -38 142 -38
c90 0 156 47 156 169v54h-2c-27 -45 -79 -81 -154 -81c-120 0 -206 102 -206 236c0 164 107 257 218 257c84 0 130 -44 151 -84h2zM399 206v87c0 15 -1 28 -5 40c-16 51 -59 93 -123 93c-84 0 -144 -71 -144 -183c0 -95 48 -174 143 -174c54 0 103 34 122 90c5 15 7 32 7 47
z" />
    <glyph glyph-name="gdotaccent" unicode="&#x121;" horiz-adv-x="559" 
d="M413 484h77c-2 -35 -4 -74 -4 -133v-281c0 -111 -22 -179 -69 -221c-47 -44 -115 -58 -176 -58c-58 0 -122 14 -161 40l22 67c32 -20 82 -38 142 -38c90 0 156 47 156 169v54h-2c-27 -45 -79 -81 -154 -81c-120 0 -206 102 -206 236c0 164 107 257 218 257
c84 0 130 -44 151 -84h2zM399 206v87c0 15 -1 28 -5 40c-16 51 -59 93 -123 93c-84 0 -144 -71 -144 -183c0 -95 48 -174 143 -174c54 0 103 34 122 90c5 15 7 32 7 47zM279 573c-30 0 -51 24 -51 51c0 29 22 52 51 52c28 0 49 -23 49 -52c0 -27 -20 -51 -49 -51z" />
    <glyph glyph-name="g_tildecomb" unicode="&#xe005;" horiz-adv-x="559" 
d="M401 484h78c-3 -35 -4 -74 -4 -133v-281c0 -111 -23 -179 -69 -221c-48 -44 -116 -58 -177 -58c-58 0 -122 14 -161 40l22 67c32 -20 82 -38 142 -38c90 0 156 47 156 169v54h-2c-26 -45 -79 -81 -154 -81c-120 0 -206 102 -206 236c0 164 107 257 219 257
c84 0 129 -44 151 -84h2zM387 206v87c0 15 -1 28 -5 40c-16 51 -58 93 -123 93c-84 0 -144 -71 -144 -183c0 -95 49 -174 143 -174c55 0 104 34 122 90c5 15 7 32 7 47zM205 567h-48c-2 65 25 104 68 104c21 0 39 -9 62 -22c16 -9 30 -17 42 -17c16 0 25 9 27 43h47
c1 -67 -21 -101 -68 -101c-22 0 -41 9 -61 20c-20 12 -31 18 -43 18c-16 0 -24 -17 -26 -45z" />
    <glyph glyph-name="hcircumflex" unicode="&#x125;" horiz-adv-x="555" 
d="M73 0v710h88v-302h2c14 25 36 47 63 62c26 15 57 25 90 25c65 0 169 -40 169 -207v-288h-88v278c0 78 -29 144 -112 144c-57 0 -102 -40 -118 -88c-5 -12 -6 -25 -6 -42v-292h-88zM87 843h67l105 -114h-74l-64 69h-2l-63 -69h-72z" />
    <glyph glyph-name="ibreve" unicode="&#x12d;" horiz-adv-x="234" 
d="M161 0h-88v484h88v-484zM-4 682h52c6 -39 31 -69 72 -69c47 0 69 36 72 69h52c0 -74 -49 -124 -124 -124c-88 0 -124 62 -124 124z" />
    <glyph glyph-name="imacron" unicode="&#x12b;" horiz-adv-x="234" 
d="M161 0h-88v484h88v-484zM5 643h225v-57h-225v57z" />
    <glyph glyph-name="iogonek" unicode="&#x12f;" horiz-adv-x="234" 
d="M116 570c-33 0 -55 26 -55 56c0 31 23 56 56 56c34 0 56 -25 56 -56c0 -30 -22 -56 -57 -56zM161 484v-484h-30c-15 -21 -42 -62 -42 -98c0 -34 22 -52 51 -52c20 0 34 4 46 9l13 -45c-21 -16 -55 -23 -81 -23c-55 0 -92 30 -92 86c0 49 29 96 47 123v484h88z" />
    <glyph glyph-name="itilde" unicode="&#x129;" horiz-adv-x="234" 
d="M161 0h-88v484h88v-484zM42 567h-48c-2 65 25 104 68 104c22 0 39 -9 62 -22c16 -9 30 -17 42 -17c16 0 26 9 28 43h47c1 -67 -22 -101 -69 -101c-21 0 -40 9 -61 20c-20 12 -31 18 -43 18c-16 0 -24 -17 -26 -45z" />
    <glyph glyph-name="jcircumflex" unicode="&#x135;" horiz-adv-x="243" 
d="M-36 -209l-9 69c40 3 75 14 96 37c24 28 33 66 33 182v405h88v-439c0 -94 -15 -155 -58 -199c-39 -39 -103 -55 -150 -55zM91 686h61l95 -143h-67l-58 95h-2l-58 -95h-65z" />
    <glyph glyph-name="kcommaaccent" unicode="&#x137;" horiz-adv-x="469" 
d="M160 710v-448h2c12 17 29 38 43 55l142 167h106l-187 -199l213 -285h-107l-167 232l-45 -50v-182h-87v710h87zM177 -222l-17 41c39 6 75 26 75 66c0 23 -16 46 -34 60l66 14c20 -13 39 -41 39 -73c0 -74 -67 -104 -129 -108z" />
    <glyph glyph-name="lacute" unicode="&#x13a;" horiz-adv-x="236" 
d="M73 0v710h88v-710h-88zM154 856h106l-127 -117h-72z" />
    <glyph glyph-name="lcaron" unicode="&#x13e;" horiz-adv-x="244" 
d="M240 522l-39 29c16 20 36 48 36 89c0 25 -14 50 -31 65l63 14c17 -11 35 -40 35 -75c0 -73 -49 -109 -64 -122zM73 0v710h88v-710h-88z" />
    <glyph glyph-name="lcommaaccent" unicode="&#x13c;" horiz-adv-x="236" 
d="M73 0v710h88v-710h-88zM52 -222l-17 41c39 6 76 26 76 66c0 23 -17 46 -35 60l66 14c20 -13 39 -41 39 -73c0 -74 -67 -104 -129 -108z" />
    <glyph glyph-name="ldot" unicode="&#x140;" horiz-adv-x="272" 
d="M253 341c-28 0 -48 24 -48 50c0 28 21 50 48 50c26 0 46 -21 46 -50c0 -26 -19 -50 -46 -50zM73 0v710h88v-710h-88z" />
    <glyph glyph-name="m_uni0302" unicode="&#xe006;" horiz-adv-x="834" 
d="M73 0v353c0 50 -1 91 -4 131h77l4 -78h3c27 46 72 89 152 89c66 0 116 -40 137 -97h2c15 27 34 48 54 63c29 22 61 34 107 34c64 0 159 -42 159 -210v-285h-86v274c0 93 -34 149 -105 149c-50 0 -89 -37 -104 -80c-4 -12 -7 -28 -7 -44v-299h-86v290
c0 77 -34 133 -101 133c-55 0 -95 -44 -109 -88c-5 -13 -7 -28 -7 -43v-292h-86zM386 693h61l96 -143h-68l-58 95h-2l-58 -95h-65z" />
    <glyph glyph-name="nacute" unicode="&#x144;" horiz-adv-x="555" 
d="M73 0v353c0 50 -1 91 -4 131h78l5 -80h2c24 46 80 91 160 91c67 0 171 -40 171 -206v-289h-88v279c0 78 -29 143 -112 143c-58 0 -103 -41 -118 -90c-4 -11 -6 -26 -6 -41v-291h-88zM318 693h97l-122 -143h-63z" />
    <glyph glyph-name="ncaron" unicode="&#x148;" horiz-adv-x="555" 
d="M73 0v353c0 50 -1 91 -4 131h78l5 -80h2c24 46 80 91 160 91c67 0 171 -40 171 -206v-289h-88v279c0 78 -29 143 -112 143c-58 0 -103 -41 -118 -90c-4 -11 -6 -26 -6 -41v-291h-88zM310 550h-63l-96 143h67l59 -95h2l59 95h66z" />
    <glyph glyph-name="n_uni0302" unicode="&#xe007;" horiz-adv-x="555" 
d="M246 693h61l96 -143h-68l-58 95h-2l-57 -95h-66zM73 0v353c0 50 -1 91 -4 131h78l5 -80h2c24 46 80 91 160 91c67 0 171 -40 171 -206v-289h-88v279c0 78 -29 143 -112 143c-58 0 -103 -41 -118 -90c-4 -11 -6 -26 -6 -41v-291h-88z" />
    <glyph glyph-name="ncommaaccent" unicode="&#x146;" horiz-adv-x="555" 
d="M73 0v353c0 50 -1 91 -4 131h78l5 -80h2c24 46 80 91 160 91c67 0 171 -40 171 -206v-289h-88v279c0 78 -29 143 -112 143c-58 0 -103 -41 -118 -90c-4 -11 -6 -26 -6 -41v-291h-88zM221 -220l-17 41c39 6 75 25 75 65c0 24 -16 46 -34 61l65 14c20 -13 40 -41 40 -74
c0 -73 -67 -104 -129 -107z" />
    <glyph glyph-name="obreve" unicode="&#x14f;" horiz-adv-x="549" 
d="M278 495c139 0 233 -101 233 -249c0 -179 -124 -257 -241 -257c-131 0 -232 96 -232 249c0 162 106 257 240 257zM276 429c-104 0 -149 -96 -149 -188c0 -106 61 -186 147 -186c84 0 147 79 147 188c0 82 -41 186 -145 186zM150 682h52c6 -39 31 -69 72 -69
c47 0 69 36 72 69h52c0 -74 -49 -124 -124 -124c-88 0 -124 62 -124 124z" />
    <glyph glyph-name="ohungarumlaut" unicode="&#x151;" horiz-adv-x="549" 
d="M278 495c139 0 233 -101 233 -249c0 -179 -124 -257 -241 -257c-131 0 -232 96 -232 249c0 162 106 257 240 257zM276 429c-104 0 -149 -96 -149 -188c0 -106 61 -186 147 -186c84 0 147 79 147 188c0 82 -41 186 -145 186zM238 693h86l-110 -137h-55zM382 693h87
l-111 -137h-55z" />
    <glyph glyph-name="omacron" unicode="&#x14d;" horiz-adv-x="549" 
d="M278 495c139 0 233 -101 233 -249c0 -179 -124 -257 -241 -257c-131 0 -232 96 -232 249c0 162 106 257 240 257zM276 429c-104 0 -149 -96 -149 -188c0 -106 61 -186 147 -186c84 0 147 79 147 188c0 82 -41 186 -145 186zM162 643h225v-57h-225v57z" />
    <glyph glyph-name="oslashacute" unicode="&#x1ff;" horiz-adv-x="549" 
d="M276 495c44 0 87 -12 123 -35l42 60l39 -27l-42 -62c47 -45 73 -110 73 -185c0 -178 -123 -257 -236 -257c-45 0 -89 11 -124 34l-43 -61l-37 30l42 60c-47 44 -75 108 -75 187c0 161 106 256 238 256zM161 119l198 281c-22 18 -50 29 -85 29c-108 0 -151 -100 -151 -188
c0 -42 11 -86 36 -121zM389 361l-198 -278c23 -20 51 -28 81 -28c92 0 153 79 153 188c0 33 -8 80 -34 118h-2zM315 693h97l-122 -143h-63z" />
    <glyph glyph-name="racute" unicode="&#x155;" horiz-adv-x="327" 
d="M73 0v333c0 57 -1 106 -4 151h77l3 -95h4c22 65 75 106 134 106c10 0 17 -1 25 -3v-83c-9 2 -18 3 -30 3c-62 0 -106 -47 -118 -113c-2 -12 -4 -26 -4 -41v-258h-87zM216 693h97l-122 -143h-62z" />
    <glyph glyph-name="rcaron" unicode="&#x159;" horiz-adv-x="327" 
d="M73 0v333c0 57 -1 106 -4 151h77l3 -95h4c22 65 75 106 134 106c10 0 17 -1 25 -3v-83c-9 2 -18 3 -30 3c-62 0 -106 -47 -118 -113c-2 -12 -4 -26 -4 -41v-258h-87zM214 550h-64l-96 143h68l59 -95h2l59 95h66z" />
    <glyph glyph-name="rcommaaccent" unicode="&#x157;" horiz-adv-x="327" 
d="M73 0v333c0 57 -1 106 -4 151h77l3 -95h4c22 65 75 106 134 106c10 0 17 -1 25 -3v-83c-9 2 -18 3 -30 3c-62 0 -106 -47 -118 -113c-2 -12 -4 -26 -4 -41v-258h-87zM60 -222l-17 41c39 6 75 26 75 66c0 23 -16 46 -34 60l66 14c20 -13 39 -41 39 -73
c0 -74 -67 -104 -129 -108z" />
    <glyph glyph-name="sacute" unicode="&#x15b;" horiz-adv-x="396" 
d="M39 23l22 67c26 -17 72 -35 116 -35c64 0 94 32 94 72c0 42 -25 65 -90 89c-87 31 -128 79 -128 137c0 78 63 142 167 142c49 0 92 -14 119 -30l-22 -64c-19 12 -54 28 -99 28c-52 0 -81 -30 -81 -66c0 -40 29 -58 92 -82c84 -32 127 -74 127 -146
c0 -85 -66 -145 -181 -145c-53 0 -102 13 -136 33zM244 693h97l-122 -143h-63z" />
    <glyph glyph-name="scedilla" unicode="&#x15f;" horiz-adv-x="396" 
d="M39 23l22 67c26 -17 72 -35 116 -35c64 0 94 32 94 72c0 42 -25 65 -90 89c-87 31 -128 79 -128 137c0 78 63 142 167 142c49 0 92 -14 119 -30l-22 -64c-19 12 -54 28 -99 28c-52 0 -81 -30 -81 -66c0 -40 29 -58 92 -82c84 -32 127 -74 127 -146
c0 -71 -46 -125 -129 -141l-28 -44c37 -5 70 -31 70 -69c0 -59 -48 -81 -104 -81c-24 0 -51 7 -68 17l15 43c16 -10 36 -15 54 -15c22 0 43 8 43 32c-1 26 -31 38 -78 42l40 71h-4c-39 0 -89 11 -128 33z" />
    <glyph glyph-name="scircumflex" unicode="&#x15d;" horiz-adv-x="396" 
d="M39 23l22 67c26 -17 72 -35 116 -35c64 0 94 32 94 72c0 42 -25 65 -90 89c-87 31 -128 79 -128 137c0 78 63 142 167 142c49 0 92 -14 119 -30l-22 -64c-19 12 -54 28 -99 28c-52 0 -81 -30 -81 -66c0 -40 29 -58 92 -82c84 -32 127 -74 127 -146
c0 -85 -66 -145 -181 -145c-53 0 -102 13 -136 33zM169 693h61l96 -143h-68l-58 95h-2l-58 -95h-65z" />
    <glyph glyph-name="scommaaccent" unicode="&#x219;" horiz-adv-x="396" 
d="M39 23l22 67c26 -17 72 -35 116 -35c64 0 94 32 94 72c0 42 -25 65 -90 89c-87 31 -128 79 -128 137c0 78 63 142 167 142c49 0 92 -14 119 -30l-22 -64c-19 12 -54 28 -99 28c-52 0 -81 -30 -81 -66c0 -40 29 -58 92 -82c84 -32 127 -74 127 -146
c0 -85 -66 -145 -181 -145c-53 0 -102 13 -136 33zM136 -222l-17 41c39 6 75 26 75 66c0 23 -16 46 -34 60l66 14c20 -13 39 -41 39 -73c0 -74 -67 -104 -129 -108z" />
    <glyph glyph-name="tcaron" unicode="&#x165;" horiz-adv-x="339" 
d="M277 541l-26 35c17 13 38 38 38 74c0 23 -14 45 -30 59l63 13c17 -11 35 -37 35 -69c0 -68 -56 -102 -80 -112zM93 600l86 23v-139h126v-67h-126v-261c0 -60 17 -94 66 -94c23 0 40 3 51 6l4 -66c-17 -7 -44 -12 -78 -12c-41 0 -74 13 -95 37c-25 26 -34 69 -34 126v264
h-75v67h75v116z" />
    <glyph glyph-name="uni021B" unicode="&#x21b;" horiz-adv-x="331" 
d="M93 600l86 23v-139h126v-67h-126v-261c0 -60 17 -94 66 -94c23 0 40 3 51 6l4 -66c-17 -7 -44 -12 -78 -12c-41 0 -74 13 -95 37c-25 26 -34 69 -34 126v264h-75v67h75v116zM122 -227l-17 41c39 6 75 26 75 65c0 24 -16 47 -34 61l65 14c20 -13 40 -41 40 -74
c0 -73 -67 -103 -129 -107z" />
    <glyph glyph-name="ubreve" unicode="&#x16d;" horiz-adv-x="551" 
d="M478 484v-352c0 -50 1 -94 4 -132h-78l-5 79h-2c-23 -39 -74 -90 -160 -90c-76 0 -167 42 -167 212v283h88v-268c0 -92 28 -154 108 -154c59 0 100 41 116 80c5 13 8 29 8 45v297h88zM151 682h52c6 -39 31 -69 72 -69c47 0 69 36 72 69h52c0 -74 -49 -124 -124 -124
c-88 0 -124 62 -124 124z" />
    <glyph glyph-name="uhungarumlaut" unicode="&#x171;" horiz-adv-x="551" 
d="M478 484v-352c0 -50 1 -94 4 -132h-78l-5 79h-2c-23 -39 -74 -90 -160 -90c-76 0 -167 42 -167 212v283h88v-268c0 -92 28 -154 108 -154c59 0 100 41 116 80c5 13 8 29 8 45v297h88zM246 693h86l-110 -137h-55zM390 693h86l-110 -137h-55z" />
    <glyph glyph-name="umacron" unicode="&#x16b;" horiz-adv-x="551" 
d="M478 484v-352c0 -50 1 -94 4 -132h-78l-5 79h-2c-23 -39 -74 -90 -160 -90c-76 0 -167 42 -167 212v283h88v-268c0 -92 28 -154 108 -154c59 0 100 41 116 80c5 13 8 29 8 45v297h88zM163 643h225v-57h-225v57z" />
    <glyph glyph-name="uogonek" unicode="&#x173;" horiz-adv-x="551" 
d="M478 484v-352c0 -50 1 -95 4 -132h-22c-15 -21 -40 -59 -40 -95c0 -33 22 -52 51 -52c19 0 34 4 45 9l14 -45c-21 -16 -55 -23 -81 -23c-55 0 -93 30 -93 86c0 49 30 96 48 123l-5 76h-2c-23 -39 -74 -90 -160 -90c-76 0 -167 42 -167 212v283h88v-268
c0 -92 28 -154 108 -154c59 0 100 41 116 80c5 13 8 29 8 45v297h88z" />
    <glyph glyph-name="uring" unicode="&#x16f;" horiz-adv-x="551" 
d="M478 484v-352c0 -50 1 -94 4 -132h-78l-5 79h-2c-23 -39 -74 -90 -160 -90c-76 0 -167 42 -167 212v283h88v-268c0 -92 28 -154 108 -154c59 0 100 41 116 80c5 13 8 29 8 45v297h88zM276 537c-60 0 -101 40 -101 91c0 53 39 95 102 95c59 0 99 -41 99 -94
s-44 -92 -100 -92zM275 574c32 0 52 26 52 56s-20 55 -53 55c-30 0 -49 -26 -49 -57c0 -26 21 -54 50 -54z" />
    <glyph glyph-name="utilde" unicode="&#x169;" horiz-adv-x="551" 
d="M478 484v-352c0 -50 1 -94 4 -132h-78l-5 79h-2c-23 -39 -74 -90 -160 -90c-76 0 -167 42 -167 212v283h88v-268c0 -92 28 -154 108 -154c59 0 100 41 116 80c5 13 8 29 8 45v297h88zM200 567h-48c-2 65 25 104 68 104c22 0 39 -9 62 -22c16 -9 30 -17 42 -17
c16 0 26 9 28 43h47c1 -67 -22 -101 -69 -101c-21 0 -40 9 -61 20c-20 12 -31 18 -43 18c-16 0 -24 -17 -26 -45z" />
    <glyph glyph-name="wacute" unicode="&#x1e83;" horiz-adv-x="736" 
d="M18 484h90l64 -246c14 -54 27 -104 36 -154h3c11 49 27 101 43 153l79 247h74l75 -242c18 -58 32 -109 43 -158h3c8 49 21 100 37 157l69 243h87l-156 -484h-80l-74 231c-17 54 -31 102 -43 159h-2c-12 -58 -27 -108 -44 -160l-78 -230h-80zM411 693h97l-122 -143h-63z
" />
    <glyph glyph-name="wcircumflex" unicode="&#x175;" horiz-adv-x="736" 
d="M18 484h90l64 -246c14 -54 27 -104 36 -154h3c11 49 27 101 43 153l79 247h74l75 -242c18 -58 32 -109 43 -158h3c8 49 21 100 37 157l69 243h87l-156 -484h-80l-74 231c-17 54 -31 102 -43 159h-2c-12 -58 -27 -108 -44 -160l-78 -230h-80zM337 693h61l95 -143h-67
l-58 95h-2l-58 -95h-65z" />
    <glyph glyph-name="wdieresis" unicode="&#x1e85;" horiz-adv-x="736" 
d="M18 484h90l64 -246c14 -54 27 -104 36 -154h3c11 49 27 101 43 153l79 247h74l75 -242c18 -58 32 -109 43 -158h3c8 49 21 100 37 157l69 243h87l-156 -484h-80l-74 231c-17 54 -31 102 -43 159h-2c-12 -58 -27 -108 -44 -160l-78 -230h-80zM276 570c-30 0 -51 24 -51 51
c0 28 23 51 51 51s49 -22 49 -51c0 -27 -20 -51 -49 -51zM461 570c-30 0 -50 24 -50 51c0 28 22 51 50 51s49 -22 49 -51c0 -27 -20 -51 -49 -51z" />
    <glyph glyph-name="wgrave" unicode="&#x1e81;" horiz-adv-x="736" 
d="M18 484h90l64 -246c14 -54 27 -104 36 -154h3c11 49 27 101 43 153l79 247h74l75 -242c18 -58 32 -109 43 -158h3c8 49 21 100 37 157l69 243h87l-156 -484h-80l-74 231c-17 54 -31 102 -43 159h-2c-12 -58 -27 -108 -44 -160l-78 -230h-80zM237 693h97l87 -143h-62z" />
    <glyph glyph-name="ycircumflex" unicode="&#x177;" horiz-adv-x="471" 
d="M9 484h96l106 -286c11 -32 23 -70 31 -99h2c9 29 19 66 31 101l96 284h93l-132 -345c-63 -166 -106 -251 -166 -303c-43 -38 -86 -53 -108 -57l-22 74c22 7 51 21 77 43c24 19 54 53 74 98c4 9 7 16 7 21s-2 12 -6 23zM207 693h61l96 -143h-68l-58 95h-2l-58 -95h-65z
" />
    <glyph glyph-name="ygrave" unicode="&#x1ef3;" horiz-adv-x="471" 
d="M9 484h96l106 -286c11 -32 23 -70 31 -99h2c9 29 19 66 31 101l96 284h93l-132 -345c-63 -166 -106 -251 -166 -303c-43 -38 -86 -53 -108 -57l-22 74c22 7 51 21 77 43c24 19 54 53 74 98c4 9 7 16 7 21s-2 12 -6 23zM108 693h96l88 -143h-62z" />
    <glyph glyph-name="uni0233" unicode="&#x233;" horiz-adv-x="471" 
d="M9 484h96l106 -286c11 -32 23 -70 31 -99h2c9 29 19 66 31 101l96 284h93l-132 -345c-63 -166 -106 -251 -166 -303c-43 -38 -86 -53 -108 -57l-22 74c22 7 51 21 77 43c24 19 54 53 74 98c4 9 7 16 7 21s-2 12 -6 23zM124 643h225v-57h-225v57z" />
    <glyph glyph-name="zacute" unicode="&#x17a;" horiz-adv-x="428" 
d="M18 0v51l219 285c21 26 41 49 63 75v2h-262v71h369l-1 -55l-216 -281c-20 -27 -40 -51 -62 -76v-2h283v-70h-393zM260 693h97l-122 -143h-63z" />
    <glyph glyph-name="zdotaccent" unicode="&#x17c;" horiz-adv-x="428" 
d="M18 0v51l219 285c21 26 41 49 63 75v2h-262v71h369l-1 -55l-216 -281c-20 -27 -40 -51 -62 -76v-2h283v-70h-393zM217 570c-30 0 -51 24 -51 51c0 29 22 52 51 52c28 0 49 -23 49 -52c0 -27 -20 -51 -49 -51z" />
    <glyph glyph-name="aeacute" unicode="&#x1fd;" horiz-adv-x="773" 
d="M734 233h-324c-3 -115 63 -176 154 -176c67 0 105 15 132 28l16 -62c-39 -21 -95 -34 -159 -34c-82 0 -156 39 -184 107h-2c-31 -67 -97 -107 -180 -107c-101 0 -151 68 -151 138c0 112 104 177 292 175v20c0 24 -15 108 -113 108c-46 0 -95 -17 -124 -37l-21 58
c43 27 103 44 151 44c87 0 136 -41 156 -103h2c33 64 93 103 169 103c148 0 189 -143 189 -223c0 -15 -1 -30 -3 -39zM329 172v71c-93 2 -206 -14 -206 -109c0 -51 38 -80 84 -80c63 0 103 39 117 83c4 11 5 23 5 35zM409 296h243c3 49 -24 136 -113 136
c-87 0 -127 -81 -130 -136zM429 693h96l-122 -143h-62z" />
    <glyph glyph-name="space_uni0326" unicode="&#xf6c3;" 
d="M93 -222l-17 41c39 6 75 26 75 66c0 23 -16 46 -34 60l65 14c20 -13 40 -41 40 -73c0 -74 -67 -104 -129 -108z" />
    <glyph glyph-name="acute.cap" unicode="&#xf6c9;" 
d="M198 827h106l-127 -117h-72z" />
    <glyph glyph-name="breve.cap" unicode="&#xefee;" 
d="M26 832h52c5 -23 23 -49 72 -49s68 23 73 49h51c-2 -59 -39 -106 -125 -106c-85 0 -121 46 -123 106z" />
    <glyph glyph-name="caron.cap" unicode="&#xf6ca;" 
d="M184 710h-67l-105 114h74l64 -69h2l63 69h72z" />
    <glyph glyph-name="cedilla.cap" unicode="&#xeff2;" 
d="M136 2h55l-32 -52c38 -7 71 -34 71 -75c0 -58 -51 -81 -103 -81c-26 0 -54 7 -71 17l14 45c15 -8 34 -13 56 -13c23 0 42 9 42 30c0 27 -31 38 -78 43z" />
    <glyph glyph-name="circumflex.cap" unicode="&#xeff7;" 
d="M116 824h67l104 -114h-73l-64 69h-2l-64 -69h-71z" />
    <glyph glyph-name="space_uni0326.cap" unicode="&#xf634;" 
d="M93 -222l-17 41c39 7 75 26 75 66c0 23 -16 46 -34 60l65 14c20 -13 40 -40 40 -73c0 -74 -67 -104 -129 -108z" />
    <glyph glyph-name="dieresis.cap" unicode="&#xf6cb;" 
d="M58 721c-30 0 -49 23 -49 51c0 27 21 50 49 50s48 -22 48 -50s-19 -51 -48 -51zM243 721c-29 0 -49 23 -49 51c0 27 21 50 50 50c28 0 48 -22 48 -50s-19 -51 -49 -51z" />
    <glyph glyph-name="dotaccent.cap" unicode="&#xefed;" 
d="M151 721c-28 0 -50 25 -50 51s22 50 51 50c27 0 48 -24 48 -50s-21 -51 -49 -51z" />
    <glyph glyph-name="grave.cap" unicode="&#xf6ce;" 
d="M-2 827h106l93 -116h-72z" />
    <glyph glyph-name="hungarumlaut.cap" unicode="&#xf6cf;" 
d="M117 827h95l-111 -112h-64zM264 827h96l-112 -112h-64z" />
    <glyph glyph-name="macron.cap" unicode="&#xf6d0;" 
d="M31 788h239v-55h-239v55z" />
    <glyph glyph-name="ogonek.cap" unicode="&#xeff1;" 
d="M123 4h57c-15 -19 -53 -62 -53 -100c0 -32 21 -50 50 -50c18 0 34 4 46 9l14 -45c-20 -16 -55 -23 -80 -23c-56 0 -94 30 -94 86c0 49 36 97 60 123z" />
    <glyph glyph-name="ring.cap" unicode="&#xeff3;" horiz-adv-x="400" 
d="M202 877c61 0 99 -40 99 -91c0 -50 -41 -88 -99 -88c-61 0 -101 39 -101 88c0 50 39 91 101 91zM200 840c-30 0 -47 -25 -47 -54c0 -26 19 -51 47 -51c30 0 49 23 49 52s-19 53 -49 53z" />
    <glyph glyph-name="tilde.cap" unicode="&#xeff5;" 
d="M73 715h-47c-2 61 24 102 68 102c22 0 38 -9 59 -20c16 -9 32 -18 48 -18c15 0 24 7 27 39h46c1 -63 -21 -97 -67 -97c-21 0 -39 8 -61 19c-19 10 -33 19 -47 19c-16 0 -24 -17 -26 -44z" />
    <glyph glyph-name="Alpha" unicode="&#x391;" horiz-adv-x="612" 
d="M424 212h-239l-70 -212h-90l229 674h105l230 -674h-93zM203 280h203l-66 194c-15 44 -25 84 -35 123h-2c-10 -40 -21 -81 -34 -122z" />
    <glyph glyph-name="Beta" unicode="&#x392;" horiz-adv-x="542" 
d="M76 2v663c38 8 98 14 159 14c87 0 143 -15 185 -49c35 -26 56 -66 56 -119c0 -65 -43 -122 -114 -148v-2c64 -16 139 -69 139 -169c0 -58 -23 -102 -57 -135c-47 -43 -123 -63 -233 -63c-60 0 -106 4 -135 8zM163 606v-217h79c92 0 146 48 146 113c0 79 -60 110 -148 110
c-40 0 -63 -3 -77 -6zM163 323v-257c17 -3 42 -4 73 -4c90 0 173 33 173 131c0 92 -79 130 -174 130h-72z" />
    <glyph glyph-name="Gamma" unicode="&#x393;" horiz-adv-x="451" 
d="M76 674h361v-73h-274v-601h-87v674z" />
    <glyph glyph-name="uni0394" unicode="&#x394;" horiz-adv-x="620" 
d="M25 0v49l235 625h99l232 -624v-50h-566zM118 73h376l-137 371c-17 47 -38 107 -50 150h-3c-10 -34 -28 -90 -45 -137z" />
    <glyph glyph-name="Epsilon" unicode="&#x395;" horiz-adv-x="492" 
d="M425 388v-72h-262v-243h292v-73h-379v674h364v-73h-277v-213h262z" />
    <glyph glyph-name="Zeta" unicode="&#x396;" horiz-adv-x="553" 
d="M30 0v51l374 547v3h-342v73h455v-53l-372 -545v-3h377v-73h-492z" />
    <glyph glyph-name="Eta" unicode="&#x397;" horiz-adv-x="652" 
d="M76 674h87v-282h326v282h88v-674h-88v316h-326v-316h-87v674z" />
    <glyph glyph-name="Theta" unicode="&#x398;" horiz-adv-x="689" 
d="M341 -11c-180 0 -305 138 -305 342c0 214 133 354 313 354c184 0 304 -141 304 -341c0 -232 -141 -355 -312 -355zM344 60c139 0 217 127 217 280c0 134 -70 274 -215 274c-146 0 -218 -135 -218 -281c0 -142 78 -273 216 -273zM209 383h271v-72h-271v72z" />
    <glyph glyph-name="Iota" unicode="&#x399;" horiz-adv-x="239" 
d="M76 674h87v-674h-87v674z" />
    <glyph glyph-name="Kappa" unicode="&#x39a;" horiz-adv-x="542" 
d="M76 0v674h87v-325h3c18 26 36 50 53 72l206 253h108l-244 -286l263 -388h-103l-222 331l-64 -74v-257h-87z" />
    <glyph glyph-name="Lambda" unicode="&#x39b;" horiz-adv-x="609" 
d="M590 0h-94l-156 464c-15 47 -25 87 -35 128h-3c-10 -42 -20 -83 -33 -127l-153 -465h-91l229 674h104z" />
    <glyph glyph-name="Mu" unicode="&#x39c;" horiz-adv-x="804" 
d="M661 0l-17 296c-5 94 -11 207 -10 291h-3c-23 -79 -51 -163 -85 -256l-119 -327h-66l-109 321c-32 95 -59 182 -78 262h-2c-2 -84 -7 -197 -13 -298l-18 -289h-83l47 674h111l115 -326c28 -83 51 -157 68 -227h3c17 68 41 142 71 227l120 326h111l42 -674h-85z" />
    <glyph glyph-name="Nu" unicode="&#x39d;" horiz-adv-x="658" 
d="M158 0h-82v674h95l216 -341c50 -79 89 -150 121 -219l2 1c-8 90 -10 172 -10 277v282h82v-674h-88l-214 342c-47 75 -92 152 -126 225l-3 -1c5 -85 7 -166 7 -278v-288z" />
    <glyph glyph-name="Xi" unicode="&#x39e;" horiz-adv-x="540" 
d="M54 674h441v-72h-441v72zM87 385h374v-72h-374v72zM43 73h462v-73h-462v73z" />
    <glyph glyph-name="Omicron" unicode="&#x39f;" horiz-adv-x="689" 
d="M349 685c184 0 303 -141 303 -341c0 -232 -141 -355 -313 -355c-178 0 -303 138 -303 342c0 214 133 354 313 354zM345 614c-144 0 -216 -133 -216 -281c0 -144 78 -273 215 -273c138 0 216 127 216 280c0 134 -70 274 -215 274z" />
    <glyph glyph-name="Pi" unicode="&#x3a0;" horiz-adv-x="634" 
d="M558 674v-674h-88v600h-307v-600h-87v674h482z" />
    <glyph glyph-name="Rho" unicode="&#x3a1;" horiz-adv-x="532" 
d="M76 0v666c42 7 97 13 167 13c86 0 149 -20 189 -56c37 -32 59 -81 59 -141c0 -61 -18 -109 -52 -144c-46 -49 -121 -74 -206 -74c-26 0 -50 1 -70 6v-270h-87zM163 603v-262c19 -5 43 -7 72 -7c105 0 169 51 169 144c0 89 -63 132 -159 132c-38 0 -67 -3 -82 -7z" />
    <glyph glyph-name="Sigma" unicode="&#x3a3;" horiz-adv-x="552" 
d="M140 76v-3h384v-73h-498v52l234 283l-221 280v59h453v-72h-341v-4l206 -260z" />
    <glyph glyph-name="Tau" unicode="&#x3a4;" horiz-adv-x="497" 
d="M204 0v600h-205v74h499v-74h-206v-600h-88z" />
    <glyph glyph-name="Upsilon" unicode="&#x3a5;" horiz-adv-x="588" 
d="M10 609l16 71c47 -3 118 -37 164 -91c51 -57 92 -141 104 -247h4c17 108 69 192 117 245c47 50 109 86 154 93l15 -71c-74 -28 -185 -124 -231 -298c-10 -40 -19 -86 -19 -138v-173h-87v174c0 50 -5 95 -14 136c-40 181 -134 279 -223 299z" />
    <glyph glyph-name="Phi" unicode="&#x3a6;" horiz-adv-x="718" 
d="M400 26v-52h-84v52c-137 12 -280 106 -280 307c0 207 154 307 282 317v50h84v-50c140 -11 280 -113 280 -312c0 -200 -140 -300 -282 -312zM317 89v498c-87 -6 -191 -90 -191 -252c0 -148 93 -234 191 -246zM401 587v-498c96 9 191 93 191 247c0 160 -96 242 -191 251z
" />
    <glyph glyph-name="Chi" unicode="&#x3a7;" horiz-adv-x="571" 
d="M546 0h-101l-86 149c-35 57 -57 94 -78 133h-2c-19 -39 -38 -75 -73 -134l-81 -148h-100l206 341l-198 333h101l89 -158c25 -44 44 -78 62 -114h3c19 40 36 71 61 114l92 158h100l-205 -328z" />
    <glyph glyph-name="Psi" unicode="&#x3a8;" horiz-adv-x="685" 
d="M639 674v-195c0 -175 -106 -265 -255 -273v-206h-83v206c-130 5 -254 72 -254 248v220h85v-205c0 -137 70 -189 170 -194v399h82v-400c89 5 169 60 169 214v186h86z" />
    <glyph glyph-name="uni03A9" unicode="&#x3a9;" horiz-adv-x="705" 
d="M284 0h-254v69h145v4c-67 55 -132 155 -132 285c0 192 135 327 314 327c187 0 304 -141 304 -319c0 -138 -66 -237 -133 -293v-4h147v-69h-253v55c80 55 149 162 149 297c0 123 -73 262 -216 262c-142 0 -221 -131 -221 -263c0 -126 70 -246 150 -296v-55z" />
    <glyph glyph-name="Alphatonos" unicode="&#x386;" horiz-adv-x="615" 
d="M70 674h79l-35 -155h-52zM427 212h-239l-70 -212h-90l229 674h105l230 -674h-93zM206 280h203l-66 194c-15 44 -25 84 -35 123h-2c-10 -40 -21 -81 -34 -122z" />
    <glyph glyph-name="Epsilontonos" unicode="&#x388;" horiz-adv-x="561" 
d="M7 674h80l-35 -155h-52zM494 388v-72h-261v-243h292v-73h-380v674h365v-73h-277v-213h261z" />
    <glyph glyph-name="Etatonos" unicode="&#x389;" horiz-adv-x="722" 
d="M7 674h80l-35 -155h-52zM145 674h88v-282h325v282h88v-674h-88v316h-325v-316h-88v674z" />
    <glyph glyph-name="Iotatonos" unicode="&#x38a;" horiz-adv-x="309" 
d="M7 674h80l-35 -155h-52zM145 674h88v-674h-88v674z" />
    <glyph glyph-name="Iotadieresis" unicode="&#x3aa;" horiz-adv-x="239" 
d="M28 711c-30 0 -50 24 -50 50c0 28 22 51 50 51c27 0 48 -22 48 -51c0 -26 -20 -50 -48 -50zM211 711c-29 0 -49 24 -49 50c0 28 21 51 50 51c27 0 48 -22 48 -51c0 -26 -20 -50 -49 -50zM76 674h87v-674h-87v674z" />
    <glyph glyph-name="Omicrontonos" unicode="&#x38c;" horiz-adv-x="728" 
d="M7 674h80l-35 -155h-52zM388 685c184 0 304 -141 304 -341c0 -232 -141 -355 -313 -355c-179 0 -303 138 -303 342c0 214 132 354 312 354zM385 614c-145 0 -217 -133 -217 -281c0 -144 78 -273 216 -273s216 127 216 280c0 134 -70 274 -215 274z" />
    <glyph glyph-name="Upsilontonos" unicode="&#x38e;" horiz-adv-x="707" 
d="M7 674h80l-35 -155h-52zM128 609l16 71c47 -3 118 -37 164 -91c51 -57 91 -141 104 -247h4c17 108 69 192 117 245c47 50 109 86 153 93l16 -71c-75 -28 -186 -124 -232 -298c-10 -40 -18 -86 -18 -138v-173h-87v174c0 50 -6 95 -14 136c-41 181 -135 279 -223 299z" />
    <glyph glyph-name="Upsilondieresis" unicode="&#x3ab;" horiz-adv-x="588" 
d="M206 697c-29 0 -49 23 -49 50c0 28 22 50 50 50c27 0 47 -22 47 -50c0 -27 -19 -50 -48 -50zM390 697c-29 0 -49 23 -49 50c0 28 21 50 49 50s48 -22 48 -50c0 -27 -19 -50 -48 -50zM10 609l16 71c47 -3 118 -37 164 -91c51 -57 92 -141 104 -247h4
c17 108 69 192 117 245c47 50 109 86 154 93l15 -71c-74 -28 -185 -124 -231 -298c-10 -40 -19 -86 -19 -138v-173h-87v174c0 50 -5 95 -14 136c-40 181 -134 279 -223 299z" />
    <glyph glyph-name="Omegatonos" unicode="&#x38f;" horiz-adv-x="742" 
d="M7 674h80l-35 -155h-52zM320 0h-254v69h146v4c-67 55 -132 155 -132 285c0 192 135 327 314 327c186 0 304 -141 304 -319c0 -138 -66 -237 -133 -293v-4h146v-69h-253v55c80 55 150 162 150 297c-1 123 -73 262 -216 262c-142 0 -221 -131 -221 -263
c0 -126 70 -246 149 -296v-55z" />
    <glyph glyph-name="alpha" unicode="&#x3b1;" horiz-adv-x="551" 
d="M416 484h73c-5 -51 -13 -217 -13 -346c0 -57 14 -81 48 -82l-7 -63c-6 -3 -20 -4 -30 -4c-43 0 -78 28 -83 102h-3c-32 -58 -88 -102 -165 -102c-115 0 -198 96 -198 243c0 158 104 263 216 263c70 0 123 -36 149 -97h4c2 38 5 62 9 86zM127 235c0 -92 47 -176 131 -176
c61 0 114 59 129 123c5 22 6 41 6 68c0 19 0 35 -4 52c-12 65 -60 124 -124 124c-82 0 -138 -81 -138 -191z" />
    <glyph glyph-name="beta" unicode="&#x3b2;" horiz-adv-x="560" 
d="M159 50h-2v-67c0 -57 1 -140 11 -181h-82c-12 32 -15 100 -15 170v461c0 138 37 199 75 235c34 32 78 53 142 53c99 0 175 -70 175 -174c0 -76 -43 -133 -89 -156v-4c76 -16 148 -80 148 -191c0 -134 -102 -207 -209 -207c-67 0 -117 22 -154 61zM156 443v-306
c23 -37 72 -80 141 -80c80 0 137 59 137 139c0 96 -68 145 -156 148c-9 1 -18 0 -27 0v60c6 0 11 1 17 2c76 5 114 64 114 128c0 71 -43 117 -102 117c-81 0 -124 -70 -124 -208z" />
    <glyph glyph-name="gamma" unicode="&#x3b3;" horiz-adv-x="464" 
d="M269 -198h-86c3 92 5 188 -18 284c-36 160 -122 323 -171 398h99c44 -66 117 -228 147 -377h4c44 81 114 224 114 343c0 15 -1 25 -1 34h83c2 -9 3 -21 3 -33c0 -124 -78 -284 -171 -425c-6 -8 -6 -15 -6 -24c3 -57 3 -132 3 -200z" />
    <glyph glyph-name="delta" unicode="&#x3b4;" horiz-adv-x="546" 
d="M466 673l-26 -58c-21 15 -77 40 -132 40s-82 -21 -82 -45c0 -26 27 -45 72 -81l82 -66c80 -61 128 -131 128 -227c0 -150 -105 -247 -235 -247c-125 0 -235 88 -235 243c0 124 85 206 184 253v5l-23 18c-23 19 -61 54 -61 100c0 54 55 113 168 113c70 0 131 -25 160 -48z
M326 402l-53 42c-76 -40 -146 -105 -146 -211c0 -113 75 -178 151 -178c77 0 142 65 142 175c0 68 -32 124 -94 172z" />
    <glyph glyph-name="epsilon" unicode="&#x3b5;" horiz-adv-x="440" 
d="M404 93l16 -60c-37 -25 -109 -44 -177 -44c-97 0 -204 38 -204 147c0 60 49 110 120 121v5c-64 14 -96 54 -96 102c0 64 64 131 193 131c63 0 112 -13 147 -37l-19 -58c-20 13 -72 30 -121 30c-67 0 -112 -28 -112 -72c0 -48 59 -69 135 -69h58v-63h-61
c-87 0 -152 -24 -152 -82c0 -57 60 -88 131 -88c53 0 113 20 142 37z" />
    <glyph glyph-name="zeta" unicode="&#x3b6;" horiz-adv-x="409" 
d="M341 -143l-58 17c14 23 31 84 33 110c-35 5 -78 14 -118 27c-88 29 -159 95 -159 223c0 139 90 302 244 407v4h-71c-45 0 -86 2 -116 10l9 59c32 -4 77 -4 122 -4h167l13 -61c-160 -81 -279 -252 -279 -399c0 -107 51 -151 124 -177c46 -17 93 -24 140 -29
c5 -1 9 -6 9 -12c0 -58 -33 -140 -60 -175z" />
    <glyph glyph-name="eta" unicode="&#x3b7;" horiz-adv-x="555" 
d="M161 0h-88v353c0 49 -3 98 -14 131h79c9 -19 14 -49 14 -80h2c24 46 80 91 160 91c67 0 171 -40 171 -206v-307c0 -56 0 -140 10 -180h-83c-12 30 -15 113 -15 177v300c0 78 -29 143 -112 143c-58 0 -103 -41 -118 -90c-4 -11 -6 -26 -6 -41v-291z" />
    <glyph glyph-name="theta" unicode="&#x3b8;" horiz-adv-x="534" 
d="M269 -11c-143 0 -231 125 -231 372c0 204 83 360 234 360c154 0 225 -145 225 -360c0 -225 -73 -372 -228 -372zM125 399h285c-1 142 -46 257 -143 257c-89 0 -142 -121 -142 -257zM410 333h-285c0 -178 60 -279 146 -279c94 0 139 116 139 279z" />
    <glyph glyph-name="iota" unicode="&#x3b9;" horiz-adv-x="236" 
d="M161 484v-367c0 -43 9 -61 47 -59l-5 -64c-10 -3 -25 -5 -40 -5c-51 0 -90 23 -90 119v376h88z" />
    <glyph glyph-name="kappa" unicode="&#x3ba;" horiz-adv-x="493" 
d="M161 0h-88v379c0 39 -3 87 -11 105h85c8 -11 14 -42 14 -82v-133h4c87 82 155 157 212 215h103v-4c-68 -63 -145 -138 -230 -218v-3c48 -11 100 -73 149 -138l88 -121h-102l-76 103c-49 64 -94 111 -140 112h-8v-215z" />
    <glyph glyph-name="lambda" unicode="&#x3bb;" horiz-adv-x="472" 
d="M364 0l-98 277c-11 33 -22 66 -32 105h-5c-7 -32 -20 -69 -31 -102l-99 -280h-92l175 448c4 11 6 18 6 23c0 6 -2 15 -7 27c-31 85 -67 152 -126 152c-5 0 -11 0 -17 -1l8 68c8 3 22 4 34 4c95 0 140 -91 192 -229l185 -492h-93z" />
    <glyph glyph-name="uni03BC" unicode="&#x3bc;" horiz-adv-x="553" 
d="M403 75h-3c-20 -38 -67 -84 -139 -84c-44 0 -85 16 -106 53v-60c0 -53 1 -142 11 -182h-79c-10 30 -14 101 -14 178v504h87v-286c0 -75 32 -137 109 -137c58 0 100 42 116 81c5 13 8 29 8 45v297h87v-351c0 -53 11 -74 46 -76l-7 -64c-10 -3 -16 -4 -30 -4
c-43 0 -78 24 -86 86z" />
    <glyph glyph-name="nu" unicode="&#x3bd;" horiz-adv-x="469" 
d="M4 484h93l93 -272c16 -43 28 -84 42 -126h3c40 78 125 241 125 353c0 16 0 31 -1 45h83c1 -10 3 -23 3 -36c0 -137 -93 -301 -181 -448h-83z" />
    <glyph glyph-name="xi" unicode="&#x3be;" horiz-adv-x="433" 
d="M361 435v-64h-27c-139 0 -204 -68 -204 -151c0 -81 55 -126 154 -152c47 -13 93 -19 133 -25c6 0 9 -5 9 -11c0 -52 -31 -140 -59 -175l-58 17c13 23 31 85 32 110c-133 19 -303 59 -303 228c0 97 70 171 157 195v5c-74 23 -111 75 -111 141c0 83 69 168 209 168
c53 0 95 -11 122 -27l-18 -61c-20 11 -57 23 -99 23c-84 0 -126 -53 -126 -109c0 -70 62 -109 141 -112h48z" />
    <glyph glyph-name="omicron" unicode="&#x3bf;" horiz-adv-x="549" 
d="M278 495c139 0 233 -101 233 -249c0 -179 -124 -257 -241 -257c-131 0 -232 96 -232 249c0 162 106 257 240 257zM276 429c-104 0 -149 -96 -149 -188c0 -106 61 -186 147 -186c84 0 147 79 147 188c0 82 -41 186 -145 186z" />
    <glyph glyph-name="rho" unicode="&#x3c1;" horiz-adv-x="563" 
d="M163 -198h-84c-9 30 -11 101 -11 176v224c0 125 32 181 70 221c37 40 93 72 166 72c135 0 221 -101 221 -246c0 -171 -107 -260 -221 -260c-63 0 -118 26 -146 71h-3v-78c0 -56 1 -140 8 -180zM155 231v-41c0 -12 1 -24 4 -35c16 -55 69 -97 131 -97c93 0 147 80 147 189
c0 95 -50 175 -140 175c-69 0 -142 -57 -142 -191z" />
    <glyph glyph-name="sigma" unicode="&#x3c3;" horiz-adv-x="554" 
d="M542 495l-3 -67c-24 0 -56 1 -127 4v-4c57 -39 90 -110 90 -183c0 -178 -122 -256 -232 -256c-131 0 -232 95 -232 248c0 162 103 257 249 258h255zM272 55c80 0 143 80 143 190c0 82 -42 184 -142 184c-101 0 -146 -96 -146 -188c0 -106 61 -186 145 -186z" />
    <glyph glyph-name="tau" unicode="&#x3c4;" horiz-adv-x="413" 
d="M321 60l-4 -63c-10 -5 -30 -8 -48 -8c-78 0 -112 48 -112 150v276h-53c-51 0 -77 -4 -98 -8l-12 51c17 12 53 26 132 26h279l-11 -69h-150v-274c0 -66 26 -82 56 -82c8 0 15 0 21 1z" />
    <glyph glyph-name="upsilon" unicode="&#x3c5;" horiz-adv-x="524" 
d="M360 484h82c17 -32 36 -109 36 -189c0 -142 -46 -306 -221 -306c-106 0 -190 63 -190 195v137c0 84 -2 136 -11 163h84c9 -11 14 -38 14 -91v-197c0 -97 57 -134 110 -134c84 0 128 86 128 225c0 90 -21 172 -32 197z" />
    <glyph glyph-name="phi" unicode="&#x3c6;" horiz-adv-x="642" 
d="M204 495l34 -49c-51 -32 -113 -96 -113 -200c0 -96 52 -176 157 -192v294c0 104 57 146 123 146c95 0 198 -91 198 -239c0 -166 -118 -253 -240 -265v-188h-81v188c-120 9 -244 84 -244 254c0 139 100 223 166 251zM363 362v-308c95 13 156 87 156 199
c0 99 -58 177 -114 177c-25 0 -42 -22 -42 -68z" />
    <glyph glyph-name="chi" unicode="&#x3c7;" horiz-adv-x="457" 
d="M18 484h94l123 -261h4c14 31 30 65 51 107l72 154h86l-171 -327l176 -348l-82 -22l-144 296h-4c-13 -29 -28 -64 -46 -103l-91 -193l-75 23l173 346z" />
    <glyph glyph-name="psi" unicode="&#x3c8;" horiz-adv-x="655" 
d="M295 -198v187c-123 8 -228 64 -228 251v131c0 45 -1 88 -8 113h81c8 -11 12 -41 12 -91v-145c0 -142 68 -190 144 -195v558h80v-558c87 4 149 94 149 233c0 100 -23 177 -36 198h81c20 -32 39 -101 39 -191c0 -144 -61 -295 -233 -304v-187h-81z" />
    <glyph glyph-name="omega" unicode="&#x3c9;" horiz-adv-x="694" 
d="M388 356l-2 -184c0 -62 35 -110 83 -110c50 0 101 62 101 192c0 95 -34 182 -80 227v3h83c43 -37 83 -121 83 -232c0 -180 -91 -263 -183 -263c-59 0 -106 33 -126 86h-4c-23 -53 -69 -86 -128 -86c-84 0 -177 71 -177 255c0 109 42 198 85 240h81v-3
c-45 -48 -80 -132 -80 -235c0 -135 57 -184 103 -184c45 0 80 49 80 109l-2 185h83z" />
    <glyph glyph-name="uni03C2" unicode="&#x3c2;" horiz-adv-x="417" 
d="M408 473l-20 -64c-24 10 -51 18 -89 18c-104 0 -172 -86 -172 -185c0 -95 50 -146 137 -172c48 -13 83 -19 129 -26c7 -2 10 -5 10 -15c0 -55 -32 -140 -58 -173l-59 18c14 23 31 85 33 109c-33 6 -69 13 -99 21c-101 29 -182 100 -182 230s93 261 261 261
c43 0 84 -8 109 -22z" />
    <glyph glyph-name="alphatonos" unicode="&#x3ac;" horiz-adv-x="551" 
d="M286 686h88l-83 -143h-59zM416 484h73c-5 -51 -13 -217 -13 -346c0 -57 14 -81 48 -82l-7 -63c-6 -3 -20 -4 -30 -4c-43 0 -78 28 -83 102h-3c-32 -58 -88 -102 -165 -102c-115 0 -198 96 -198 243c0 158 104 263 216 263c70 0 123 -36 149 -97h4c2 38 5 62 9 86z
M127 235c0 -92 47 -176 131 -176c61 0 114 59 129 123c5 22 6 41 6 68c0 19 0 35 -4 52c-12 65 -60 124 -124 124c-82 0 -138 -81 -138 -191z" />
    <glyph glyph-name="epsilontonos" unicode="&#x3ad;" horiz-adv-x="440" 
d="M256 686h89l-84 -143h-58zM404 93l16 -60c-37 -25 -109 -44 -177 -44c-97 0 -204 38 -204 147c0 60 49 110 120 121v5c-64 14 -96 54 -96 102c0 64 64 131 193 131c63 0 112 -13 147 -37l-19 -58c-20 13 -72 30 -121 30c-67 0 -112 -28 -112 -72c0 -48 59 -69 135 -69h58
v-63h-61c-87 0 -152 -24 -152 -82c0 -57 60 -88 131 -88c53 0 113 20 142 37z" />
    <glyph glyph-name="etatonos" unicode="&#x3ae;" horiz-adv-x="555" 
d="M301 686h89l-84 -143h-58zM161 0h-88v353c0 49 -3 98 -14 131h79c9 -19 14 -49 14 -80h2c24 46 80 91 160 91c67 0 171 -40 171 -206v-307c0 -56 0 -140 10 -180h-83c-12 30 -15 113 -15 177v300c0 78 -29 143 -112 143c-58 0 -103 -41 -118 -90c-4 -11 -6 -26 -6 -41
v-291z" />
    <glyph glyph-name="iotatonos" unicode="&#x3af;" horiz-adv-x="236" 
d="M133 687h89l-83 -143h-59zM161 484v-367c0 -43 9 -61 47 -59l-5 -64c-10 -3 -25 -5 -40 -5c-51 0 -90 23 -90 119v376h88z" />
    <glyph glyph-name="iotadieresis" unicode="&#x3ca;" horiz-adv-x="236" 
d="M28 557c-29 0 -49 23 -49 50c0 28 21 51 50 51c27 0 48 -22 48 -51c0 -27 -20 -50 -49 -50zM212 557c-30 0 -49 23 -49 50c0 28 21 51 49 51s49 -22 49 -51c0 -27 -20 -50 -49 -50zM161 484v-367c0 -43 9 -61 47 -59l-5 -64c-10 -3 -25 -5 -40 -5c-51 0 -90 23 -90 119
v376h88z" />
    <glyph glyph-name="omicrontonos" unicode="&#x3cc;" horiz-adv-x="549" 
d="M289 686h89l-84 -143h-58zM278 495c139 0 233 -101 233 -249c0 -179 -124 -257 -241 -257c-131 0 -232 96 -232 249c0 162 106 257 240 257zM276 429c-104 0 -149 -96 -149 -188c0 -106 61 -186 147 -186c84 0 147 79 147 188c0 82 -41 186 -145 186z" />
    <glyph glyph-name="upsilontonos" unicode="&#x3cd;" horiz-adv-x="524" 
d="M272 687h89l-83 -143h-59zM360 484h82c17 -32 36 -109 36 -189c0 -142 -46 -306 -221 -306c-106 0 -190 63 -190 195v137c0 84 -2 136 -11 163h84c9 -11 14 -38 14 -91v-197c0 -97 57 -134 110 -134c84 0 128 86 128 225c0 90 -21 172 -32 197z" />
    <glyph glyph-name="upsilondieresis" unicode="&#x3cb;" horiz-adv-x="524" 
d="M165 557c-29 0 -49 23 -49 50c0 28 21 51 50 51c27 0 47 -22 47 -51c0 -27 -19 -50 -48 -50zM349 557c-30 0 -49 23 -49 50c0 28 21 51 49 51s49 -22 49 -51c0 -27 -20 -50 -49 -50zM360 484h82c17 -32 36 -109 36 -189c0 -142 -46 -306 -221 -306
c-106 0 -190 63 -190 195v137c0 84 -2 136 -11 163h84c9 -11 14 -38 14 -91v-197c0 -97 57 -134 110 -134c84 0 128 86 128 225c0 90 -21 172 -32 197z" />
    <glyph glyph-name="omegatonos" unicode="&#x3ce;" horiz-adv-x="694" 
d="M360 686h89l-83 -143h-59zM388 356l-2 -184c0 -62 35 -110 83 -110c50 0 101 62 101 192c0 95 -34 182 -80 227v3h83c43 -37 83 -121 83 -232c0 -180 -91 -263 -183 -263c-59 0 -106 33 -126 86h-4c-23 -53 -69 -86 -128 -86c-84 0 -177 71 -177 255c0 109 42 198 85 240
h81v-3c-45 -48 -80 -132 -80 -235c0 -135 57 -184 103 -184c45 0 80 49 80 109l-2 185h83z" />
    <glyph glyph-name="iotadieresistonos" unicode="&#x390;" horiz-adv-x="236" 
d="M107 696h75l-50 -156h-47zM5 561c-27 0 -46 21 -46 46c0 26 21 46 47 46c25 0 44 -20 44 -46c0 -25 -18 -46 -45 -46zM247 561c-27 0 -46 21 -46 46c0 26 20 46 46 46s45 -20 45 -46c0 -25 -18 -46 -45 -46zM161 484v-367c0 -43 9 -61 47 -59l-5 -64
c-10 -3 -25 -5 -40 -5c-51 0 -90 23 -90 119v376h88z" />
    <glyph glyph-name="upsilondieresistonos" unicode="&#x3b0;" horiz-adv-x="524" 
d="M242 696h75l-49 -157h-47zM141 560c-28 0 -47 22 -47 47s21 46 47 46c25 0 44 -20 44 -46c0 -25 -18 -47 -44 -47zM382 560c-26 0 -45 22 -45 47s20 46 46 46s45 -20 45 -46c0 -25 -18 -47 -46 -47zM360 484h82c17 -32 36 -109 36 -189c0 -142 -46 -306 -221 -306
c-106 0 -190 63 -190 195v137c0 84 -2 136 -11 163h84c9 -11 14 -38 14 -91v-197c0 -97 57 -134 110 -134c84 0 128 86 128 225c0 90 -21 172 -32 197z" />
    <glyph glyph-name="uni037E" unicode="&#x37e;" horiz-adv-x="217" 
d="M91 -117l-61 -6c17 59 39 166 45 237l98 5c-18 -78 -58 -189 -82 -236zM119 323c-37 0 -62 29 -62 65c0 39 26 67 62 67c38 0 62 -28 62 -67c0 -36 -24 -65 -62 -65z" />
    <glyph glyph-name="anoteleia" unicode="&#x387;" horiz-adv-x="217" 
d="M108 252c-37 0 -64 29 -63 67c0 40 26 68 64 68s63 -28 63 -68c0 -38 -25 -67 -64 -67z" />
    <glyph glyph-name="tonos" unicode="&#x384;" horiz-adv-x="301" 
d="M137 694h89l-84 -143h-58z" />
    <glyph glyph-name="dieresistonos" unicode="&#x385;" horiz-adv-x="346" 
d="M153 710h75l-49 -157h-48zM51 573c-28 0 -47 22 -47 48s21 47 48 47c25 0 45 -20 45 -47c0 -26 -19 -48 -46 -48zM293 573c-28 0 -47 22 -47 48s21 47 47 47c27 0 46 -20 46 -47c0 -26 -18 -48 -46 -48z" />
    <glyph glyph-name="dieresis_acutecomb" unicode="&#xf6d7;" horiz-adv-x="301" 
d="M24 573c-28 0 -48 23 -48 49c0 27 21 50 49 50c27 0 47 -22 47 -50s-20 -49 -48 -49zM271 573c-28 0 -48 23 -48 49c0 27 21 50 49 50c27 0 47 -22 47 -50s-20 -49 -48 -49zM151 701h92l-111 -143h-58z" />
    <glyph glyph-name="dieresis_gravecomb" unicode="&#xf6d8;" horiz-adv-x="301" 
d="M28 573c-28 0 -48 23 -48 49c0 27 22 50 49 50s47 -22 47 -50s-20 -49 -48 -49zM269 573c-28 0 -47 23 -47 49c0 27 21 50 48 50c28 0 48 -22 48 -50s-20 -49 -49 -49zM56 701h92l77 -143h-57z" />
    <glyph glyph-name="space_uni030F" unicode="&#xf6d6;" 
d="M-2 685h91l81 -141h-56zM149 685h91l80 -141h-55z" />
    <glyph glyph-name="dieresis_acutecomb.cap" unicode="&#xf6cc;" horiz-adv-x="301" 
d="M13 721c-27 0 -46 22 -46 49s21 49 48 49s46 -21 46 -49s-19 -49 -48 -49zM287 721c-27 0 -46 22 -46 49s20 49 48 49c27 0 47 -21 47 -49s-20 -49 -49 -49zM142 828h102l-116 -117h-67z" />
    <glyph glyph-name="dieresis_gravecomb.cap" unicode="&#xf6cd;" horiz-adv-x="301" 
d="M13 721c-27 0 -46 22 -46 49s20 49 48 49c27 0 46 -21 46 -49s-19 -49 -48 -49zM287 721c-27 0 -46 22 -46 49s20 49 48 49c27 0 46 -21 46 -49s-19 -49 -48 -49zM57 828h102l81 -117h-67z" />
    <glyph glyph-name="space_uni030F.cap" unicode="&#xf6d3;" 
d="M-45 828h103l92 -117h-67zM129 828h103l91 -117h-67z" />
    <glyph glyph-name="o.superior" horiz-adv-x="355" 
d="M179 591c97 0 158 -69 158 -163c-1 -115 -83 -167 -160 -167c-89 0 -159 64 -159 162c0 104 75 168 161 168zM177 541c-64 0 -92 -62 -92 -116c0 -66 43 -114 93 -114c53 0 92 46 92 115c0 50 -27 115 -93 115z" />
    <glyph glyph-name="uni0401" unicode="&#x401;" horiz-adv-x="492" 
d="M425 388v-72h-262v-243h292v-73h-379v674h364v-73h-277v-213h262zM163 721c-30 0 -49 23 -49 51c0 27 21 50 49 50s48 -22 48 -50s-19 -51 -48 -51zM348 721c-29 0 -49 23 -49 51c0 27 21 50 50 50c28 0 48 -22 48 -50s-19 -51 -49 -51z" />
    <glyph glyph-name="uni0402" unicode="&#x402;" horiz-adv-x="665" 
d="M-1 674h518v-73h-244v-192h3c32 20 83 41 135 41c74 0 126 -32 163 -84s51 -120 51 -188c0 -103 -34 -191 -93 -241c-42 -47 -95 -69 -139 -76l-16 68c39 10 81 31 110 70c29 38 47 96 47 171c0 60 -11 110 -34 146c-26 39 -62 61 -113 61c-44 0 -84 -17 -114 -39v-338
h-87v601h-187v73z" />
    <glyph glyph-name="uni0403" unicode="&#x403;" horiz-adv-x="433" 
d="M76 674h358v-73h-271v-601h-87v674zM283 827h106l-127 -117h-72z" />
    <glyph glyph-name="uni0404" unicode="&#x404;" horiz-adv-x="576" 
d="M544 653l-21 -68c-33 16 -81 28 -133 28c-153 0 -246 -104 -260 -234h346v-70h-345c4 -136 102 -247 256 -247c52 0 101 10 140 27l16 -67c-33 -16 -92 -33 -172 -33c-191 0 -335 129 -335 347c0 190 132 349 351 349c85 0 133 -20 157 -32z" />
    <glyph glyph-name="uni0405" unicode="&#x405;" horiz-adv-x="493" 
d="M42 33l22 73c39 -24 96 -44 156 -44c89 0 141 47 141 115c0 63 -36 99 -127 134c-110 39 -178 96 -178 191c0 105 87 183 218 183c69 0 119 -16 149 -33l-24 -71c-22 12 -67 32 -128 32c-92 0 -127 -55 -127 -101c0 -63 41 -94 134 -130c114 -44 172 -99 172 -198
c0 -104 -77 -194 -236 -194c-65 0 -136 19 -172 43z" />
    <glyph glyph-name="uni0406" unicode="&#x406;" horiz-adv-x="239" 
d="M76 674h87v-674h-87v674z" />
    <glyph glyph-name="uni0407" unicode="&#x407;" horiz-adv-x="239" 
d="M76 674h87v-674h-87v674zM28 721c-30 0 -50 23 -50 51c0 27 22 50 50 50s48 -22 48 -50s-19 -51 -48 -51zM213 721c-29 0 -49 23 -49 51c0 27 21 50 50 50c28 0 48 -22 48 -50s-19 -51 -49 -51z" />
    <glyph glyph-name="uni0408" unicode="&#x408;" horiz-adv-x="370" 
d="M214 230v444h87v-451c0 -179 -88 -234 -204 -234c-32 0 -71 7 -93 16l13 71c18 -7 44 -13 73 -13c78 0 124 35 124 167z" />
    <glyph glyph-name="uni0409" unicode="&#x409;" horiz-adv-x="881" 
d="M125 674h376v-254c21 3 60 5 82 5c135 0 259 -61 259 -210c0 -63 -22 -111 -56 -146c-56 -54 -144 -75 -237 -75c-61 0 -106 4 -135 8v599h-205v-204c0 -146 -7 -308 -101 -373c-24 -16 -65 -32 -101 -32l-13 70c28 5 56 21 72 37c54 52 59 183 59 291v284zM501 353v-287
c21 -3 42 -4 70 -4c97 0 180 49 180 151c0 105 -86 144 -180 144c-21 0 -48 -2 -70 -4z" />
    <glyph glyph-name="uni040A" unicode="&#x40a;" horiz-adv-x="897" 
d="M76 674h87v-269h267v269h87v-263c21 3 57 5 92 5c132 0 249 -60 249 -202c0 -65 -22 -112 -57 -146c-55 -55 -139 -74 -235 -74c-62 0 -107 4 -136 8v329h-267v-331h-87v674zM517 344v-277c20 -4 42 -5 71 -5c95 0 179 45 179 149c0 99 -83 137 -176 137
c-31 0 -55 -2 -74 -4z" />
    <glyph glyph-name="uni040B" unicode="&#x40b;" horiz-adv-x="675" 
d="M-1 674h507v-73h-235v-193h2c38 23 96 46 153 46c56 0 96 -17 125 -46c36 -37 53 -90 53 -157v-251h-88v239c0 50 -9 85 -32 110c-21 22 -48 34 -86 34c-43 0 -95 -20 -127 -43v-340h-88v601h-184v73z" />
    <glyph glyph-name="uni040C" unicode="&#x40c;" horiz-adv-x="542" 
d="M76 674h86v-299h27l231 299h105l-255 -309c111 -15 154 -83 189 -174c25 -69 44 -131 74 -191h-94c-24 46 -43 106 -61 159c-31 89 -74 150 -188 150h-28v-309h-86v674zM318 822h107l-128 -117h-71z" />
    <glyph glyph-name="uni040E" unicode="&#x40e;" horiz-adv-x="521" 
d="M2 674h99l134 -287c17 -40 33 -79 49 -119h2c12 35 25 74 42 122l105 284h92l-141 -346c-37 -90 -79 -193 -126 -256c-44 -55 -93 -83 -153 -83c-22 0 -38 2 -49 6l9 71c7 -2 17 -3 32 -3c70 1 111 68 132 116c7 15 5 25 -3 41zM133 817h67c4 -31 14 -62 61 -62
c46 0 57 29 61 62h67c-5 -67 -45 -108 -130 -108c-82 0 -121 42 -126 108z" />
    <glyph glyph-name="uni040F" unicode="&#x40f;" horiz-adv-x="635" 
d="M76 674h87v-601h311v601h87v-674h-199l-8 -174h-72l-7 174h-199v674z" />
    <glyph glyph-name="uni0410" unicode="&#x410;" horiz-adv-x="612" 
d="M424 212h-239l-70 -212h-90l229 674h105l230 -674h-93zM203 280h203l-66 194c-15 44 -25 84 -35 123h-2c-10 -40 -21 -81 -34 -122z" />
    <glyph glyph-name="uni0411" unicode="&#x411;" horiz-adv-x="546" 
d="M76 674h378v-73h-291v-181c21 3 61 5 83 5c64 0 127 -14 174 -45c51 -33 86 -86 86 -165c0 -63 -21 -111 -56 -146c-55 -54 -146 -75 -238 -75c-61 0 -107 4 -136 8v672zM163 353v-286c20 -4 43 -5 73 -5c54 0 109 17 142 52c23 24 37 57 37 99c0 52 -22 87 -55 110
c-35 24 -80 34 -128 34c-20 0 -47 -2 -69 -4z" />
    <glyph glyph-name="uni0412" unicode="&#x412;" horiz-adv-x="542" 
d="M76 2v663c38 8 98 14 159 14c87 0 143 -15 185 -49c35 -26 56 -66 56 -119c0 -65 -43 -122 -114 -148v-2c64 -16 139 -69 139 -169c0 -58 -23 -102 -57 -135c-47 -43 -123 -63 -233 -63c-60 0 -106 4 -135 8zM163 606v-217h79c92 0 146 48 146 113c0 79 -60 110 -148 110
c-40 0 -63 -3 -77 -6zM163 323v-257c17 -3 42 -4 73 -4c90 0 173 33 173 131c0 92 -79 130 -174 130h-72z" />
    <glyph glyph-name="uni0413" unicode="&#x413;" horiz-adv-x="433" 
d="M76 674h358v-73h-271v-601h-87v674z" />
    <glyph glyph-name="uni0414" unicode="&#x414;" horiz-adv-x="630" 
d="M160 674h377v-603l59 -2l-6 -231h-68l-6 162h-425l-6 -162h-68l-6 231l51 2c25 46 50 95 66 148c23 78 32 168 32 284v171zM241 602v-127c0 -108 -10 -199 -34 -275c-14 -47 -35 -92 -55 -128h298v530h-209z" />
    <glyph glyph-name="uni0415" unicode="&#x415;" horiz-adv-x="492" 
d="M425 388v-72h-262v-243h292v-73h-379v674h364v-73h-277v-213h262z" />
    <glyph glyph-name="uni0416" unicode="&#x416;" horiz-adv-x="801" 
d="M21 674h102l209 -299h26v299h85v-299h27l208 299h102l-239 -310c106 -11 149 -77 182 -173c23 -64 39 -129 67 -191h-89c-23 45 -39 110 -56 158c-31 92 -65 151 -173 151h-29v-309h-85v309h-30c-108 0 -142 -59 -174 -151c-16 -48 -32 -113 -54 -158h-89
c29 62 45 127 67 190c34 95 77 161 182 174z" />
    <glyph glyph-name="uni0417" unicode="&#x417;" horiz-adv-x="492" 
d="M74 570l-24 64c46 30 105 51 178 51c117 0 198 -61 198 -165c0 -83 -60 -146 -139 -164v-2c95 -10 164 -72 164 -169c0 -140 -121 -196 -244 -196c-61 0 -125 13 -176 44l23 68c36 -21 96 -41 151 -41c100 0 155 54 155 128c0 101 -97 130 -183 130h-40v66h40
c89 0 158 55 158 124c0 68 -48 106 -121 106c-51 0 -104 -21 -140 -44z" />
    <glyph glyph-name="uni0418" unicode="&#x418;" horiz-adv-x="658" 
d="M76 674h82v-284c0 -107 -2 -195 -8 -285l2 -1c34 70 76 143 125 223l218 347h87v-674h-82v287c0 109 1 189 8 274l-3 1c-33 -74 -79 -152 -125 -227l-211 -335h-93v674z" />
    <glyph glyph-name="uni0419" unicode="&#x419;" horiz-adv-x="658" 
d="M76 674h82v-284c0 -107 -2 -195 -8 -285l2 -1c34 70 76 143 125 223l218 347h87v-674h-82v287c0 109 1 189 8 274l-3 1c-33 -74 -79 -152 -125 -227l-211 -335h-93v674zM201 815h67c4 -31 14 -62 61 -62c46 0 57 29 61 62h67c-5 -66 -45 -107 -130 -107
c-82 0 -121 41 -126 107z" />
    <glyph glyph-name="uni041A" unicode="&#x41a;" horiz-adv-x="542" 
d="M76 674h86v-299h27l231 299h105l-255 -309c111 -15 154 -83 189 -174c25 -69 44 -131 74 -191h-94c-24 46 -43 106 -61 159c-31 89 -74 150 -188 150h-28v-309h-86v674z" />
    <glyph glyph-name="uni041B" unicode="&#x41b;" horiz-adv-x="594" 
d="M123 674h396v-674h-88v601h-223v-204c0 -146 -6 -309 -101 -373c-25 -16 -64 -32 -103 -32l-11 70c27 5 55 21 71 36c54 53 59 184 59 292v284z" />
    <glyph glyph-name="uni041C" unicode="&#x41c;" horiz-adv-x="804" 
d="M661 0l-17 296c-5 94 -11 207 -10 291h-3c-23 -79 -51 -163 -85 -256l-119 -327h-66l-109 321c-32 95 -59 182 -78 262h-2c-2 -84 -7 -197 -13 -298l-18 -289h-83l47 674h111l115 -326c28 -83 51 -157 68 -227h3c17 68 41 142 71 227l120 326h111l42 -674h-85z" />
    <glyph glyph-name="uni041D" unicode="&#x41d;" horiz-adv-x="652" 
d="M76 674h87v-282h326v282h88v-674h-88v316h-326v-316h-87v674z" />
    <glyph glyph-name="uni041E" unicode="&#x41e;" horiz-adv-x="689" 
d="M349 685c184 0 303 -141 303 -341c0 -232 -141 -355 -313 -355c-178 0 -303 138 -303 342c0 214 133 354 313 354zM345 614c-144 0 -216 -133 -216 -281c0 -144 78 -273 215 -273c138 0 216 127 216 280c0 134 -70 274 -215 274z" />
    <glyph glyph-name="uni041F" unicode="&#x41f;" horiz-adv-x="639" 
d="M76 674h487v-674h-87v601h-313v-601h-87v674z" />
    <glyph glyph-name="uni0420" unicode="&#x420;" horiz-adv-x="532" 
d="M76 0v666c42 7 97 13 167 13c86 0 149 -20 189 -56c37 -32 59 -81 59 -141c0 -61 -18 -109 -52 -144c-46 -49 -121 -74 -206 -74c-26 0 -50 1 -70 6v-270h-87zM163 603v-262c19 -5 43 -7 72 -7c105 0 169 51 169 144c0 89 -63 132 -159 132c-38 0 -67 -3 -82 -7z" />
    <glyph glyph-name="uni0421" unicode="&#x421;" horiz-adv-x="580" 
d="M529 91l18 -69c-32 -16 -96 -32 -178 -32c-190 0 -333 120 -333 341c0 211 143 354 352 354c84 0 137 -18 160 -30l-21 -71c-33 16 -80 28 -136 28c-158 0 -263 -101 -263 -278c0 -165 95 -271 259 -271c53 0 107 11 142 28z" />
    <glyph glyph-name="uni0422" unicode="&#x422;" horiz-adv-x="497" 
d="M204 0v600h-205v74h499v-74h-206v-600h-88z" />
    <glyph glyph-name="uni0423" unicode="&#x423;" horiz-adv-x="521" 
d="M2 674h99l134 -287c17 -40 33 -79 49 -119h2c12 35 25 74 42 122l105 284h92l-141 -346c-37 -90 -79 -193 -126 -256c-44 -55 -93 -83 -153 -83c-22 0 -38 2 -49 6l9 71c7 -2 17 -3 32 -3c70 1 111 68 132 116c7 15 5 25 -3 41z" />
    <glyph glyph-name="uni0424" unicode="&#x424;" horiz-adv-x="725" 
d="M322 701h83v-60c142 -6 284 -92 284 -304s-142 -293 -285 -301v-63h-84v63c-141 9 -284 84 -284 297c0 221 156 300 286 308v60zM321 98v480c-88 -5 -195 -66 -195 -241c0 -161 96 -229 195 -239zM404 578v-480c97 8 195 73 195 240c0 173 -98 235 -195 240z" />
    <glyph glyph-name="uni0425" unicode="&#x425;" horiz-adv-x="571" 
d="M546 0h-101l-86 149c-35 57 -57 94 -78 133h-2c-19 -39 -38 -75 -73 -134l-81 -148h-100l206 341l-198 333h101l89 -158c25 -44 44 -78 62 -114h3c19 40 36 71 61 114l92 158h100l-205 -328z" />
    <glyph glyph-name="uni0426" unicode="&#x426;" horiz-adv-x="652" 
d="M76 674h87v-601h309v601h88v-603l59 -2l-6 -231h-69l-6 162h-462v674z" />
    <glyph glyph-name="uni0427" unicode="&#x427;" horiz-adv-x="597" 
d="M71 674h87v-214c0 -92 48 -144 143 -144c47 0 98 16 133 38v320h88v-674h-88v286h-2c-47 -27 -103 -42 -162 -42c-89 0 -199 38 -199 203v227z" />
    <glyph glyph-name="uni0428" unicode="&#x428;" horiz-adv-x="847" 
d="M76 674h86v-601h219v601h86v-601h218v601h87v-674h-696v674z" />
    <glyph glyph-name="uni0429" unicode="&#x429;" horiz-adv-x="864" 
d="M76 674h86v-601h219v601h86v-601h218v601h87v-603l59 -2l-6 -231h-69l-5 162h-675v674z" />
    <glyph glyph-name="uni042A" unicode="&#x42a;" horiz-adv-x="631" 
d="M-2 674h260v-252c20 3 55 5 81 5c130 0 253 -63 253 -210c0 -63 -20 -110 -52 -144c-56 -59 -145 -79 -235 -79c-59 0 -105 4 -134 8v600h-173v72zM258 353v-286c19 -4 41 -5 69 -5c97 0 173 49 173 151c0 105 -84 145 -172 145c-23 0 -49 -2 -70 -5z" />
    <glyph glyph-name="uni042B" unicode="&#x42b;" horiz-adv-x="746" 
d="M76 674h87v-252c20 3 58 5 80 5c139 0 260 -61 260 -211c0 -62 -20 -108 -52 -143c-55 -58 -149 -79 -240 -79c-60 0 -106 4 -135 8v672zM163 353v-286c18 -4 40 -5 70 -5c96 0 179 49 179 151c0 105 -90 145 -180 145c-32 0 -58 -3 -69 -5zM578 674h88v-674h-88v674z
" />
    <glyph glyph-name="uni042C" unicode="&#x42c;" horiz-adv-x="545" 
d="M76 674h87v-252c20 3 60 5 83 5c138 0 260 -61 260 -210c0 -63 -20 -109 -52 -144c-55 -58 -149 -79 -242 -79c-61 0 -107 4 -136 8v672zM163 353v-286c20 -4 42 -5 72 -5c97 0 180 47 180 150c0 106 -85 146 -181 146c-22 0 -49 -2 -71 -5z" />
    <glyph glyph-name="uni042D" unicode="&#x42d;" horiz-adv-x="568" 
d="M123 310v70h314c-11 130 -92 233 -231 233c-54 0 -101 -15 -144 -34l-21 67c48 21 106 39 170 39c212 0 320 -153 320 -349c0 -221 -146 -347 -325 -347c-67 0 -128 13 -176 35l19 69c39 -18 95 -31 145 -31c149 0 238 108 244 248h-315z" />
    <glyph glyph-name="uni042E" unicode="&#x42e;" horiz-adv-x="867" 
d="M76 674h87v-291h100c18 188 128 302 287 302c175 0 281 -141 281 -341c0 -234 -130 -355 -290 -355c-163 0 -273 124 -280 321h-98v-310h-87v674zM544 59c128 0 198 128 198 281c0 134 -63 275 -196 275c-134 0 -199 -136 -199 -282c0 -142 71 -274 197 -274z" />
    <glyph glyph-name="uni042F" unicode="&#x42f;" horiz-adv-x="543" 
d="M108 0h-93c10 18 19 39 27 61c29 77 47 171 102 226c16 16 36 28 56 34v3c-83 14 -149 74 -149 166c0 59 24 106 62 137c42 34 108 52 193 52c57 0 117 -5 161 -14v-665h-87v292h-64c-42 0 -73 -9 -97 -33c-46 -47 -65 -146 -89 -210c-7 -17 -12 -31 -22 -49zM380 359
v245c-15 3 -43 8 -82 8c-86 0 -159 -33 -159 -126c0 -81 72 -128 167 -128c29 0 57 0 74 1z" />
    <glyph glyph-name="uni0430" unicode="&#x430;" horiz-adv-x="482" 
d="M421 0h-80l-7 61h-3c-27 -38 -79 -72 -148 -72c-98 0 -148 69 -148 139c0 117 104 181 291 180v10c0 40 -11 112 -110 112c-45 0 -92 -14 -126 -36l-20 58c40 26 98 43 159 43c148 0 184 -101 184 -198v-181c0 -42 2 -83 8 -116zM328 163v84c-96 2 -205 -15 -205 -109
c0 -57 38 -84 83 -84c63 0 103 40 117 81c3 9 5 19 5 28z" />
    <glyph glyph-name="uni0431" unicode="&#x431;" horiz-adv-x="528" 
d="M443 721l-4 -73c-25 -9 -69 -17 -101 -22c-78 -12 -135 -38 -172 -91c-31 -44 -49 -109 -53 -160h3c31 70 99 109 168 109c119 0 206 -85 206 -239c0 -158 -82 -256 -224 -256c-170 0 -226 163 -226 324c0 110 23 200 75 268c47 67 114 98 208 114c39 6 87 14 120 26z
M401 238c0 79 -31 181 -135 181c-52 0 -89 -27 -109 -66c-16 -29 -24 -64 -24 -103c0 -80 39 -195 135 -195c97 0 133 94 133 183z" />
    <glyph glyph-name="uni0432" unicode="&#x432;" horiz-adv-x="500" 
d="M71 0v478c34 6 97 11 154 11c81 0 215 -13 215 -121c0 -60 -46 -97 -101 -109v-2c71 -10 123 -50 123 -120c0 -127 -160 -143 -255 -143c-54 0 -110 4 -136 6zM155 424v-143h66c65 0 132 19 132 76c0 48 -42 71 -130 71c-29 0 -47 -2 -68 -4zM154 223v-165
c25 -3 43 -4 71 -4c59 0 147 14 147 84s-70 85 -154 85h-64z" />
    <glyph glyph-name="uni0433" unicode="&#x433;" horiz-adv-x="385" 
d="M71 484h297v-71h-210v-413h-87v484z" />
    <glyph glyph-name="uni0434" unicode="&#x434;" horiz-adv-x="530" 
d="M125 484h323v-418l50 -1l-5 -219h-69l-4 154h-335l-4 -154h-69l-4 219l41 1c21 31 37 64 48 99c19 60 28 125 28 193v126zM203 417v-80c0 -64 -9 -126 -25 -180c-10 -33 -24 -63 -39 -90h223v350h-159z" />
    <glyph glyph-name="uni0435" unicode="&#x435;" horiz-adv-x="501" 
d="M462 226h-340c2 -119 78 -168 166 -168c63 0 101 11 134 25l15 -63c-31 -14 -84 -30 -161 -30c-149 0 -238 98 -238 244s86 261 227 261c158 0 200 -139 200 -228c0 -18 -2 -32 -3 -41zM123 289h257c1 56 -23 143 -122 143c-89 0 -128 -82 -135 -143z" />
    <glyph glyph-name="uni0436" unicode="&#x436;" horiz-adv-x="667" 
d="M13 484h101l160 -211h18v211h84v-211h17l160 211h101l-191 -220c73 -8 116 -51 145 -128c17 -47 33 -98 53 -136h-88c-16 29 -30 69 -44 111c-30 79 -75 103 -138 103h-15v-214h-84v214h-16c-68 0 -109 -25 -139 -104c-16 -42 -29 -80 -46 -110h-85c20 39 36 90 53 135
c30 78 73 121 146 129z" />
    <glyph glyph-name="uni0437" unicode="&#x437;" horiz-adv-x="431" 
d="M113 221v60h42c74 0 124 34 124 79c0 43 -39 70 -94 70c-39 0 -83 -13 -117 -34l-22 54c49 30 105 44 161 44c74 0 164 -33 164 -127c0 -60 -55 -99 -109 -110v-2c72 -6 132 -50 132 -121c0 -105 -107 -144 -209 -144c-57 0 -114 15 -157 39l23 59c35 -19 82 -33 128 -33
c73 0 119 35 119 83c0 65 -68 83 -141 83h-44z" />
    <glyph glyph-name="uni0438" unicode="&#x438;" horiz-adv-x="554" 
d="M71 484h83v-204c0 -77 -1 -125 -5 -194l3 -1c29 59 46 93 78 149l151 250h103v-484h-84v205c0 79 2 120 6 198h-3c-31 -62 -52 -101 -80 -150c-46 -75 -99 -168 -151 -253h-101v484z" />
    <glyph glyph-name="uni0439" unicode="&#x439;" horiz-adv-x="554" 
d="M71 484h83v-204c0 -77 -1 -125 -5 -194l3 -1c29 59 46 93 78 149l151 250h103v-484h-84v205c0 79 2 120 6 198h-3c-31 -62 -52 -101 -80 -150c-46 -75 -99 -168 -151 -253h-101v484zM147 681h64c3 -43 24 -76 64 -76c43 0 63 32 68 76h63c-4 -82 -56 -124 -133 -124
c-88 0 -122 55 -126 124z" />
    <glyph glyph-name="uni043A" unicode="&#x43a;" horiz-adv-x="479" 
d="M73 484h87v-210h21l182 210h107l-211 -219c78 -8 125 -60 163 -147c13 -32 30 -79 52 -118h-92c-13 21 -30 59 -45 99c-33 78 -78 114 -160 114h-17v-213h-87v484z" />
    <glyph glyph-name="uni043B" unicode="&#x43b;" horiz-adv-x="507" 
d="M100 484h336v-484h-87v415h-166v-126c0 -136 -13 -227 -76 -268c-24 -19 -51 -30 -96 -30l-9 69c17 3 36 10 48 20c45 33 50 101 50 209v195z" />
    <glyph glyph-name="uni043C" unicode="&#x43c;" horiz-adv-x="639" 
d="M42 0l36 484h108l88 -244c12 -36 33 -95 44 -133h2c11 36 38 113 57 166l78 211h109l34 -484h-84l-11 231c-3 52 -7 114 -9 173h-3c-13 -44 -26 -83 -53 -157l-93 -244h-64l-86 239c-15 46 -36 116 -48 161h-4c-2 -57 -5 -121 -8 -174l-12 -229h-81z" />
    <glyph glyph-name="uni043D" unicode="&#x43d;" horiz-adv-x="546" 
d="M71 484h87v-195h230v195h87v-484h-87v219h-230v-219h-87v484z" />
    <glyph glyph-name="uni043E" unicode="&#x43e;" horiz-adv-x="549" 
d="M278 495c139 0 233 -101 233 -249c0 -179 -124 -257 -241 -257c-131 0 -232 96 -232 249c0 162 106 257 240 257zM276 429c-104 0 -149 -96 -149 -188c0 -106 61 -186 147 -186c84 0 147 79 147 188c0 82 -41 186 -145 186z" />
    <glyph glyph-name="uni043F" unicode="&#x43f;" horiz-adv-x="541" 
d="M71 484h400v-484h-88v414h-225v-414h-87v484z" />
    <glyph glyph-name="uni0440" unicode="&#x440;" horiz-adv-x="569" 
d="M73 -198v524c0 62 -2 112 -4 158h79l4 -83h2c36 59 93 94 172 94c117 0 205 -99 205 -246c0 -174 -106 -260 -220 -260c-64 0 -120 28 -149 76h-2v-263h-87zM160 280v-83c0 -13 2 -25 4 -36c16 -61 69 -103 132 -103c93 0 147 76 147 187c0 97 -51 180 -144 180
c-60 0 -116 -43 -133 -109c-3 -11 -6 -24 -6 -36z" />
    <glyph glyph-name="uni0441" unicode="&#x441;" horiz-adv-x="448" 
d="M403 84l15 -66c-23 -12 -74 -28 -139 -28c-146 0 -241 99 -241 247c0 149 102 257 260 257c52 0 98 -13 122 -25l-20 -68c-21 12 -54 23 -102 23c-111 0 -171 -82 -171 -183c0 -112 72 -181 168 -181c50 0 83 13 108 24z" />
    <glyph glyph-name="uni0442" unicode="&#x442;" horiz-adv-x="411" 
d="M11 484h389v-70h-151v-414h-87v414h-151v70z" />
    <glyph glyph-name="uni0443" unicode="&#x443;" horiz-adv-x="471" 
d="M9 484h96l106 -286c11 -32 23 -70 31 -99h2c9 29 19 66 31 101l96 284h93l-132 -345c-63 -166 -106 -251 -166 -303c-43 -38 -86 -53 -108 -57l-22 74c22 7 51 21 77 43c24 19 54 53 74 98c4 9 7 16 7 21s-2 12 -6 23z" />
    <glyph glyph-name="uni0444" unicode="&#x444;" horiz-adv-x="641" 
d="M281 710h80v-217c141 -10 243 -99 243 -250c0 -159 -108 -243 -243 -252v-189h-80v188c-140 9 -243 97 -243 248c0 160 107 244 243 255v217zM281 51v382c-98 -13 -156 -93 -156 -192c0 -100 60 -178 156 -190zM361 433v-382c97 13 156 93 156 192
c0 100 -59 176 -156 190z" />
    <glyph glyph-name="uni0445" unicode="&#x445;" horiz-adv-x="463" 
d="M16 484h98l69 -104c18 -27 33 -52 49 -79h3c16 29 32 54 48 80l68 103h95l-165 -234l170 -250h-100l-71 109c-19 28 -35 55 -52 84h-2c-16 -29 -33 -55 -51 -84l-70 -109h-97l172 247z" />
    <glyph glyph-name="uni0446" unicode="&#x446;" horiz-adv-x="550" 
d="M71 484h87v-415h223v415h87v-418l50 -1l-5 -219h-68l-4 154h-370v484z" />
    <glyph glyph-name="uni0447" unicode="&#x447;" horiz-adv-x="515" 
d="M65 484h88v-159c0 -61 23 -103 100 -103c38 0 77 14 104 34v228h87v-484h-87v194h-2c-33 -22 -85 -37 -131 -37c-92 0 -159 47 -159 158v169z" />
    <glyph glyph-name="uni0448" unicode="&#x448;" horiz-adv-x="738" 
d="M71 484h86v-415h169v415h86v-415h169v415h87v-484h-597v484z" />
    <glyph glyph-name="uni0449" unicode="&#x449;" horiz-adv-x="749" 
d="M71 484h86v-415h169v415h86v-415h169v415h87v-418l49 -1l-5 -219h-68l-4 154h-569v484z" />
    <glyph glyph-name="uni044A" unicode="&#x44a;" horiz-adv-x="579" 
d="M14 484h231v-163c23 3 53 4 83 4c100 0 215 -38 215 -163c0 -51 -20 -86 -51 -112c-53 -45 -134 -55 -205 -55c-48 0 -93 3 -130 7v413h-143v69zM244 257v-195c18 -3 37 -5 66 -5c73 0 145 25 145 102c0 83 -79 103 -149 103c-22 0 -41 -2 -62 -5z" />
    <glyph glyph-name="uni044B" unicode="&#x44b;" horiz-adv-x="665" 
d="M71 484h87v-165c19 4 47 6 79 6c104 0 209 -43 209 -162c0 -51 -19 -86 -50 -112c-53 -45 -131 -56 -195 -56c-49 0 -94 3 -130 7v482zM158 257v-196c17 -2 36 -4 61 -4c67 0 140 28 140 103c0 78 -70 102 -136 102c-25 0 -47 -2 -65 -5zM507 484h87v-484h-87v484z" />
    <glyph glyph-name="uni044C" unicode="&#x44c;" horiz-adv-x="498" 
d="M71 484h87v-164c20 4 54 5 80 5c109 0 224 -34 224 -163c0 -50 -20 -85 -51 -111c-53 -45 -139 -56 -210 -56c-49 0 -94 3 -130 7v482zM158 257v-196c17 -2 36 -4 65 -4c66 0 151 22 151 103c0 84 -88 102 -153 102c-23 0 -43 -2 -63 -5z" />
    <glyph glyph-name="uni044D" unicode="&#x44d;" horiz-adv-x="464" 
d="M93 216v60h244c-8 83 -59 151 -167 151c-51 0 -90 -15 -116 -27l-19 57c42 24 98 38 149 38c70 0 133 -24 176 -69c41 -43 66 -107 66 -186c0 -141 -93 -251 -257 -251c-52 0 -102 13 -141 33l17 63c23 -10 64 -26 121 -26c97 0 162 61 170 157h-243z" />
    <glyph glyph-name="uni044E" unicode="&#x44e;" horiz-adv-x="705" 
d="M71 484h86v-204h83c15 128 99 215 215 215c126 0 212 -100 212 -249c0 -157 -96 -257 -218 -257c-116 0 -201 86 -211 224h-81v-213h-86v484zM450 54c89 0 129 98 129 190c0 91 -41 185 -127 185c-85 0 -130 -92 -130 -190c0 -94 43 -185 128 -185z" />
    <glyph glyph-name="uni044F" unicode="&#x44f;" horiz-adv-x="496" 
d="M426 480v-480h-87v203h-65c-37 0 -62 -10 -81 -27c-36 -29 -49 -89 -68 -136c-6 -15 -13 -28 -20 -40h-94c11 16 21 34 30 55c21 47 33 110 76 146c15 13 33 24 55 28v3c-63 7 -128 46 -128 120c0 50 27 84 64 105c40 23 99 33 162 33c58 0 114 -5 156 -10zM339 263v163
c-22 3 -42 5 -73 5c-60 0 -131 -17 -131 -84c0 -62 77 -84 129 -84h75z" />
    <glyph glyph-name="uni0451" unicode="&#x451;" horiz-adv-x="501" 
d="M462 226h-340c2 -119 78 -168 166 -168c63 0 101 11 134 25l15 -63c-31 -14 -84 -30 -161 -30c-149 0 -238 98 -238 244s86 261 227 261c158 0 200 -139 200 -228c0 -18 -2 -32 -3 -41zM123 289h257c1 56 -23 143 -122 143c-89 0 -128 -82 -135 -143zM176 570
c-30 0 -51 24 -51 51c0 28 23 51 51 51s49 -22 49 -51c0 -27 -20 -51 -49 -51zM361 570c-30 0 -50 24 -50 51c0 28 22 51 50 51s49 -22 49 -51c0 -27 -20 -51 -49 -51z" />
    <glyph glyph-name="uni0452" unicode="&#x452;" horiz-adv-x="557" 
d="M7 625h82v85h88v-85h226v-63h-226v-142h2c35 39 88 69 147 69c60 0 107 -29 138 -78c39 -56 53 -132 53 -212c0 -135 -37 -235 -99 -287c-35 -30 -79 -51 -125 -56l-17 69c38 8 67 20 94 50c35 40 59 114 59 219c0 60 -8 120 -38 170c-20 32 -52 54 -92 54
c-39 0 -79 -24 -107 -58c-10 -14 -15 -31 -15 -55v-305h-88v562h-82v63z" />
    <glyph glyph-name="uni0453" unicode="&#x453;" horiz-adv-x="385" 
d="M71 484h297v-71h-210v-413h-87v484zM250 693h97l-123 -143h-62z" />
    <glyph glyph-name="uni0454" unicode="&#x454;" horiz-adv-x="460" 
d="M432 463l-21 -63c-23 11 -59 27 -110 27c-106 0 -163 -68 -173 -151h245v-60h-244c7 -96 74 -158 170 -158c52 0 92 15 115 25l18 -62c-24 -13 -78 -32 -147 -32c-156 0 -247 108 -247 248c0 155 110 258 264 258c58 0 107 -19 130 -32z" />
    <glyph glyph-name="uni0455" unicode="&#x455;" horiz-adv-x="396" 
d="M39 23l22 67c26 -17 72 -35 116 -35c64 0 94 32 94 72c0 42 -25 65 -90 89c-87 31 -128 79 -128 137c0 78 63 142 167 142c49 0 92 -14 119 -30l-22 -64c-19 12 -54 28 -99 28c-52 0 -81 -30 -81 -66c0 -40 29 -58 92 -82c84 -32 127 -74 127 -146
c0 -85 -66 -145 -181 -145c-53 0 -102 13 -136 33z" />
    <glyph glyph-name="uni0456" unicode="&#x456;" horiz-adv-x="234" 
d="M161 0h-88v484h88v-484zM117 675c33 0 54 -24 54 -55c1 -30 -21 -54 -56 -54c-31 0 -53 24 -53 54c0 31 23 55 55 55z" />
    <glyph glyph-name="uni0457" unicode="&#x457;" horiz-adv-x="234" 
d="M161 0h-88v484h88v-484zM25 570c-30 0 -51 24 -51 51c0 28 23 51 51 51s49 -22 49 -51c0 -27 -20 -51 -49 -51zM210 570c-30 0 -50 24 -50 51c0 28 22 51 51 51c27 0 48 -22 48 -51c0 -27 -19 -51 -49 -51z" />
    <glyph glyph-name="uni0458" unicode="&#x458;" horiz-adv-x="243" 
d="M-36 -209l-9 69c40 3 75 14 96 37c24 28 33 66 33 182v405h88v-439c0 -94 -15 -155 -58 -199c-39 -39 -103 -55 -150 -55zM129 675c32 0 53 -24 53 -55c1 -29 -20 -54 -55 -54c-33 0 -54 25 -54 54c0 31 23 55 56 55z" />
    <glyph glyph-name="uni0459" unicode="&#x459;" horiz-adv-x="775" 
d="M105 484h332v-165c20 3 54 5 79 5c108 0 223 -37 223 -163c0 -49 -19 -84 -49 -110c-52 -45 -140 -56 -210 -56c-47 0 -94 3 -131 7v413h-162v-126c0 -136 -18 -226 -81 -267c-23 -19 -50 -30 -95 -30l-9 69c17 3 37 10 48 19c46 32 55 103 55 209v195zM436 256v-195
c18 -2 37 -4 65 -4c65 0 150 22 150 102c0 83 -83 103 -145 103c-28 0 -49 -3 -70 -6z" />
    <glyph glyph-name="uni045A" unicode="&#x45a;" horiz-adv-x="782" 
d="M71 484h87v-180h204v180h88v-169c20 4 54 5 82 5c99 0 214 -39 214 -160c0 -50 -19 -85 -49 -111c-52 -45 -134 -54 -204 -54c-48 0 -95 3 -131 6v235h-204v-236h-87v484zM449 253v-192c17 -2 36 -4 66 -4c63 0 144 22 144 100c0 81 -78 101 -144 101
c-25 0 -46 -2 -66 -5z" />
    <glyph glyph-name="uni045B" unicode="&#x45b;" horiz-adv-x="571" 
d="M7 625h82v85h88v-85h202v-63h-202v-156h2c16 24 37 44 60 59c27 16 58 24 93 24c101 0 169 -71 169 -206v-283h-88v273c0 78 -29 144 -112 144c-59 0 -102 -43 -118 -88c-4 -12 -6 -29 -6 -46v-283h-88v562h-82v63z" />
    <glyph glyph-name="uni045C" unicode="&#x45c;" horiz-adv-x="479" 
d="M73 484h87v-210h21l182 210h107l-211 -219c78 -8 125 -60 163 -147c13 -32 30 -79 52 -118h-92c-13 21 -30 59 -45 99c-33 78 -78 114 -160 114h-17v-213h-87v484zM280 693h97l-122 -143h-63z" />
    <glyph glyph-name="uni045E" unicode="&#x45e;" horiz-adv-x="471" 
d="M106 681h64c2 -43 23 -76 64 -76c43 0 63 32 68 76h63c-5 -82 -56 -124 -133 -124c-88 0 -122 55 -126 124zM9 484h96l106 -286c11 -32 23 -70 31 -99h2c9 29 19 66 31 101l96 284h93l-132 -345c-63 -166 -106 -251 -166 -303c-43 -38 -86 -53 -108 -57l-22 74
c22 7 51 21 77 43c24 19 54 53 74 98c4 9 7 16 7 21s-2 12 -6 23z" />
    <glyph glyph-name="uni045F" unicode="&#x45f;" horiz-adv-x="538" 
d="M71 484h87v-415h222v415h88v-484h-157l-6 -157h-70l-7 157h-157v484z" />
    <glyph glyph-name="uni0490" unicode="&#x490;" horiz-adv-x="447" 
d="M76 674h292l16 122h64l-11 -195h-274v-601h-87v674z" />
    <glyph glyph-name="uni0491" unicode="&#x491;" horiz-adv-x="392" 
d="M71 484h229l12 109h63l-6 -179h-211v-414h-87v484z" />
    <glyph glyph-name="breve.cyrcap" unicode="&#xf6d1;" 
d="M22 834h67c4 -32 14 -63 61 -63c46 0 57 30 61 63h67c-5 -67 -45 -108 -130 -108c-82 0 -121 42 -126 108z" />
    <glyph glyph-name="circumflex.cyrcap" unicode="&#xf6d2;" 
d="M278 726l-67 -1c-4 28 -14 60 -61 60c-46 0 -57 -30 -61 -60l-67 1c5 63 46 105 130 105c82 0 122 -43 126 -105z" />
    <glyph glyph-name="breve.cyr" unicode="&#xf6d4;" horiz-adv-x="301" 
d="M21 681h64c2 -43 23 -76 64 -76c43 0 63 32 67 76h64c-5 -82 -56 -124 -133 -124c-88 0 -122 55 -126 124z" />
    </font>
</defs>
</svg>
